<svg
  xmlns="http://www.w3.org/2000/svg"
  viewBox="0 0 1685 1080"
  height="100%"
  width="87%"
  style="backgroundColor: #fff; color: #2C0EBff4; overflow: visible"
>
  <path
    stroke="currentColor"
    fill="transparent"
    d="M899.1363636363636,527.1818181818181L1021.3918406072106,562.111954459203M899.1363636363636,527.1818181818181L951.5,501M899.1363636363636,527.1818181818181L842.3280949326492,513.9265554842848M951.5,501L1029.8636363636363,559.7727272727273M951.5,501L854.8760429082241,423.70083432657924M1029.8636363636363,559.7727272727273L1037.5513122026832,559.8553904537923M1029.8636363636363,559.7727272727273L1021.3918406072106,562.111954459203M1039.4498775010209,556.3717844017966L1080.835164206431,508.1918983865431M1039.4498775010209,556.3717844017966L948.5505050505051,396.3888888888889M1039.4498775010209,556.3717844017966L1037.5513122026832,559.8553904537923M791.0550458715596,433.9204892966361L716.2589576547231,541.9592833876221M791.0550458715596,433.9204892966361L851.0856249999999,403.13557692307694M791.0550458715596,433.9204892966361L716.9846350832266,451.2035851472471M854.8760429082241,423.70083432657924L851.8824235928896,403.98423814627296M854.8760429082241,423.70083432657924L842.3280949326492,513.9265554842848M842.3280949326492,513.9265554842848L826.5584319526628,558.4526627218935M890.3349098697126,617.7493307156881L952.0165094339623,684.7179245283019M890.3349098697126,617.7493307156881L1021.3918406072106,562.111954459203M890.3349098697126,617.7493307156881L848.0470547228999,619.8487277797142M848.0470547228999,619.8487277797142L839.3541666666666,636.9276960784314M848.0470547228999,619.8487277797142L826.5584319526628,558.4526627218935M851.0856249999999,403.13557692307694L851.8824235928896,403.98423814627296M851.0856249999999,403.13557692307694L846.1109785202864,391.10895906003304M826.5584319526628,558.4526627218935L716.2589576547231,541.9592833876221M716.2589576547231,541.9592833876221L663.1487430167598,546.2081005586592M952.0165094339623,684.7179245283019L953.4017341040462,703.0028901734104M952.0165094339623,684.7179245283019L1050.1492036881812,593.127409891031M1037.5513122026832,559.8553904537923L1050.1657245941071,592.9477450390859M752.5909090909091,611.4090909090909L728.5869565217391,635.4130434782609M752.5909090909091,611.4090909090909L839.3541666666666,636.9276960784314M752.5909090909091,611.4090909090909L647.1121246140892,562.1856581532417M839.3541666666666,636.9276960784314L815.032992036405,698.4459613196815M647.1121246140892,562.1856581532417L644.6737951807229,570.8644578313254M647.1121246140892,562.1856581532417L649.0974922827229,552.3941857874805M817.5139458572601,706.9995898277276L850.3020713463751,763.3791714614499M817.5139458572601,706.9995898277276L953.4017341040462,703.0028901734104M817.5139458572601,706.9995898277276L816.5560053981106,705.8434547908232M953.4017341040462,703.0028901734104L962.6612903225806,718.4354838709677M851.8824235928896,403.98423814627296L948.5505050505051,396.3888888888889M644.6737951807229,570.8644578313254L637.1978021978022,584.5958735142409M644.6737951807229,570.8644578313254L728.5869565217391,635.4130434782609M948.5505050505051,396.3888888888889L1051.0448318804483,347.3698630136986M854.6677852348994,775.7147651006711L854.5763279273917,774.7022020532659M854.6677852348994,775.7147651006711L841.3678357570573,864.3810949529512M854.6677852348994,775.7147651006711L917.5909090909091,802.6818181818181M962.6612903225806,718.4354838709677L850.3020713463751,763.3791714614499M962.6612903225806,718.4354838709677L999.3818871659519,749.9922467832398M1046.0123022847101,305.8514938488577L1045.3429054054054,286.72586872586874M1046.0123022847101,305.8514938488577L856.367469879518,328.16265060240966M1046.0123022847101,305.8514938488577L1051.0448318804483,347.3698630136986M846.1109785202864,391.10895906003304L844.6450357676283,367.3155805361214M846.1109785202864,391.10895906003304L753.7616822429907,380.45327102803736M728.5869565217391,635.4130434782609L794.59375,692.5M815.032992036405,698.4459613196815L794.59375,692.5M815.032992036405,698.4459613196815L816.5560053981106,705.8434547908232M663.1487430167598,546.2081005586592L649.0974922827229,552.3941857874805M663.1487430167598,546.2081005586592L716.9846350832266,451.2035851472471M735.9090441932168,384.83812949640287L715.3982300884956,381.3362831858407M735.9090441932168,384.83812949640287L703.8147208121827,426.96192893401013M735.9090441932168,384.83812949640287L753.7616822429907,380.45327102803736M716.9846350832266,451.2035851472471L703.5735873850197,427.47634691195793M703.5735873850197,427.47634691195793L615.1367210250437,397.27839254513685M703.5735873850197,427.47634691195793L703.8147208121827,426.96192893401013M715.3982300884956,381.3362831858407L678.8666666666667,369.8M715.3982300884956,381.3362831858407L701.7368421052631,404.10526315789474M703.8147208121827,426.96192893401013L701.7368421052631,404.10526315789474M701.7368421052631,404.10526315789474L678.8666666666667,369.8M844.6450357676283,367.3155805361214L755.9560473815461,305.3740648379052M844.6450357676283,367.3155805361214L856.367469879518,328.16265060240966M678.8666666666667,369.8L622.2512647554806,345.5362563237774M753.7616822429907,380.45327102803736L729.7,354.1M733.152397260274,312.67123287671234L679.9902200488998,317.01100244498775M733.152397260274,312.67123287671234L729.7,354.1M733.152397260274,312.67123287671234L755.9560473815461,305.3740648379052M729.7,354.1L665.3990825688073,321.94954128440367M854.5763279273917,774.7022020532659L976.0985401459855,763.3978102189781M854.5763279273917,774.7022020532659L850.3020713463751,763.3791714614499M999.3818871659519,749.9922467832398L976.0985401459855,763.3978102189781M999.3818871659519,749.9922467832398L1045.5545567265965,756.0302112642472M1050.1492036881812,593.127409891031L1050.1657245941071,592.9477450390859M1050.1492036881812,593.127409891031L1063.609589041096,733.5M1050.1657245941071,592.9477450390859L1167.7009164610504,628.3346845259076M1051.0448318804483,347.3698630136986L1100.4290120077376,398.1751706266652M1098.25,718.125L1164.4486404833838,647.1978851963746M1098.25,718.125L1067.5,733.5M1098.25,718.125L1169.0701357466064,696.8789592760181M638.5263157894736,692.5L703.0445026178011,755.3638743455498M638.5263157894736,692.5L794.59375,692.5M638.5263157894736,692.5L633.9251480281532,690.938889509552M856.367469879518,328.16265060240966L870.25,258.75M1222.9022727272727,596.2943181818182L1188.646551724138,514.4612068965517M1222.9022727272727,596.2943181818182L1088.5271739130435,509.9103260869565M1222.9022727272727,596.2943181818182L1232.3304708021822,608.7969286724591M1080.835164206431,508.1918983865431L1088.5271739130435,509.9103260869565M1080.835164206431,508.1918983865431L1099.8970336565887,423.843126069595M917.5909090909091,802.6818181818181L944.55,836.83M917.5909090909091,802.6818181818181L954.5204081632653,795.295918367347M976.0985401459855,763.3978102189781L954.5204081632653,795.295918367347M1088.5271739130435,509.9103260869565L1188.646551724138,514.4612068965517M1067.5,733.5L1063.609589041096,733.5M1067.5,733.5L1157.1613047363717,764.9396782841823M1167.7009164610504,628.3346845259076L1164.4486404833838,647.1978851963746M1167.7009164610504,628.3346845259076L1229.6888398486758,610.2799495586381M954.5204081632653,795.295918367347L951.3139534883721,827.3604651162791M1200.3698630136987,504.6917808219178L1219.5745614035088,493.0964912280702M1200.3698630136987,504.6917808219178L1169.048076923077,454.5769230769231M1200.3698630136987,504.6917808219178L1188.646551724138,514.4612068965517M1099.8970336565887,423.843126069595L1169.048076923077,454.5769230769231M1099.8970336565887,423.843126069595L1100.4290120077376,398.1751706266652M755.9560473815461,305.3740648379052L748.4630484988453,270.79099307159356M665.3990825688073,321.94954128440367L679.9902200488998,317.01100244498775M665.3990825688073,321.94954128440367L620.2425824525659,327.6589838278365M622.2512647554806,345.5362563237774L620.2425824525659,327.6589838278365M622.2512647554806,345.5362563237774L615.1367210250437,397.27839254513685M612.0589738908161,505.0492970604345L466.44928684627575,542.6259904912837M612.0589738908161,505.0492970604345L649.0974922827229,552.3941857874805M612.0589738908161,505.0492970604345L595.7074468085107,454.76063829787233M951.3139534883721,827.3604651162791L944.55,836.83M951.3139534883721,827.3604651162791L1049.4643933168995,805.0535469734319M816.5560053981106,705.8434547908232L782.1703296703297,735.5824175824176M782.1703296703297,735.5824175824176L734.2863974495218,820.1773645058448M782.1703296703297,735.5824175824176L703.0445026178011,755.3638743455498M743.5,271.5L719.5,271.5M743.5,271.5L696.6451612903226,298.2741935483871M743.5,271.5L748.4630484988453,270.79099307159356M679.9902200488998,317.01100244498775L696.6451612903226,298.2741935483871M1244.3780193236714,474.0169082125604L1275.4162580158431,462.0503583553376M1244.3780193236714,474.0169082125604L1169.048076923077,454.5769230769231M1244.3780193236714,474.0169082125604L1219.5745614035088,493.0964912280702M953.7620337902455,871.6992349378387L1050.1906077348067,808.3318863456985M953.7620337902455,871.6992349378387L939.5508397639583,863.8254652746255M953.7620337902455,871.6992349378387L974.6566878980892,905.987898089172M944.55,836.83L939.5508397639583,863.8254652746255M1063.609589041096,733.5L1045.5545567265965,756.0302112642472M719.5,271.5L685.6538461538462,237.65384615384616M719.5,271.5L710.1636363636363,277.24545454545455M696.6451612903226,298.2741935483871L710.1636363636363,277.24545454545455M1232.3304708021822,608.7969286724591L1234.0331254871396,608.7650038971161M1232.3304708021822,608.7969286724591L1229.6888398486758,610.2799495586381M710.1636363636363,277.24545454545455L683.4453125,237.16796875M748.4630484988453,270.79099307159356L755.0675082327114,242.6119648737651M683.4453125,237.16796875L685.6538461538462,237.65384615384616M683.4453125,237.16796875L652.9927768860354,227.58105939004815M755.0675082327114,242.6119648737651L685.6538461538462,237.65384615384616M755.0675082327114,242.6119648737651L794.712780421482,200.18456832087014M1045.5545567265965,756.0302112642472L1049.4643933168995,805.0535469734319M1164.4486404833838,647.1978851963746L1169.0701357466064,696.8789592760181M1169.0701357466064,696.8789592760181L1195.6197604790418,715.5843767011431M703.0445026178011,755.3638743455498L696.8123041570922,816.4394192604972M734.2863974495218,820.1773645058448L710.044409419618,822.9843315408864M734.2863974495218,820.1773645058448L799.3319946452476,862.2068273092369M633.9251480281532,690.938889509552L594.2512055624089,752.0834361332287M633.9251480281532,690.938889509552L624.4553462940462,631.6649453219927M1234.0331254871396,608.7650038971161L1271.3555371900827,609.9240850059032M1234.0331254871396,608.7650038971161L1219.5745614035088,493.0964912280702M1153.4565217391305,300.89130434782606L1062.2558139534883,282.6511627906977M1153.4565217391305,300.89130434782606L1127.1774193548388,386.2983870967742M1153.4565217391305,300.89130434782606L1174.6044776119402,272.6940298507463M1100.4290120077376,398.1751706266652L1123.1122888373634,390.24395495197086M870.25,258.75L929.4933774834437,242.59271523178808M870.25,258.75L821.8137876386688,195.63614752917448M1045.3429054054054,286.72586872586874L1046.8260869565217,284.30434782608694M1045.3429054054054,286.72586872586874L929.4933774834437,242.59271523178808M1127.1774193548388,386.2983870967742L1123.1122888373634,390.24395495197086M1127.1774193548388,386.2983870967742L1197.8805496828752,327.7473572938689M1046.8260869565217,284.30434782608694L1062.2558139534883,282.6511627906977M1046.8260869565217,284.30434782608694L1058.5,241.5M1123.1122888373634,390.24395495197086L1162.3284023668639,398.61005917159764M1274.6825584139722,445.5945244276611L1293.8251963127348,392.15466029361556M1274.6825584139722,445.5945244276611L1162.3284023668639,398.61005917159764M1274.6825584139722,445.5945244276611L1275.4162580158431,462.0503583553376M1162.3284023668639,398.61005917159764L1283.887309980172,356.06444150693983M929.4933774834437,242.59271523178808L947.2014613778706,192.74773834377174M1058.5,241.5L1068.0787728026535,217.30099502487562M1058.5,241.5L958.6935483870968,174.96236559139786M947.2014613778706,192.74773834377174L958.6935483870968,174.96236559139786M947.2014613778706,192.74773834377174L877.5602605863193,141.67752442996743M939.5508397639583,863.8254652746255L850.0219645899697,877.6811245277428M1049.4643933168995,805.0535469734319L1050.1906077348067,808.3318863456985M794.712780421482,200.18456832087014L761.2126524390244,185.7717225609756M794.712780421482,200.18456832087014L821.8137876386688,195.63614752917448M1050.1906077348067,808.3318863456985L1061.8333333333333,830.7857142857143M1195.6197604790418,715.5843767011431L1200.5598720292505,725.314899451554M1195.6197604790418,715.5843767011431L1229.6888398486758,610.2799495586381M1200.5598720292505,725.314899451554L1285.5,750.0443037974684M1200.5598720292505,725.314899451554L1157.1613047363717,764.9396782841823M595.7074468085107,454.76063829787233L600.5704225352113,431.03521126760563M595.7074468085107,454.76063829787233L530.7991765782251,453.2511436413541M615.1367210250437,397.27839254513685L600.5704225352113,431.03521126760563M958.6935483870968,174.96236559139786L959.0567010309278,173.9536082474227M751.6878453038674,187.48618784530387L662.7142857142857,167.71428571428572M751.6878453038674,187.48618784530387L652.9927768860354,227.58105939004815M751.6878453038674,187.48618784530387L761.2126524390244,185.7717225609756M1169.7315573770493,267.8995901639344L1166.8398791540785,212.95770392749245M1169.7315573770493,267.8995901639344L1062.2558139534883,282.6511627906977M1169.7315573770493,267.8995901639344L1174.4888268156424,272.304469273743M1174.6044776119402,272.6940298507463L1174.4888268156424,272.304469273743M1174.6044776119402,272.6940298507463L1189.5558659217877,300.4608938547486M637.1978021978022,584.5958735142409L504.44750320102435,581.8866837387964M637.1978021978022,584.5958735142409L624.4553462940462,631.6649453219927M710.044409419618,822.9843315408864L707.9314590224183,883.2034178610805M710.044409419618,822.9843315408864L696.8123041570922,816.4394192604972M850.0219645899697,877.6811245277428L852.7702863370653,917.4068661448529M850.0219645899697,877.6811245277428L841.3678357570573,864.3810949529512M696.8123041570922,816.4394192604972L614.9688211845103,818.9448320045558M620.2425824525659,327.6589838278365L608.7740548881296,309.7595062272677M504.44750320102435,581.8866837387964L461.17513496348045,545.3289933312162M504.44750320102435,581.8866837387964L516.9632587859425,648.6373801916933M841.3678357570573,864.3810949529512L799.3319946452476,862.2068273092369M1061.8333333333333,830.7857142857143L1067.1167279411766,882.8648897058823M1061.8333333333333,830.7857142857143L1148.9137931034484,826.1206896551724M1157.1613047363717,764.9396782841823L1175.0278542681635,804.707159500106M1175.0278542681635,804.707159500106L1181.4036402569593,806.9111349036402M1175.0278542681635,804.707159500106L1148.9137931034484,826.1206896551724M1065.4864626250735,165.08446144791054L1074.0700605134834,122.46245813994477M1065.4864626250735,165.08446144791054L959.0567010309278,173.9536082474227M1065.4864626250735,165.08446144791054L1068.0787728026535,217.30099502487562M959.0567010309278,173.9536082474227L955.4891008174387,145.41280653950955M624.4553462940462,631.6649453219927L516.9632587859425,648.6373801916933M761.2126524390244,185.7717225609756L750.8196721311475,172.4918032786885M652.9927768860354,227.58105939004815L604.7080924855492,225.33526011560693M821.8137876386688,195.63614752917448L838.387430389817,138.00507159904535M608.7740548881296,309.7595062272677L469.8809523809524,349.01190476190476M608.7740548881296,309.7595062272677L602.5051975051975,229.10020790020792M600.5704225352113,431.03521126760563L455.05555555555554,358.27777777777777M1280.3365433782171,333.780722686211L1300.794964028777,283M1280.3365433782171,333.780722686211L1197.8805496828752,327.7473572938689M1280.3365433782171,333.780722686211L1282.8862068965518,348M1197.8805496828752,327.7473572938689L1189.5558659217877,300.4608938547486M1068.0787728026535,217.30099502487562L1166.4050131926122,212.6919525065963M1283.887309980172,356.06444150693983L1282.8862068965518,348M1283.887309980172,356.06444150693983L1293.8251963127348,392.15466029361556M1189.5558659217877,300.4608938547486L1214.5,283M1067.1167279411766,882.8648897058823L1130.6726862302482,878.8081264108353M1067.1167279411766,882.8648897058823L1060.3276004973063,911.8729796933278M614.9688211845103,818.9448320045558L600.21298058622,858.5669965740389M614.9688211845103,818.9448320045558L594.2512055624089,752.0834361332287M799.3319946452476,862.2068273092369L745.6878393051031,900.0732899022802M877.5602605863193,141.67752442996743L838.387430389817,138.00507159904535M877.5602605863193,141.67752442996743L944.2981961668546,134.8675310033822M602.5051975051975,229.10020790020792L514.9404761904761,225.59761904761905M602.5051975051975,229.10020790020792L604.7080924855492,225.33526011560693M1300.794964028777,283L1313.6840022219137,255.85490441142434M1300.794964028777,283L1214.5,283M1214.5,283L1214.5,256.3M1174.4888268156424,272.304469273743L1214.5,256.3M530.7991765782251,453.2511436413541L418.0004812319538,408.46342637151105M530.7991765782251,453.2511436413541L466.44928684627575,542.6259904912837M466.44928684627575,542.6259904912837L461.17513496348045,545.3289933312162M516.9632587859425,648.6373801916933L502.8469732837335,661.278829895164M745.6878393051031,900.0732899022802L744.24946313529,920.5701503221188M745.6878393051031,900.0732899022802L707.9314590224183,883.2034178610805M1214.5,256.3L1295.4409131602506,207.7354521038496M955.4891008174387,145.41280653950955L944.2981961668546,134.8675310033822M955.4891008174387,145.41280653950955L1031.670080990948,104.66484040019057M944.2981961668546,134.8675310033822L942.2827298050139,98.5891364902507M838.387430389817,138.00507159904535L834.9953118023516,111.03772882869475M1166.4050131926122,212.6919525065963L1159.9851485148515,174.97524752475246M1166.4050131926122,212.6919525065963L1166.8398791540785,212.95770392749245M1153.2686567164178,853.7014925373135L1189,880.5M1153.2686567164178,853.7014925373135L1148.9137931034484,826.1206896551724M1153.2686567164178,853.7014925373135L1130.6726862302482,878.8081264108353M461.17513496348045,545.3289933312162L440.32,544.12M594.2512055624089,752.0834361332287L541.6855255600229,747.6010913268236M1031.670080990948,104.66484040019057L979.1614173228346,83.45941853422168M1031.670080990948,104.66484040019057L1062.7444635562244,104.01064287250054M750.8196721311475,172.4918032786885L736.26875,104.5875M750.8196721311475,172.4918032786885L702.072864321608,143.24371859296483M662.7142857142857,167.71428571428572L693.6456692913385,144.51574803149606M662.7142857142857,167.71428571428572L608.633064516129,193.93548387096774M936.3965517241379,939.4655172413793L999.1927710843373,960.3975903614457M936.3965517241379,939.4655172413793L974.6566878980892,905.987898089172M936.3965517241379,939.4655172413793L930.8653358681876,943.8390367553866M974.6566878980892,905.987898089172L1035.906987093903,928.4721851357365M707.9314590224183,883.2034178610805L651.2927094668117,924.8155603917302M930.8653358681876,943.8390367553866L942.95,974.6M930.8653358681876,943.8390367553866L852.7702863370653,917.4068661448529M681.6515679442509,938.0975609756098L744.24946313529,920.5701503221188M681.6515679442509,938.0975609756098L651.2927094668117,924.8155603917302M681.6515679442509,938.0975609756098L720.7550450837269,973.1904250751395M852.7702863370653,917.4068661448529L834.2968476357267,964.274664331582M1130.6726862302482,878.8081264108353L1162.0963855421687,897.2289156626506M1060.3276004973063,911.8729796933278L1050.7551541394687,927.1655464357268M1060.3276004973063,911.8729796933278L1108.3281690140846,921.669014084507M1181.4036402569593,806.9111349036402L1189,821.8M1181.4036402569593,806.9111349036402L1293.4303307529908,764.9011259676284M1285.5,750.0443037974684L1293.4303307529908,764.9011259676284M1285.5,750.0443037974684L1285.5,626.9732142857142M1271.3555371900827,609.9240850059032L1285.5,626.9732142857142M1271.3555371900827,609.9240850059032L1306.4193181818182,516.8977272727273M1189,821.8L1251.346975088968,859.2081850533808M1189,821.8L1189,880.5M440.32,544.12L413.4561617145641,539.1858256210423M440.32,544.12L494.6639072847682,658.8460264900663M502.8469732837335,661.278829895164L494.6639072847682,658.8460264900663M502.8469732837335,661.278829895164L505.71675531914894,694.8962765957447M1108.3281690140846,921.669014084507L1162.0963855421687,897.2289156626506M1108.3281690140846,921.669014084507L1147.852644836272,937.2707808564231M1189,880.5L1192.2796610169491,887.6059322033898M1192.2796610169491,887.6059322033898L1251.346975088968,859.2081850533808M1192.2796610169491,887.6059322033898L1191.5299401197606,889.6676646706587M834.2968476357267,964.274664331582L834.6489452375879,981.9969102919241M834.2968476357267,964.274664331582L775.7785923753665,949.9017595307918M1035.906987093903,928.4721851357365L1050.7551541394687,927.1655464357268M1035.906987093903,928.4721851357365L999.1927710843373,960.3975903614457M651.2927094668117,924.8155603917302L633.5433342728297,926.0721533258173M744.24946313529,920.5701503221188L753.1637050199911,941.7945357618836M1166.8398791540785,212.95770392749245L1274.9354975900198,192.5918627728948M979.1614173228346,83.45941853422168L958.2534246575342,23.95205479452055M979.1614173228346,83.45941853422168L942.2827298050139,98.5891364902507M1274.9354975900198,192.5918627728948L1215.3743781094527,152.21144278606965M1274.9354975900198,192.5918627728948L1293.5626346445383,196.5210244953323M930.3392315470172,87.78311425682507L930.0852842809364,75.59364548494983M930.3392315470172,87.78311425682507L834.9953118023516,111.03772882869475M930.3392315470172,87.78311425682507L942.2827298050139,98.5891364902507M834.9953118023516,111.03772882869475L828.7857037961671,95.8699977971951M736.26875,104.5875L737.4956772334294,100.69020172910663M736.26875,104.5875L702.072864321608,143.24371859296483M737.4956772334294,100.69020172910663L682.916532905297,84.43258426966293M737.4956772334294,100.69020172910663L766.2275449101796,82.73278443113773M702.072864321608,143.24371859296483L693.6456692913385,144.51574803149606M999.1927710843373,960.3975903614457L982.6002386634844,976.2183770883055M1162.0963855421687,897.2289156626506L1163.9405940594058,897.7821782178218M455.05555555555554,358.27777777777777L469.8809523809524,349.01190476190476M455.05555555555554,358.27777777777777L428.1028116380461,368.33477177684847M418.0004812319538,408.46342637151105L420.7225237449118,390.1350067842605M418.0004812319538,408.46342637151105L389.243766122098,459.8147033533964M387.77628974798785,592.6277213352685L339.39312977099235,602.3931297709923M387.77628974798785,592.6277213352685L404.2274336283186,654.67203539823M387.77628974798785,592.6277213352685L413.4561617145641,539.1858256210423M604.7080924855492,225.33526011560693L608.633064516129,193.93548387096774M1062.7444635562244,104.01064287250054L1074.0700605134834,122.46245813994477M1062.7444635562244,104.01064287250054L1066.9897959183672,0M1285.5,626.9732142857142L1326.7559863169897,630.6567844925884M1275.4162580158431,462.0503583553376L1300.357142857143,496.6904761904762M1293.5626346445383,196.5210244953323L1313.7451078775716,158.73256397390867M1293.5626346445383,196.5210244953323L1295.4409131602506,207.7354521038496M1159.9851485148515,174.97524752475246L1212.8902439024391,151.8292682926829M1159.9851485148515,174.97524752475246L1128.7555366269166,122.92589437819422M541.6855255600229,747.6010913268236L503.7824427480916,802.8312977099237M541.6855255600229,747.6010913268236L529.6202290076336,739.6431297709923M1300.357142857143,496.6904761904762L1346.6315789473683,470.9824561403509M1300.357142857143,496.6904761904762L1306.4193181818182,516.8977272727273M1212.8902439024391,151.8292682926829L1215.3743781094527,152.21144278606965M1212.8902439024391,151.8292682926829L1136.1545842217483,119.85607675906184M682.916532905297,84.43258426966293L631,42.5M682.916532905297,84.43258426966293L693.6456692913385,144.51574803149606M494.6639072847682,658.8460264900663L404.2274336283186,654.67203539823M720.7550450837269,973.1904250751395L721.5719844357976,980.8929961089494M720.7550450837269,973.1904250751395L753.1637050199911,941.7945357618836M753.1637050199911,941.7945357618836L775.7785923753665,949.9017595307918M505.71675531914894,694.8962765957447L391.4068797776233,720.2984711605282M505.71675531914894,694.8962765957447L521.3083109919571,729.7479892761394M756.8766990291263,992.0320388349514L834.6489452375879,981.9969102919241M756.8766990291263,992.0320388349514L746.0833333333334,987.0208333333334M756.8766990291263,992.0320388349514L747.6837372947615,1044.125488663018M775.7785923753665,949.9017595307918L746.0833333333334,987.0208333333334M930.0852842809364,75.59364548494983L958.2534246575342,23.95205479452055M930.0852842809364,75.59364548494983L905.1852886405959,55.935754189944134M828.7857037961671,95.8699977971951L839.0644634330233,62.13458155315406M828.7857037961671,95.8699977971951L766.2275449101796,82.73278443113773M958.2534246575342,23.95205479452055L958.9910591471802,13.625171939477305M1362.2941176470588,744.5203619909503L1355,747.967032967033M1362.2941176470588,744.5203619909503L1423.8695652173913,772.9397993311037M1362.2941176470588,744.5203619909503L1379.9812734082398,729.5543071161048M1293.4303307529908,764.9011259676284L1301.944545367626,772.9107945310259M925.8358208955224,1008.8283582089553L968.9521276595744,1042.9621010638298M925.8358208955224,1008.8283582089553L942.95,974.6M925.8358208955224,1008.8283582089553L844.8508514132595,1026.1051516985046M942.95,974.6L982.6002386634844,976.2183770883055M1074.0700605134834,122.46245813994477L1128.7555366269166,122.92589437819422M982.6002386634844,976.2183770883055L990.377034358047,1031.9520795660037M1147.852644836272,937.2707808564231L1167.3660714285713,967.625M1147.852644836272,937.2707808564231L1163.9405940594058,897.7821782178218M1163.9405940594058,897.7821782178218L1191.5299401197606,889.6676646706587M1379.9812734082398,729.5543071161048L1386.7870967741935,683.858064516129M1379.9812734082398,729.5543071161048L1456.852666043031,718.9513564078578M393.3742528226699,734.1595085233562L393.0675675675676,740.9942084942085M393.3742528226699,734.1595085233562L521.3083109919571,729.7479892761394M393.3742528226699,734.1595085233562L391.4068797776233,720.2984711605282M521.3083109919571,729.7479892761394L529.6202290076336,739.6431297709923M1344.0980615735461,524.9144811858608L1372.0829094608341,524.5773143438454M1344.0980615735461,524.9144811858608L1306.4193181818182,516.8977272727273M1344.0980615735461,524.9144811858608L1387.1885416666667,607.178125M1050.7551541394687,927.1655464357268L1091.0794330916283,1039.6984179301253M1387.1885416666667,607.178125L1404.845044572627,603.3023072889355M1387.1885416666667,607.178125L1364.6211512717537,619.574297188755M1346.6315789473683,470.9824561403509L1384.0923913043478,472.76630434782606M1346.6315789473683,470.9824561403509L1364.122905027933,452.0335195530726M1293.8251963127348,392.15466029361556L1365.4995840266222,395.4883527454243M1392.5,459.77272727272725L1364.122905027933,452.0335195530726M1392.5,459.77272727272725L1384.0923913043478,472.76630434782606M1392.5,459.77272727272725L1415.7409033877038,444.98306148055207M529.6202290076336,739.6431297709923L408.7608695652174,790.3260869565217M633.5433342728297,926.0721533258173L621.7837037037037,970.3437037037037M633.5433342728297,926.0721533258173L601.9536976592372,878.087895178588M929.770092226614,21.895256916996047L841.6878111929894,15.289085839474208M929.770092226614,21.895256916996047L905.1852886405959,55.935754189944134M929.770092226614,21.895256916996047L958.9910591471802,13.625171939477305M905.1852886405959,55.935754189944134L839.0644634330233,62.13458155315406M1384.0923913043478,472.76630434782606L1399.0480225988701,499.6864406779661M1364.122905027933,452.0335195530726L1367.2684478371502,445.0165394402036M1367.2684478371502,445.0165394402036L1415.390510948905,441.57924921793534M1367.2684478371502,445.0165394402036L1365.4995840266222,395.4883527454243M1365.4995840266222,395.4883527454243L1368.642857142857,394.60084033613447M1251.346975088968,859.2081850533808L1297.764254046809,853.1799670069079M1326.7559863169897,630.6567844925884L1355,662.6666666666666M1326.7559863169897,630.6567844925884L1364.6211512717537,619.574297188755M766.2275449101796,82.73278443113773L755.127486437613,63.924352019288726M507.2585206671501,227.53480783176215L396.26174808668907,216.75842214433874M507.2585206671501,227.53480783176215L469.8809523809524,349.01190476190476M507.2585206671501,227.53480783176215L514.9404761904761,225.59761904761905M1364.2666666666667,348L1368.3125,287.3125M1364.2666666666667,348L1282.8862068965518,348M1364.2666666666667,348L1380.1982608695653,382.1391304347826M608.633064516129,193.93548387096774L593.4943396226415,136.26415094339623M391.4068797776233,720.2984711605282L389.9767862107312,715.949819293856M600.21298058622,858.5669965740389L601.9536976592372,878.087895178588M600.21298058622,858.5669965740389L534.219298245614,846.921052631579M834.6489452375879,981.9969102919241L844.8508514132595,1026.1051516985046M746.0833333333334,987.0208333333334L721.5719844357976,980.8929961089494M1372.0829094608341,524.5773143438454L1399.0480225988701,499.6864406779661M1372.0829094608341,524.5773143438454L1435.4691629955946,574.9981978374049M1399.0480225988701,499.6864406779661L1425.9264986636122,489.8127147766323M1415.7949668357394,437.5924697619977L1428.9565916398715,425.39389067524115M1415.7949668357394,437.5924697619977L1368.642857142857,394.60084033613447M1415.7949668357394,437.5924697619977L1415.390510948905,441.57924921793534M1380.1982608695653,382.1391304347826L1395.5290224032588,371.56619144602854M1380.1982608695653,382.1391304347826L1368.642857142857,394.60084033613447M1206.7971246006389,930.8226837060703L1291.3076398362891,955.6787175989086M1206.7971246006389,930.8226837060703L1191.5299401197606,889.6676646706587M1206.7971246006389,930.8226837060703L1167.3660714285713,967.625M1215.3743781094527,152.21144278606965L1201.6798002219755,89.60765815760266M1128.7555366269166,122.92589437819422L1136.1545842217483,119.85607675906184M1403.056338028169,671.9859154929577L1364.6211512717537,619.574297188755M1403.056338028169,671.9859154929577L1386.7870967741935,683.858064516129M1403.056338028169,671.9859154929577L1414.5625,669.109375M1355,662.6666666666666L1386.7870967741935,683.858064516129M1355,662.6666666666666L1355,747.967032967033M721.5719844357976,980.8929961089494L701.1034336583298,1028.380033912675M1295.4409131602506,207.7354521038496L1313.6840022219137,255.85490441142434M839.0644634330233,62.13458155315406L841.6878111929894,15.289085839474208M431.1617647058824,799.9264705882352L475.1504854368932,850.4320388349514M431.1617647058824,799.9264705882352L503.7824427480916,802.8312977099237M431.1617647058824,799.9264705882352L408.7608695652174,790.3260869565217M503.7824427480916,802.8312977099237L513.5355938553765,837.2924316223305M1435.4691629955946,574.9981978374049L1465.8013698630136,567.8287671232877M1435.4691629955946,574.9981978374049L1404.845044572627,603.3023072889355M1415.390510948905,441.57924921793534L1415.7409033877038,444.98306148055207M534.219298245614,846.921052631579L503.1993865030675,893.4509202453987M534.219298245614,846.921052631579L513.5355938553765,837.2924316223305M513.5355938553765,837.2924316223305L484.6576846307385,854.753493013972M1136.1545842217483,119.85607675906184L1178.9028006589785,80.05601317957166M958.9910591471802,13.625171939477305L968.2882352941176,0M831.2944785276073,1080L844.8508514132595,1026.1051516985046M807.1829268292684,1080L747.6837372947615,1044.125488663018M990.377034358047,1031.9520795660037L968.9521276595744,1042.9621010638298M990.377034358047,1031.9520795660037L1091.0794330916283,1039.6984179301253M1157.423076923077,1014.025641025641L1303.0717848532713,991.7737550918613M1157.423076923077,1014.025641025641L1167.3660714285713,967.625M1157.423076923077,1014.025641025641L1112.2330851762645,1061.7261878694985M759.8048780487804,0L755.127486437613,63.924352019288726M837.74609375,0L841.6878111929894,15.289085839474208M755.127486437613,63.924352019288726L632.4513991163476,1.0135380083833692M550.3805309734513,122.50442477876106L493.47904191616766,152.62874251497007M550.3805309734513,122.50442477876106L593.4943396226415,136.26415094339623M550.3805309734513,122.50442477876106L522,99.8M1313.6840022219137,255.85490441142434L1354.0173393973848,268.70181921546333M1178.9028006589785,80.05601317957166L1201.6798002219755,89.60765815760266M1178.9028006589785,80.05601317957166L1177.0873786407767,43.747572815533985M1415.7409033877038,444.98306148055207L1422.6463414634147,457.8414634146341M1298.1305084745763,79.0857627118644L1301.3666110879533,26.660900375156316M1298.1305084745763,79.0857627118644L1201.6798002219755,89.60765815760266M1298.1305084745763,79.0857627118644L1316.5204350692156,142.83750823994725M593.4943396226415,136.26415094339623L631,42.5M1355,747.967032967033L1333.219512195122,761.609756097561M1404.845044572627,603.3023072889355L1422.6012658227849,651.0221518987341M524.9335309060118,921.9301439458086L510.794,951.3875M524.9335309060118,921.9301439458086L601.9536976592372,878.087895178588M524.9335309060118,921.9301439458086L503.1993865030675,893.4509202453987M701.1034336583298,1028.380033912675L635.8603892179378,1051.4869454853138M701.1034336583298,1028.380033912675L747.6837372947615,1044.125488663018M1091.0794330916283,1039.6984179301253L1112.2330851762645,1061.7261878694985M1333.219512195122,761.609756097561L1301.944545367626,772.9107945310259M1333.219512195122,761.609756097561L1397.6666666666667,793.8333333333334M493.47904191616766,152.62874251497007L436.02120141342755,131.73498233215548M493.47904191616766,152.62874251497007L514.9404761904761,225.59761904761905M1439.3670756646218,405.87423312883436L1470.7386363636363,387.85227272727275M1439.3670756646218,405.87423312883436L1395.5290224032588,371.56619144602854M1439.3670756646218,405.87423312883436L1428.9565916398715,425.39389067524115M1395.5290224032588,371.56619144602854L1407.3289547233092,352.0120178870878M1422.6463414634147,457.8414634146341L1431.0390835579515,477.42452830188677M1422.6463414634147,457.8414634146341L1465.8188405797102,440.57246376811594M1422.6012658227849,651.0221518987341L1522,645.5M1422.6012658227849,651.0221518987341L1414.5625,669.109375M957.0999999999999,1080L968.9521276595744,1042.9621010638298M484.6576846307385,854.753493013972L475.1504854368932,850.4320388349514M484.6576846307385,854.753493013972L485.2690570299266,882.8766233766233M503.1993865030675,893.4509202453987L485.2690570299266,882.8766233766233M408.7608695652174,790.3260869565217L404.798128342246,789.5922459893048M404.798128342246,789.5922459893048L382.69415204678364,827.4415204678362M404.798128342246,789.5922459893048L393.0675675675676,740.9942084942085M404.2274336283186,654.67203539823L389.9767862107312,715.949819293856M475.1504854368932,850.4320388349514L398.4400299850075,900.068215892054M1431.0390835579515,477.42452830188677L1425.9264986636122,489.8127147766323M1431.0390835579515,477.42452830188677L1524.1298582853935,464.3918198400449M1425.9264986636122,489.8127147766323L1465.8013698630136,567.8287671232877M1428.9565916398715,425.39389067524115L1465.8188405797102,440.57246376811594M1465.8013698630136,567.8287671232877L1499.421052631579,572.6315789473684M1414.5625,669.109375L1456.852666043031,718.9513564078578M1499.421052631579,572.6315789473684L1522,645.5M1499.421052631579,572.6315789473684L1541.7001522070016,514.2009132420092M1456.852666043031,718.9513564078578L1500.793669115075,731.7249038125219M506.34039087947883,952.5977198697068L510.794,951.3875M506.34039087947883,952.5977198697068L435.71408450704223,912.8704225352112M506.34039087947883,952.5977198697068L489.874149659864,972.0578231292517M485.2690570299266,882.8766233766233L435.71408450704223,912.8704225352112M1301.944545367626,772.9107945310259L1307.9536113447903,836.7571205383969M1307.9536113447903,836.7571205383969L1297.764254046809,853.1799670069079M1307.9536113447903,836.7571205383969L1345.6272530641672,849.0663302090843M1113.4545454545455,0L1177.0873786407767,43.747572815533985M1368.3125,287.3125L1354.0173393973848,268.70181921546333M1368.3125,287.3125L1411.0421686746988,330.0421686746988M631,42.5L631,5.323076923076923M1297.764254046809,853.1799670069079L1291.3076398362891,955.6787175989086M1465.8188405797102,440.57246376811594L1523.2906137184116,453.63423039054805M1523.2906137184116,453.63423039054805L1529.1168323641593,381.6009816794848M1523.2906137184116,453.63423039054805L1524.1298582853935,464.3918198400449M1470.7386363636363,387.85227272727275L1525.3083989501313,376.93832020997377M1470.7386363636363,387.85227272727275L1407.3289547233092,352.0120178870878M1407.3289547233092,352.0120178870878L1411.0421686746988,330.0421686746988M635.8603892179378,1051.4869454853138L636.0261627906976,1080M635.8603892179378,1051.4869454853138L633.399453439208,1047.9858203568115M621.7837037037037,970.3437037037037L633.399453439208,1047.9858203568115M621.7837037037037,970.3437037037037L533.8824833702882,972.0022172949002M1411.0421686746988,330.0421686746988L1507.0326992842436,305.31733503284636M631,5.323076923076923L540.2138643067847,34.653982300884955M631,5.323076923076923L632.4513991163476,1.0135380083833692M393.1385652973636,488.8093194359289L413.4561617145641,539.1858256210423M393.1385652973636,488.8093194359289L389.243766122098,459.8147033533964M393.1385652973636,488.8093194359289L307.9674556213018,525.8402366863905M533.8824833702882,972.0022172949002L536.9320987654321,1023.8456790123457M533.8824833702882,972.0022172949002L510.794,951.3875M1426.9813186813187,816.3329670329671L1413.6405405405405,786.3162162162162M1426.9813186813187,816.3329670329671L1411.8980582524273,822.2961165048544M1426.9813186813187,816.3329670329671L1512.023854622943,801.8576417663076M1397.6666666666667,793.8333333333334L1411.8980582524273,822.2961165048544M1397.6666666666667,793.8333333333334L1413.6405405405405,786.3162162162162M1423.8695652173913,772.9397993311037L1413.6405405405405,786.3162162162162M1423.8695652173913,772.9397993311037L1503.1679611650486,762.7733383121732M1526.6674907292954,653.668108776267L1539.7374331550802,650.8764705882353M1526.6674907292954,653.668108776267L1522,645.5M1526.6674907292954,653.668108776267L1521.3950653633258,690.8043222235308M1411.8980582524273,822.2961165048544L1390.3861528621683,848.5137511992325M420.7225237449118,390.1350067842605L428.1028116380461,368.33477177684847M420.7225237449118,390.1350067842605L279.5628272251309,349.80366492146595M428.1028116380461,368.33477177684847L406.4083738661759,323.68824766662283M1354.0173393973848,268.70181921546333L1501.8333333333333,221.83333333333334M1291.3076398362891,955.6787175989086L1304.4776951672861,987.9453531598513M1304.4776951672861,987.9453531598513L1340.1875,979.375M1304.4776951672861,987.9453531598513L1303.0717848532713,991.7737550918613M1250,0L1177.0873786407767,43.747572815533985M406.4083738661759,323.68824766662283L396.26174808668907,216.75842214433874M406.4083738661759,323.68824766662283L268.32969651366943,311.35979433157763M396.26174808668907,216.75842214433874L363.66715482596555,175.45320482255977M522,99.8L508.1237188872621,65.94187408491948M522,99.8L436.02120141342755,131.73498233215548M436.02120141342755,131.73498233215548L379.6675977653631,129.5949720670391M389.243766122098,459.8147033533964L329.0657384561156,447.29767359887205M339.39312977099235,602.3931297709923L295.05263157894734,558.0526315789474M339.39312977099235,602.3931297709923L316.20651013874067,615.3665955176094M1112.2330851762645,1061.7261878694985L1114.7963800904977,1080M1383.2089552238806,912.955223880597L1407.1623222748815,900.1800947867299M1383.2089552238806,912.955223880597L1345.6272530641672,849.0663302090843M1383.2089552238806,912.955223880597L1376.586956521739,946.0652173913044M1345.6272530641672,849.0663302090843L1390.3861528621683,848.5137511992325M295.05263157894734,558.0526315789474L216.35000000000002,569.9772727272727M295.05263157894734,558.0526315789474L299.5967741935484,541.0120967741935M435.71408450704223,912.8704225352112L401.55961027457926,911.2818423383525M633.399453439208,1047.9858203568115L552.9202334630351,1036.636186770428M401.55961027457926,911.2818423383525L398.4400299850075,900.068215892054M401.55961027457926,911.2818423383525L392.66284036305393,934.7039508809397M398.4400299850075,900.068215892054L387.48086124401914,875.3086124401914M363.66715482596555,175.45320482255977L268.32969651366943,311.35979433157763M363.66715482596555,175.45320482255977L359.493875906527,162.50999194198226M281.85114503816794,395.4541984732824L238.49322799097067,425.80474040632055M281.85114503816794,395.4541984732824L329.0657384561156,447.29767359887205M281.85114503816794,395.4541984732824L278.3478260869565,382.60869565217394M237.8741935483871,504.81225806451613L199.2125748502994,528.4640718562874M237.8741935483871,504.81225806451613L307.9674556213018,525.8402366863905M237.8741935483871,504.81225806451613L267.070530726257,472.4308659217877M307.9674556213018,525.8402366863905L299.5967741935484,541.0120967741935M329.0657384561156,447.29767359887205L267.070530726257,472.4308659217877M389.9767862107312,715.949819293856L315.9795673076923,697.2163461538462M1390.3861528621683,848.5137511992325L1417.1602687140114,869.2773512476008M1539.7374331550802,650.8764705882353L1599,578.4444444444445M1539.7374331550802,650.8764705882353L1545.5041152263375,650.201646090535M299.5967741935484,541.0120967741935L199.2125748502994,528.4640718562874M315.9795673076923,697.2163461538462L296.7241379310345,712.6206896551724M315.9795673076923,697.2163461538462L294.2193184434723,652.1951416071839M393.0675675675676,740.9942084942085L306.9117647058824,763.5588235294117M508.1237188872621,65.94187408491948L540.2138643067847,34.653982300884955M508.1237188872621,65.94187408491948L399.22862584650113,29.08507336343115M354.97872340425533,161.81914893617022L301.8390804597701,178.42528735632186M354.97872340425533,161.81914893617022L359.493875906527,162.50999194198226M354.97872340425533,161.81914893617022L303.22727272727275,127.31818181818181M540.2138643067847,34.653982300884955L492.08333333333337,0M632.4513991163476,1.0135380083833692L632.575117370892,0M216.35000000000002,569.9772727272727L198.3369283865401,566.4682328025727M216.35000000000002,569.9772727272727L316.20651013874067,615.3665955176094M316.20651013874067,615.3665955176094L294.2193184434723,652.1951416071839M306.9117647058824,763.5588235294117L296.7241379310345,712.6206896551724M306.9117647058824,763.5588235294117L280.41786877617494,789.3366682177757M198.3369283865401,566.4682328025727L187.02987524622455,606.8138542350624M198.3369283865401,566.4682328025727L191.82292550483623,532.5164602070253M1497.051402706821,197.79783992112576L1504.9073033707866,137M1497.051402706821,197.79783992112576L1313.7451078775716,158.73256397390867M1497.051402706821,197.79783992112576L1501.8333333333333,221.83333333333334M1313.7451078775716,158.73256397390867L1316.5204350692156,142.83750823994725M1501.8333333333333,221.83333333333334L1517.998452012384,244.06037151702787M1507.0326992842436,305.31733503284636L1517.998452012384,244.06037151702787M1507.0326992842436,305.31733503284636L1525.3083989501313,376.93832020997377M457.71505376344084,977.005376344086L461.86708860759495,1006.0696202531645M457.71505376344084,977.005376344086L489.874149659864,972.0578231292517M457.71505376344084,977.005376344086L387.9255319148936,975.2606382978723M489.874149659864,972.0578231292517L483.96048632218844,1026.4635258358662M536.9320987654321,1023.8456790123457L486.6186440677966,1030.6186440677966M536.9320987654321,1023.8456790123457L552.9202334630351,1036.636186770428M1376.586956521739,946.0652173913044L1432.140625,923.84375M1376.586956521739,946.0652173913044L1367.9545454545455,960.8636363636364M1417.1602687140114,869.2773512476008L1407.1623222748815,900.1800947867299M1417.1602687140114,869.2773512476008L1531.5,876.9M278.3478260869565,382.60869565217394L279.5628272251309,349.80366492146595M278.3478260869565,382.60869565217394L166.3032178217822,401.282797029703M199.2125748502994,528.4640718562874L191.82292550483623,532.5164602070253M294.2193184434723,652.1951416071839L256.49706170421155,656.0220372184133M387.9255319148936,975.2606382978723L461.86708860759495,1006.0696202531645M387.9255319148936,975.2606382978723L382.20757214720675,974.6008737092931M486.6186440677966,1030.6186440677966L487.44166666666666,1080M486.6186440677966,1030.6186440677966L484.2,1028.2M1407.1623222748815,900.1800947867299L1432.140625,923.84375M1500.793669115075,731.7249038125219L1503.1679611650486,762.7733383121732M1500.793669115075,731.7249038125219L1521.3950653633258,690.8043222235308M296.7241379310345,712.6206896551724L269.1633266533066,720.1372745490982M382.20757214720675,974.6008737092931L377.20505836575876,1040.088326848249M382.20757214720675,974.6008737092931L382.0347830093062,973.9687183267299M483.96048632218844,1026.4635258358662L484.2,1028.2M483.96048632218844,1026.4635258358662L461.86708860759495,1006.0696202531645M552.9202334630351,1036.636186770428L522.6969696969696,1080M382.69415204678364,827.4415204678362L387.48086124401914,875.3086124401914M382.69415204678364,827.4415204678362L299.51360544217687,822.6054421768707M1316.5204350692156,142.83750823994725L1444.486995208761,88.6978097193703M1367.9545454545455,960.8636363636364L1427.8002512562814,968.6695979899498M1367.9545454545455,960.8636363636364L1340.1875,979.375M1432.140625,923.84375L1481.0740740740741,932.7407407407408M279.5628272251309,349.80366492146595L266.4433829356344,312.49524522321036M267.070530726257,472.4308659217877L238.49322799097067,425.80474040632055M256.49706170421155,656.0220372184133L185.96060389494372,613.4762372699661M256.49706170421155,656.0220372184133L249.6476846057572,707.392365456821M266.4433829356344,312.49524522321036L268.32969651366943,311.35979433157763M266.4433829356344,312.49524522321036L214.10550458715596,301.2522935779817M295.09541984732823,904.6832061068702L308.3073676132003,890.7570990023024M295.09541984732823,904.6832061068702L274.8497267759563,918.8551912568306M295.09541984732823,904.6832061068702L392.66284036305393,934.7039508809397M299.51360544217687,822.6054421768707L308.3073676132003,890.7570990023024M299.51360544217687,822.6054421768707L291.2133152173913,819.2853260869565M238.49322799097067,425.80474040632055L163.80251063245987,410.5617368637673M157.93767351471405,419.39269850083286L100.36808510638298,416.1340425531915M157.93767351471405,419.39269850083286L170.83054868676066,512.3571142150638M157.93767351471405,419.39269850083286L163.80251063245987,410.5617368637673M301.8390804597701,178.42528735632186L171.55296731651376,202.66456422018348M301.8390804597701,178.42528735632186L214.10550458715596,301.2522935779817M1599,630.9765625L1545.5041152263375,650.201646090535M1599,630.9765625L1609.53700049334,629.1655155402073M1599,630.9765625L1599,578.4444444444445M1524.1298582853935,464.3918198400449L1538.7521551724137,496.51293103448273M1525.3083989501313,376.93832020997377L1529.1168323641593,381.6009816794848M1503.1679611650486,762.7733383121732L1510.6316270566729,786.4561243144424M291.2133152173913,819.2853260869565L280.41786877617494,789.3366682177757M291.2133152173913,819.2853260869565L222.31156978376862,877.6766357764673M387.48086124401914,875.3086124401914L308.3073676132003,890.7570990023024M185.96060389494372,613.4762372699661L165.331018140219,642.21858146756M185.96060389494372,613.4762372699661L187.02987524622455,606.8138542350624M269.1633266533066,720.1372745490982L249.6476846057572,707.392365456821M269.1633266533066,720.1372745490982L262.05320366132725,775.83323798627M377.20505836575876,1040.088326848249L367.4021864211738,1066.1709682722342M377.20505836575876,1040.088326848249L484.2,1028.2M249.6476846057572,707.392365456821L175.15257793764988,725.0002997601919M1340.1875,979.375L1401.370106761566,1012.7473309608541M1510.6316270566729,786.4561243144424L1512.023854622943,801.8576417663076M1510.6316270566729,786.4561243144424L1613.875,752.0416666666666M1405.8333333333333,37.666666666666664L1330.5,0M1405.8333333333333,37.666666666666664L1420.9479166666667,67.89583333333333M1405.8333333333333,37.666666666666664L1413.7631578947369,0M1420.9479166666667,67.89583333333333L1301.3666110879533,26.660900375156316M1420.9479166666667,67.89583333333333L1444.486995208761,88.6978097193703M1301.3666110879533,26.660900375156316L1298.421511627907,0M359.493875906527,162.50999194198226L379.6675977653631,129.5949720670391M392.66284036305393,934.7039508809397L382.0347830093062,973.9687183267299M1512.023854622943,801.8576417663076L1526.8641058747578,841.6672046481601M1538.7521551724137,496.51293103448273L1633.7740963855422,436.78485370051635M1538.7521551724137,496.51293103448273L1541.7001522070016,514.2009132420092M280.41786877617494,789.3366682177757L262.05320366132725,775.83323798627M1541.7001522070016,514.2009132420092L1581.0727739726028,525.4991438356165M1303.0717848532713,991.7737550918613L1306.7921686746988,1080M1399.4693430656935,1060.2664233576643L1401.370106761566,1012.7473309608541M1399.4693430656935,1060.2664233576643L1392.775,1069.5M1399.4693430656935,1060.2664233576643L1436,1040.6964285714287M1481.0740740740741,932.7407407407408L1521.601969634797,922.9581452605663M1481.0740740740741,932.7407407407408L1427.8002512562814,968.6695979899498M1599,578.4444444444445L1603.3813056379822,567.2477744807122M1444.486995208761,88.6978097193703L1493.2050157181063,90.71095106273167M379.6675977653631,129.5949720670391L397.5828814872192,32.85243996901627M214.10550458715596,301.2522935779817L188.76699029126212,298.63106796116506M1431.5209125475285,1012.0773130544993L1436,1015.25M1431.5209125475285,1012.0773130544993L1427.8002512562814,968.6695979899498M1431.5209125475285,1012.0773130544993L1401.370106761566,1012.7473309608541M1581.0727739726028,525.4991438356165L1641.2073170731708,487.2317073170732M1581.0727739726028,525.4991438356165L1585.5417246175243,529.3386648122392M1529.1168323641593,381.6009816794848L1567.2235130111524,379.98629182156134M176.30544296467863,772.356977417487L151.34541927782752,841.2466427931961M176.30544296467863,772.356977417487L262.05320366132725,775.83323798627M176.30544296467863,772.356977417487L170.6781512605042,739.2966386554622M283.45601954686805,952.2045757441138L273.4683612763656,966.5265008112493M283.45601954686805,952.2045757441138L382.0347830093062,973.9687183267299M283.45601954686805,952.2045757441138L274.8497267759563,918.8551912568306M1567.2235130111524,379.98629182156134L1613.6146993318484,331.01781737193767M1567.2235130111524,379.98629182156134L1579.1937697993665,384.8035902851109M1526.8641058747578,841.6672046481601L1531.5,876.9M1526.8641058747578,841.6672046481601L1615.1413301662708,792.8824228028503M1493.2050157181063,90.71095106273167L1497.9539616419336,79.90085047296711M1493.2050157181063,90.71095106273167L1504.9073033707866,137M1392.775,1069.5L1381.75,1080M1392.775,1069.5L1462.016129032258,1069.5M1521.3950653633258,690.8043222235308L1586.8983903420524,713.0754527162978M1603.3813056379822,567.2477744807122L1617.448717948718,579.1837606837607M1603.3813056379822,567.2477744807122L1585.5417246175243,529.3386648122392M1637.650709219858,687.0602836879433L1644.131868131868,656.422077922078M1637.650709219858,687.0602836879433L1545.5041152263375,650.201646090535M1637.650709219858,687.0602836879433L1640.867733213159,697.896575033799M1617.448717948718,579.1837606837607L1685,556.6666666666666M1617.448717948718,579.1837606837607L1629.1643878185207,605.7392790553139M1633.7740963855422,436.78485370051635L1636.1155308172686,437.3322020092316M1633.7740963855422,436.78485370051635L1579.1937697993665,384.8035902851109M1586.8983903420524,713.0754527162978L1613.875,752.0416666666666M1586.8983903420524,713.0754527162978L1640.867733213159,697.896575033799M1629.1643878185207,605.7392790553139L1685,602.0978260869565M1629.1643878185207,605.7392790553139L1609.53700049334,629.1655155402073M1613.875,752.0416666666666L1620.5724925521351,753.7780536246277M1609.53700049334,629.1655155402073L1644.131868131868,656.422077922078M1585.5417246175243,529.3386648122392L1685,550.5M1531.5,876.9L1535.1415764308817,885.2113626775418M1535.1415764308817,885.2113626775418L1521.601969634797,922.9581452605663M1535.1415764308817,885.2113626775418L1579.31592039801,888.136815920398M1636.1155308172686,437.3322020092316L1685,416.2847222222223M1636.1155308172686,437.3322020092316L1641.2073170731708,487.2317073170732M1517.998452012384,244.06037151702787L1527.4937888198758,244.25155279503105M1579.1937697993665,384.8035902851109L1648.9258373205741,372.6004784688995M1640.867733213159,697.896575033799L1646.1666666666667,703.6111111111111M1644.131868131868,656.422077922078L1685,632.2727272727273M1685,506L1641.2073170731708,487.2317073170732M1436,1015.25L1436,1040.6964285714287M1436,1015.25L1530.4502228826152,991.6374442793463M274.8497267759563,918.8551912568306L222.31156978376862,877.6766357764673M1436,1040.6964285714287L1462.016129032258,1069.5M1613.6146993318484,331.01781737193767L1614.503193430657,307.9169708029197M1613.6146993318484,331.01781737193767L1641.1484962406016,342.35526315789474M1614.503193430657,307.9169708029197L1627.454248366013,301.2908496732026M1614.503193430657,307.9169708029197L1527.4937888198758,244.25155279503105M1462.016129032258,1069.5L1475.9032258064517,1080M397.5828814872192,32.85243996901627L399.22862584650113,29.08507336343115M397.5828814872192,32.85243996901627L288.7150386507379,35.120520028109624M166.3032178217822,401.282797029703L163.80251063245987,410.5617368637673M166.3032178217822,401.282797029703L172.00364963503648,345.5M170.83054868676066,512.3571142150638L153.6942789034565,514.919547079857M170.83054868676066,512.3571142150638L191.82292550483623,532.5164602070253M399.22862584650113,29.08507336343115L401.6981132075472,0M303.22727272727275,127.31818181818181L262.08196062675773,98.07030936118923M303.22727272727275,127.31818181818181L157.47435897435898,163.75641025641025M94.04010695187166,562.4144385026738L110.17586206896551,585.4655172413793M94.04010695187166,562.4144385026738L93.08064516129032,552.5M94.04010695187166,562.4144385026738L88.83502538071066,589.741116751269M1641.1484962406016,342.35526315789474L1678,311.4M1641.1484962406016,342.35526315789474L1648.9258373205741,372.6004784688995M1648.9258373205741,372.6004784688995L1685,393.21428571428567M1620.5724925521351,753.7780536246277L1615.1413301662708,792.8824228028503M1620.5724925521351,753.7780536246277L1625.4452449567723,751.9610951008646M1521.601969634797,922.9581452605663L1530.4502228826152,991.6374442793463M1527.4937888198758,244.25155279503105L1534.2402597402597,242.56493506493507M1534.2402597402597,242.56493506493507L1635.3289655172414,172.03793103448277M1534.2402597402597,242.56493506493507L1642.2789418543741,247.55133577789417M1615.1413301662708,792.8824228028503L1652.397476340694,809.8170347003155M1646.1666666666667,703.6111111111111L1665.5459587955627,707.2622820919175M1646.1666666666667,703.6111111111111L1625.4452449567723,751.9610951008646M1627.454248366013,301.2908496732026L1678,311.4M1627.454248366013,301.2908496732026L1642.2789418543741,247.55133577789417M1678,311.4L1685,309.76666666666665M1672.2334465195247,769.6788341822298L1665.5459587955627,707.2622820919175M1672.2334465195247,769.6788341822298L1666.97593135203,772.2199665131855M1625.4452449567723,751.9610951008646L1666.97593135203,772.2199665131855M1642.2789418543741,247.55133577789417L1685,232.3356164383562M169.1938129496403,874.481582733813L146.47100175746925,950.5536028119508M169.1938129496403,874.481582733813L222.31156978376862,877.6766357764673M169.1938129496403,874.481582733813L151.34541927782752,841.2466427931961M175.15257793764988,725.0002997601919L165.331018140219,642.21858146756M175.15257793764988,725.0002997601919L170.6781512605042,739.2966386554622M262.08196062675773,98.07030936118923L264.7,77.5M262.08196062675773,98.07030936118923L162.73308482205655,93.65480376986918M187.02987524622455,606.8138542350624L110.17586206896551,585.4655172413793M288.7150386507379,35.120520028109624L277.7570281124498,24.869477911646584M288.7150386507379,35.120520028109624L264.7,77.5M172.00364963503648,345.5L188.76699029126212,298.63106796116506M172.00364963503648,345.5L82.05555555555556,345.5M110.17586206896551,585.4655172413793L96.85074626865672,591.5223880597015M165.331018140219,642.21858146756L141.2312925170068,643.6224489795918M188.76699029126212,298.63106796116506L174.75579598145288,276.4466769706337M367.4021864211738,1066.1709682722342L286.46481535330037,1030.3272753707472M367.4021864211738,1066.1709682722342L368.47777777777776,1080M273.4683612763656,966.5265008112493L181.4375,998.162109375M273.4683612763656,966.5265008112493L286.46481535330037,1030.3272753707472M181.4375,998.162109375L273.27245508982037,1035.4700598802394M181.4375,998.162109375L176.51476014760146,998.6236162361623M141.2312925170068,643.6224489795918L103.625,688.75M141.2312925170068,643.6224489795918L136.91525423728814,643.0338983050848M96.85074626865672,591.5223880597015L88.83502538071066,589.741116751269M96.85074626865672,591.5223880597015L136.91525423728814,643.0338983050848M108.38340336134453,294.7563025210084L97.20028818443804,293.7622478386167M108.38340336134453,294.7563025210084L77.36146095717883,342.4823677581864M108.38340336134453,294.7563025210084L174.75579598145288,276.4466769706337M88.83502538071066,589.741116751269L70.07831325301206,604.2349397590361M1617.930613961312,125.16358284272498L1606.1315789473683,100.65789473684211M1617.930613961312,125.16358284272498L1611.976927841437,141.45788169711986M1617.930613961312,125.16358284272498L1631.452606635071,114.5995260663507M1504.9073033707866,137L1521.3333333333333,137M1611.976927841437,141.45788169711986L1521.3333333333333,137M1611.976927841437,141.45788169711986L1635.3289655172414,172.03793103448277M1521.3333333333333,137L1606.1315789473683,100.65789473684211M1652.397476340694,809.8170347003155L1666.97593135203,772.2199665131855M1652.397476340694,809.8170347003155L1663.5573962953301,860.8338116357944M1665.5459587955627,707.2622820919175L1685,702.840909090909M245.8483870967742,30.370967741935484L186.625,0M245.8483870967742,30.370967741935484L264.7,77.5M245.8483870967742,30.370967741935484L277.7570281124498,24.869477911646584M174.75579598145288,276.4466769706337L167.6402142161636,244.98831548198638M71.02814738996929,493.16530194472875L41.64666666666667,532.6466666666666M71.02814738996929,493.16530194472875L153.6942789034565,514.919547079857M71.02814738996929,493.16530194472875L51.69004524886878,448.3009049773756M153.6942789034565,514.919547079857L93.08064516129032,552.5M136.91525423728814,643.0338983050848L116.70192307692308,642.2852564102564M116.70192307692308,642.2852564102564L72.61538461538461,674.6153846153846M116.70192307692308,642.2852564102564L67.06070796460178,617.9513274336283M170.6781512605042,739.2966386554622L84.94642857142857,726.1071428571429M93.08064516129032,552.5L61.5,552.5M100.36808510638298,416.1340425531915L82.05555555555556,345.5M100.36808510638298,416.1340425531915L77.83160621761658,420.9145077720207M167.6402142161636,244.98831548198638L167.40792974986695,225.12799361362426M167.6402142161636,244.98831548198638L59.1319018404908,254.03067484662577M72.32203389830508,676.228813559322L55.675496688741724,730.0099337748344M72.32203389830508,676.228813559322L103.625,688.75M72.32203389830508,676.228813559322L72.61538461538461,674.6153846153846M103.625,688.75L84.94642857142857,726.1071428571429M253.8181818181818,1061.409090909091L290.99999999999994,1080M253.8181818181818,1061.409090909091L273.27245508982037,1035.4700598802394M253.8181818181818,1061.409090909091L233.48437500000009,1080M286.46481535330037,1030.3272753707472L273.27245508982037,1035.4700598802394M84.94642857142857,726.1071428571429L55.675496688741724,730.0099337748344M1663.5573962953301,860.8338116357944L1637.0454545454545,876.5909090909091M1530.4502228826152,991.6374442793463L1535.9603792753132,1003.6959024720624M176.51476014760146,998.6236162361623L167.01094890510947,1080M176.51476014760146,998.6236162361623L146.47100175746925,950.5536028119508M1535.9603792753132,1003.6959024720624L1622.003392130258,981.5705563093622M1535.9603792753132,1003.6959024720624L1552.175,1080M67.06070796460178,617.9513274336283L43.42749658002736,627.4808481532148M67.06070796460178,617.9513274336283L70.07831325301206,604.2349397590361M55.675496688741724,730.0099337748344L53.307046196920204,731.4094727018198M70.07831325301206,604.2349397590361L58.48550724637681,569.4565217391304M82.05555555555556,345.5L77.36146095717883,342.4823677581864M58.48550724637681,569.4565217391304L10.706193353474319,599.6329305135952M58.48550724637681,569.4565217391304L61.5,552.5M77.36146095717883,342.4823677581864L69.00988904968645,341.4194404245055M167.40792974986695,225.12799361362426L62.86740331491713,215.6243093922652M167.40792974986695,225.12799361362426L171.55296731651376,202.66456422018348M1635.3289655172414,172.03793103448277L1685,186.6470588235294M1606.1315789473683,100.65789473684211L1601.1,75.5M1497.9539616419336,79.90085047296711L1587.6530534351145,67.26717557251908M1497.9539616419336,79.90085047296711L1500.4049079754602,0M1587.6530534351145,67.26717557251908L1603.0747330960853,39.22775800711744M1587.6530534351145,67.26717557251908L1601.1,75.5M171.55296731651376,202.66456422018348L157.47435897435898,163.75641025641025M1601.1,75.5L1627.9814814814815,75.5M1579.31592039801,888.136815920398L1637.096533173939,965.918410041841M1579.31592039801,888.136815920398L1637.0454545454545,876.5909090909091M157.47435897435898,163.75641025641025L154.11477949940405,155.15816448152563M54.01470588235294,359L36.15909090909091,359M54.01470588235294,359L62.92574257425743,402.28217821782175M54.01470588235294,359L69.00988904968645,341.4194404245055M97.20028818443804,293.7622478386167L60.248781808337846,282.7766648619383M97.20028818443804,293.7622478386167L59.63333333333333,326.6333333333333M61.5,552.5L41.64666666666667,532.6466666666666M51.69004524886878,448.3009049773756L77.83160621761658,420.9145077720207M51.69004524886878,448.3009049773756L0,453M72.61538461538461,674.6153846153846L40.0625,642.0625M1631.452606635071,114.5995260663507L1665.712962962963,108.37037037037037M1631.452606635071,114.5995260663507L1629.6043956043957,79.48351648351648M40.0625,642.0625L0,688.6216216216217M40.0625,642.0625L43.42749658002736,627.4808481532148M151.34541927782752,841.2466427931961L132.74222179805307,837.9876884901698M1637.096533173939,965.918410041841L1622.003392130258,981.5705563093622M1637.096533173939,965.918410041841L1684.8636363636363,972.2272727272727M77.83160621761658,420.9145077720207L62.92574257425743,402.28217821782175M43.42749658002736,627.4808481532148L10.706193353474319,599.6329305135952M1627.9814814814815,75.5L1685,27.390625000000057M1627.9814814814815,75.5L1629.6043956043957,79.48351648351648M41.64666666666667,532.6466666666666L0,531.5649350649351M41.45774647887324,308.4577464788732L0,312.9921875M41.45774647887324,308.4577464788732L59.63333333333333,326.6333333333333M41.45774647887324,308.4577464788732L60.248781808337846,282.7766648619383M69.00988904968645,341.4194404245055L59.63333333333333,326.6333333333333M154.11477949940405,155.15816448152563L162.73308482205655,93.65480376986918M154.11477949940405,155.15816448152563L115.05172413793103,158.05172413793105M1665.712962962963,108.37037037037037L1685,109.26744186046511M1665.712962962963,108.37037037037037L1629.6043956043957,79.48351648351648M1685,0.42105263157895867L1603.0747330960853,39.22775800711744M1603.0747330960853,39.22775800711744L1574.5454545454545,0M0,595.0909090909091L10.706193353474319,599.6329305135952M1637.0454545454545,876.5909090909091L1684.8636363636363,972.2272727272727M76.15151515151516,173.11515151515152L62.86740331491713,215.6243093922652M76.15151515151516,173.11515151515152L100.40121412803532,159.5353200883002M76.15151515151516,173.11515151515152L28.636363636363637,168.36363636363637M60.248781808337846,282.7766648619383L57.132681564245814,259.62849162011173M18.21232876712329,385.32191780821915L0,389.875M18.21232876712329,385.32191780821915L62.92574257425743,402.28217821782175M18.21232876712329,385.32191780821915L36.15909090909091,359M0,321.11904761904765L36.15909090909091,359M39.58298755186722,801.155601659751L64.5909090909091,848.0454545454545M39.58298755186722,801.155601659751L42.11764705882353,795M39.58298755186722,801.155601659751L5.297119599248591,830.7661239824671M58.10227272727273,767.8261363636364L42.11764705882353,795M58.10227272727273,767.8261363636364L132.74222179805307,837.9876884901698M58.10227272727273,767.8261363636364L53.07398212512413,754.2497517378351M57.132681564245814,259.62849162011173L59.1319018404908,254.03067484662577M57.132681564245814,259.62849162011173L0,268.0925925925926M75.00375939849624,853.2518796992481L40.05494354172404,898.5908840539796M75.00375939849624,853.2518796992481L132.74222179805307,837.9876884901698M75.00375939849624,853.2518796992481L64.5909090909091,848.0454545454545M59.1319018404908,254.03067484662577L50.13069631790011,224.2141815530441M53.07398212512413,754.2497517378351L53.307046196920204,731.4094727018198M53.07398212512413,754.2497517378351L0,783.3548387096774M162.73308482205655,93.65480376986918L148.71345029239765,60.46125730994152M62.86740331491713,215.6243093922652L50.13069631790011,224.2141815530441M50.13069631790011,224.2141815530441L0,203.82203389830508M148.71345029239765,60.46125730994152L69.16666666666667,112.16666666666667M148.71345029239765,60.46125730994152L133.220562894888,4.299540493968983M0,197L28.636363636363637,168.36363636363637M115.05172413793103,158.05172413793105L69.16666666666667,112.16666666666667M115.05172413793103,158.05172413793105L100.40121412803532,159.5353200883002M53.307046196920204,731.4094727018198L0,703.2241379310345M64.5909090909091,848.0454545454545L12.438215102974828,835.6281464530892M0,795L42.11764705882353,795M100.40121412803532,159.5353200883002L47.45652173913044,123.02173913043478M5.297119599248591,830.7661239824671L12.438215102974828,835.6281464530892M5.297119599248591,830.7661239824671L0,829.768115942029M12.438215102974828,835.6281464530892L25.734161988773057,894.1303127506014M146.47100175746925,950.5536028119508L143.58898305084745,951.1483050847457M69.16666666666667,112.16666666666667L47.45652173913044,123.02173913043478M47.45652173913044,123.02173913043478L38.986486486486484,121.52702702702703M28.636363636363637,168.36363636363637L34.91653418124007,122.6081081081081M133.220562894888,4.299540493968983L73.0344827586207,53.43103448275862M133.220562894888,4.299540493968983L133.24065420560748,0M143.58898305084745,951.1483050847457L91.48689138576779,984.8614232209737M143.58898305084745,951.1483050847457L48.286913723219456,921.5718008106543M48.286913723219456,921.5718008106543L15.529126213592232,968.7815533980582M48.286913723219456,921.5718008106543L40.05494354172404,898.5908840539796M40.05494354172404,898.5908840539796L25.734161988773057,894.1303127506014M51.004175365344466,991.1868475991649L42.900222551928785,1044.4413946587538M51.004175365344466,991.1868475991649L91.48689138576779,984.8614232209737M51.004175365344466,991.1868475991649L15.529126213592232,968.7815533980582M91.48689138576779,984.8614232209737L80.29411764705883,1080M73.0344827586207,53.43103448275862L0,81.83333333333333M73.0344827586207,53.43103448275862L38.986486486486484,121.52702702702703M38.986486486486484,121.52702702702703L34.91653418124007,122.6081081081081M34.91653418124007,122.6081081081081L0,101.78070175438596M15.529126213592232,968.7815533980582L0,971M79.17000000000003,1080L42.900222551928785,1044.4413946587538M0,1041.4827586206898L42.900222551928785,1044.4413946587538M25.734161988773057,894.1303127506014L0,895.5089285714286M1622.003392130258,981.5705563093622L1663.4473684210527,1080M1684.8636363636363,972.2272727272727L1685,972.3125000000001M1663.5573962953301,860.8338116357944L1685,861.0124999999999M1672.2334465195247,769.6788341822298L1685,769.4761904761905M277.7570281124498,24.869477911646584L276.29411764705884,0"
    stroke-width="15px"
    stroke-dasharray="0 0 0 0"
    stroke-linecap="round"
    stroke-linejoin="round"
    stroke-dashoffset="22"
    stroke-opacity="101%"
  />
  <path
    stroke="currentColor"
    fill="transparent"
    d="M0,0h1685v1080h-1685Z"
    stroke-width="1px"
    stroke-dasharray="0 0 0 0"
    stroke-linecap="round"
    stroke-linejoin="round"
    stroke-dashoffset="0"
    stroke-opacity="1%"
  />
  <path
    stroke="currentColor"
    fill="transparent"
    d="M1648,129A2,2,0,1,1,1644,129A2,2,0,1,1,1648,129M35,277A2,2,0,1,1,31,277A2,2,0,1,1,35,277M1381,566A2,2,0,1,1,1377,566A2,2,0,1,1,1381,566M739,30A2,2,0,1,1,735,30A2,2,0,1,1,739,30M317,739A2,2,0,1,1,313,739A2,2,0,1,1,317,739M526,4A2,2,0,1,1,522,4A2,2,0,1,1,526,4M1364,689A2,2,0,1,1,1360,689A2,2,0,1,1,1364,689M722,219A2,2,0,1,1,718,219A2,2,0,1,1,722,219M705,273A2,2,0,1,1,701,273A2,2,0,1,1,705,273M1350,689A2,2,0,1,1,1346,689A2,2,0,1,1,1350,689M718,915A2,2,0,1,1,714,915A2,2,0,1,1,718,915M42,820A2,2,0,1,1,38,820A2,2,0,1,1,42,820M759,133A2,2,0,1,1,755,133A2,2,0,1,1,759,133M104,762A2,2,0,1,1,100,762A2,2,0,1,1,104,762M1355,438A2,2,0,1,1,1351,438A2,2,0,1,1,1355,438M775,919A2,2,0,1,1,771,919A2,2,0,1,1,775,919M717,729A2,2,0,1,1,713,729A2,2,0,1,1,717,729M1220,278A2,2,0,1,1,1216,278A2,2,0,1,1,1220,278M1174,849A2,2,0,1,1,1170,849A2,2,0,1,1,1174,849M59,151A2,2,0,1,1,55,151A2,2,0,1,1,59,151M940,809A2,2,0,1,1,936,809A2,2,0,1,1,940,809M1360,577A2,2,0,1,1,1356,577A2,2,0,1,1,1360,577M1383,437A2,2,0,1,1,1379,437A2,2,0,1,1,1383,437M1213,278A2,2,0,1,1,1209,278A2,2,0,1,1,1213,278M1595,438A2,2,0,1,1,1591,438A2,2,0,1,1,1595,438M1179,547A2,2,0,1,1,1175,547A2,2,0,1,1,1179,547M1194,122A2,2,0,1,1,1190,122A2,2,0,1,1,1194,122M1139,182A2,2,0,1,1,1135,182A2,2,0,1,1,1139,182M1461,1035A2,2,0,1,1,1457,1035A2,2,0,1,1,1461,1035M1607,597A2,2,0,1,1,1603,597A2,2,0,1,1,1607,597M10,867A2,2,0,1,1,6,867A2,2,0,1,1,10,867M970,812A2,2,0,1,1,966,812A2,2,0,1,1,970,812M563,998A2,2,0,1,1,559,998A2,2,0,1,1,563,998M966,1000A2,2,0,1,1,962,1000A2,2,0,1,1,966,1000M1637,782A2,2,0,1,1,1633,782A2,2,0,1,1,1637,782M1645,517A2,2,0,1,1,1641,517A2,2,0,1,1,1645,517M508,29A2,2,0,1,1,504,29A2,2,0,1,1,508,29M975,834A2,2,0,1,1,971,834A2,2,0,1,1,975,834M1414,990A2,2,0,1,1,1410,990A2,2,0,1,1,1414,990M244,401A2,2,0,1,1,240,401A2,2,0,1,1,244,401M1202,768A2,2,0,1,1,1198,768A2,2,0,1,1,1202,768M519,1053A2,2,0,1,1,515,1053A2,2,0,1,1,519,1053M290,576A2,2,0,1,1,286,576A2,2,0,1,1,290,576M717,656A2,2,0,1,1,713,656A2,2,0,1,1,717,656M552,1076A2,2,0,1,1,548,1076A2,2,0,1,1,552,1076M1601,777A2,2,0,1,1,1597,777A2,2,0,1,1,1601,777M466,690A2,2,0,1,1,462,690A2,2,0,1,1,466,690M337,660A2,2,0,1,1,333,660A2,2,0,1,1,337,660M1649,287A2,2,0,1,1,1645,287A2,2,0,1,1,1649,287M262,13A2,2,0,1,1,258,13A2,2,0,1,1,262,13M459,1054A2,2,0,1,1,455,1054A2,2,0,1,1,459,1054M315,551A2,2,0,1,1,311,551A2,2,0,1,1,315,551M285,543A2,2,0,1,1,281,543A2,2,0,1,1,285,543M242,52A2,2,0,1,1,238,52A2,2,0,1,1,242,52M82,526A2,2,0,1,1,78,526A2,2,0,1,1,82,526M292,744A2,2,0,1,1,288,744A2,2,0,1,1,292,744M548,683A2,2,0,1,1,544,683A2,2,0,1,1,548,683M1384,451A2,2,0,1,1,1380,451A2,2,0,1,1,1384,451M1623,97A2,2,0,1,1,1619,97A2,2,0,1,1,1623,97M488,616A2,2,0,1,1,484,616A2,2,0,1,1,488,616M744,477A2,2,0,1,1,740,477A2,2,0,1,1,744,477M8,144A2,2,0,1,1,4,144A2,2,0,1,1,8,144M1622,815A2,2,0,1,1,1618,815A2,2,0,1,1,1622,815M1148,302A2,2,0,1,1,1144,302A2,2,0,1,1,1148,302M487,909A2,2,0,1,1,483,909A2,2,0,1,1,487,909M114,697A2,2,0,1,1,110,697A2,2,0,1,1,114,697M922,721A2,2,0,1,1,918,721A2,2,0,1,1,922,721M103,328A2,2,0,1,1,99,328A2,2,0,1,1,103,328M87,201A2,2,0,1,1,83,201A2,2,0,1,1,87,201M1623,54A2,2,0,1,1,1619,54A2,2,0,1,1,1623,54M536,607A2,2,0,1,1,532,607A2,2,0,1,1,536,607M1640,993A2,2,0,1,1,1636,993A2,2,0,1,1,1640,993M1685,738A2,2,0,1,1,1681,738A2,2,0,1,1,1685,738M234,450A2,2,0,1,1,230,450A2,2,0,1,1,234,450M719,282A2,2,0,1,1,715,282A2,2,0,1,1,719,282M547,69A2,2,0,1,1,543,69A2,2,0,1,1,547,69M79,122A2,2,0,1,1,75,122A2,2,0,1,1,79,122M1593,103A2,2,0,1,1,1589,103A2,2,0,1,1,1593,103M1129,951A2,2,0,1,1,1125,951A2,2,0,1,1,1129,951M1617,473A2,2,0,1,1,1613,473A2,2,0,1,1,1617,473M1149,297A2,2,0,1,1,1145,297A2,2,0,1,1,1149,297M103,363A2,2,0,1,1,99,363A2,2,0,1,1,103,363M275,1076A2,2,0,1,1,271,1076A2,2,0,1,1,275,1076M31,406A2,2,0,1,1,27,406A2,2,0,1,1,31,406M1650,86A2,2,0,1,1,1646,86A2,2,0,1,1,1650,86M286,535A2,2,0,1,1,282,535A2,2,0,1,1,286,535M719,261A2,2,0,1,1,715,261A2,2,0,1,1,719,261M923,162A2,2,0,1,1,919,162A2,2,0,1,1,923,162M1133,799A2,2,0,1,1,1129,799A2,2,0,1,1,1133,799M1233,901A2,2,0,1,1,1229,901A2,2,0,1,1,1233,901M1583,32A2,2,0,1,1,1579,32A2,2,0,1,1,1583,32M460,957A2,2,0,1,1,456,957A2,2,0,1,1,460,957M1641,582A2,2,0,1,1,1637,582A2,2,0,1,1,1641,582M1623,214A2,2,0,1,1,1619,214A2,2,0,1,1,1623,214M94,687A2,2,0,1,1,90,687A2,2,0,1,1,94,687M1133,668A2,2,0,1,1,1129,668A2,2,0,1,1,1133,668M1390,1034A2,2,0,1,1,1386,1034A2,2,0,1,1,1390,1034M1190,476A2,2,0,1,1,1186,476A2,2,0,1,1,1190,476M988,204A2,2,0,1,1,984,204A2,2,0,1,1,988,204M918,113A2,2,0,1,1,914,113A2,2,0,1,1,918,113M969,948A2,2,0,1,1,965,948A2,2,0,1,1,969,948M22,1072A2,2,0,1,1,18,1072A2,2,0,1,1,22,1072M484,827A2,2,0,1,1,480,827A2,2,0,1,1,484,827M331,908A2,2,0,1,1,327,908A2,2,0,1,1,331,908M914,546A2,2,0,1,1,910,546A2,2,0,1,1,914,546M454,1009A2,2,0,1,1,450,1009A2,2,0,1,1,454,1009M1430,1076A2,2,0,1,1,1426,1076A2,2,0,1,1,1430,1076M87,270A2,2,0,1,1,83,270A2,2,0,1,1,87,270M780,33A2,2,0,1,1,776,33A2,2,0,1,1,780,33M459,997A2,2,0,1,1,455,997A2,2,0,1,1,459,997M9,637A2,2,0,1,1,5,637A2,2,0,1,1,9,637M1136,855A2,2,0,1,1,1132,855A2,2,0,1,1,1136,855M1589,741A2,2,0,1,1,1585,741A2,2,0,1,1,1589,741M97,469A2,2,0,1,1,93,469A2,2,0,1,1,97,469M512,1001A2,2,0,1,1,508,1001A2,2,0,1,1,512,1001M1144,913A2,2,0,1,1,1140,913A2,2,0,1,1,1144,913M1461,499A2,2,0,1,1,1457,499A2,2,0,1,1,1461,499M1410,919A2,2,0,1,1,1406,919A2,2,0,1,1,1410,919M1415,797A2,2,0,1,1,1411,797A2,2,0,1,1,1415,797M1161,575A2,2,0,1,1,1157,575A2,2,0,1,1,1161,575M748,1004A2,2,0,1,1,744,1004A2,2,0,1,1,748,1004M727,338A2,2,0,1,1,723,338A2,2,0,1,1,727,338M908,0A2,2,0,1,1,904,0A2,2,0,1,1,908,0M723,289A2,2,0,1,1,719,289A2,2,0,1,1,723,289M28,51A2,2,0,1,1,24,51A2,2,0,1,1,28,51M1618,661A2,2,0,1,1,1614,661A2,2,0,1,1,1618,661M1230,528A2,2,0,1,1,1226,528A2,2,0,1,1,1230,528M1359,352A2,2,0,1,1,1355,352A2,2,0,1,1,1359,352M1593,171A2,2,0,1,1,1589,171A2,2,0,1,1,1593,171M724,1075A2,2,0,1,1,720,1075A2,2,0,1,1,724,1075M739,339A2,2,0,1,1,735,339A2,2,0,1,1,739,339M1424,793A2,2,0,1,1,1420,793A2,2,0,1,1,1424,793M256,1009A2,2,0,1,1,252,1009A2,2,0,1,1,256,1009M921,516A2,2,0,1,1,917,516A2,2,0,1,1,921,516M677,121A2,2,0,1,1,673,121A2,2,0,1,1,677,121M1621,1001A2,2,0,1,1,1617,1001A2,2,0,1,1,1621,1001M921,824A2,2,0,1,1,917,824A2,2,0,1,1,921,824M684,443A2,2,0,1,1,680,443A2,2,0,1,1,684,443M72,1021A2,2,0,1,1,68,1021A2,2,0,1,1,72,1021M912,973A2,2,0,1,1,908,973A2,2,0,1,1,912,973M1184,0A2,2,0,1,1,1180,0A2,2,0,1,1,1184,0M1148,682A2,2,0,1,1,1144,682A2,2,0,1,1,1148,682M1198,445A2,2,0,1,1,1194,445A2,2,0,1,1,1198,445M23,792A2,2,0,1,1,19,792A2,2,0,1,1,23,792M331,345A2,2,0,1,1,327,345A2,2,0,1,1,331,345M749,619A2,2,0,1,1,745,619A2,2,0,1,1,749,619M327,921A2,2,0,1,1,323,921A2,2,0,1,1,327,921M1449,987A2,2,0,1,1,1445,987A2,2,0,1,1,1449,987M537,812A2,2,0,1,1,533,812A2,2,0,1,1,537,812M950,326A2,2,0,1,1,946,326A2,2,0,1,1,950,326M464,871A2,2,0,1,1,460,871A2,2,0,1,1,464,871M1606,691A2,2,0,1,1,1602,691A2,2,0,1,1,1606,691M538,380A2,2,0,1,1,534,380A2,2,0,1,1,538,380M704,398A2,2,0,1,1,700,398A2,2,0,1,1,704,398M52,674A2,2,0,1,1,48,674A2,2,0,1,1,52,674M1635,564A2,2,0,1,1,1631,564A2,2,0,1,1,1635,564M1663,347A2,2,0,1,1,1659,347A2,2,0,1,1,1663,347M995,153A2,2,0,1,1,991,153A2,2,0,1,1,995,153M1416,522A2,2,0,1,1,1412,522A2,2,0,1,1,1416,522M232,683A2,2,0,1,1,228,683A2,2,0,1,1,232,683M1615,723A2,2,0,1,1,1611,723A2,2,0,1,1,1615,723M1005,441A2,2,0,1,1,1001,441A2,2,0,1,1,1005,441M1420,944A2,2,0,1,1,1416,944A2,2,0,1,1,1420,944M55,191A2,2,0,1,1,51,191A2,2,0,1,1,55,191M932,746A2,2,0,1,1,928,746A2,2,0,1,1,932,746M267,42A2,2,0,1,1,263,42A2,2,0,1,1,267,42M76,370A2,2,0,1,1,72,370A2,2,0,1,1,76,370M1208,849A2,2,0,1,1,1204,849A2,2,0,1,1,1208,849M682,866A2,2,0,1,1,678,866A2,2,0,1,1,682,866M243,1041A2,2,0,1,1,239,1041A2,2,0,1,1,243,1041M936,789A2,2,0,1,1,932,789A2,2,0,1,1,936,789M1647,940A2,2,0,1,1,1643,940A2,2,0,1,1,1647,940M1445,357A2,2,0,1,1,1441,357A2,2,0,1,1,1445,357M1407,780A2,2,0,1,1,1403,780A2,2,0,1,1,1407,780M923,53A2,2,0,1,1,919,53A2,2,0,1,1,923,53M486,94A2,2,0,1,1,482,94A2,2,0,1,1,486,94M1432,840A2,2,0,1,1,1428,840A2,2,0,1,1,1432,840M1642,322A2,2,0,1,1,1638,322A2,2,0,1,1,1642,322M1420,27A2,2,0,1,1,1416,27A2,2,0,1,1,1420,27M510,870A2,2,0,1,1,506,870A2,2,0,1,1,510,870M26,1014A2,2,0,1,1,22,1014A2,2,0,1,1,26,1014M277,689A2,2,0,1,1,273,689A2,2,0,1,1,277,689M998,189A2,2,0,1,1,994,189A2,2,0,1,1,998,189M1223,824A2,2,0,1,1,1219,824A2,2,0,1,1,1223,824M242,812A2,2,0,1,1,238,812A2,2,0,1,1,242,812M690,979A2,2,0,1,1,686,979A2,2,0,1,1,690,979M1139,902A2,2,0,1,1,1135,902A2,2,0,1,1,1139,902M74,652A2,2,0,1,1,70,652A2,2,0,1,1,74,652M1381,462A2,2,0,1,1,1377,462A2,2,0,1,1,1381,462M1670,672A2,2,0,1,1,1666,672A2,2,0,1,1,1670,672M76,307A2,2,0,1,1,72,307A2,2,0,1,1,76,307M523,410A2,2,0,1,1,519,410A2,2,0,1,1,523,410M761,976A2,2,0,1,1,757,976A2,2,0,1,1,761,976M1612,966A2,2,0,1,1,1608,966A2,2,0,1,1,1612,966M1666,468A2,2,0,1,1,1662,468A2,2,0,1,1,1666,468M1171,924A2,2,0,1,1,1167,924A2,2,0,1,1,1171,924M113,576A2,2,0,1,1,109,576A2,2,0,1,1,113,576M1009,994A2,2,0,1,1,1005,994A2,2,0,1,1,1009,994M1444,668A2,2,0,1,1,1440,668A2,2,0,1,1,1444,668M13,923A2,2,0,1,1,9,923A2,2,0,1,1,13,923M956,71A2,2,0,1,1,952,71A2,2,0,1,1,956,71M922,518A2,2,0,1,1,918,518A2,2,0,1,1,922,518M238,142A2,2,0,1,1,234,142A2,2,0,1,1,238,142M270,620A2,2,0,1,1,266,620A2,2,0,1,1,270,620M959,652A2,2,0,1,1,955,652A2,2,0,1,1,959,652M719,69A2,2,0,1,1,715,69A2,2,0,1,1,719,69M783,276A2,2,0,1,1,779,276A2,2,0,1,1,783,276M1459,427A2,2,0,1,1,1455,427A2,2,0,1,1,1459,427M948,309A2,2,0,1,1,944,309A2,2,0,1,1,948,309M1584,588A2,2,0,1,1,1580,588A2,2,0,1,1,1584,588M705,116A2,2,0,1,1,701,116A2,2,0,1,1,705,116M1415,1035A2,2,0,1,1,1411,1035A2,2,0,1,1,1415,1035M1393,808A2,2,0,1,1,1389,808A2,2,0,1,1,1393,808M765,1007A2,2,0,1,1,761,1007A2,2,0,1,1,765,1007M265,431A2,2,0,1,1,261,431A2,2,0,1,1,265,431M739,868A2,2,0,1,1,735,868A2,2,0,1,1,739,868M1414,403A2,2,0,1,1,1410,403A2,2,0,1,1,1414,403M1224,1041A2,2,0,1,1,1220,1041A2,2,0,1,1,1224,1041M486,777A2,2,0,1,1,482,777A2,2,0,1,1,486,777M473,276A2,2,0,1,1,469,276A2,2,0,1,1,473,276M537,558A2,2,0,1,1,533,558A2,2,0,1,1,537,558M1415,148A2,2,0,1,1,1411,148A2,2,0,1,1,1415,148M1191,678A2,2,0,1,1,1187,678A2,2,0,1,1,1191,678M108,594A2,2,0,1,1,104,594A2,2,0,1,1,108,594M106,1025A2,2,0,1,1,102,1025A2,2,0,1,1,106,1025M1590,320A2,2,0,1,1,1586,320A2,2,0,1,1,1590,320M1686,801A2,2,0,1,1,1682,801A2,2,0,1,1,1686,801M57,812A2,2,0,1,1,53,812A2,2,0,1,1,57,812M472,717A2,2,0,1,1,468,717A2,2,0,1,1,472,717M1161,306A2,2,0,1,1,1157,306A2,2,0,1,1,1161,306M255,232A2,2,0,1,1,251,232A2,2,0,1,1,255,232M1620,279A2,2,0,1,1,1616,279A2,2,0,1,1,1620,279M292,871A2,2,0,1,1,288,871A2,2,0,1,1,292,871M1220,288A2,2,0,1,1,1216,288A2,2,0,1,1,1220,288M756,972A2,2,0,1,1,752,972A2,2,0,1,1,756,972M42,377A2,2,0,1,1,38,377A2,2,0,1,1,42,377M82,579A2,2,0,1,1,78,579A2,2,0,1,1,82,579M83,315A2,2,0,1,1,79,315A2,2,0,1,1,83,315M1382,70A2,2,0,1,1,1378,70A2,2,0,1,1,1382,70M245,738A2,2,0,1,1,241,738A2,2,0,1,1,245,738M1402,209A2,2,0,1,1,1398,209A2,2,0,1,1,1402,209M517,163A2,2,0,1,1,513,163A2,2,0,1,1,517,163M679,768A2,2,0,1,1,675,768A2,2,0,1,1,679,768M42,341A2,2,0,1,1,38,341A2,2,0,1,1,42,341M473,746A2,2,0,1,1,469,746A2,2,0,1,1,473,746M1142,246A2,2,0,1,1,1138,246A2,2,0,1,1,1142,246M323,867A2,2,0,1,1,319,867A2,2,0,1,1,323,867M754,602A2,2,0,1,1,750,602A2,2,0,1,1,754,602M998,869A2,2,0,1,1,994,869A2,2,0,1,1,998,869M499,129A2,2,0,1,1,495,129A2,2,0,1,1,499,129M521,496A2,2,0,1,1,517,496A2,2,0,1,1,521,496M709,187A2,2,0,1,1,705,187A2,2,0,1,1,709,187M993,58A2,2,0,1,1,989,58A2,2,0,1,1,993,58M968,951A2,2,0,1,1,964,951A2,2,0,1,1,968,951M328,781A2,2,0,1,1,324,781A2,2,0,1,1,328,781M781,803A2,2,0,1,1,777,803A2,2,0,1,1,781,803M1644,628A2,2,0,1,1,1640,628A2,2,0,1,1,1644,628M905,40A2,2,0,1,1,901,40A2,2,0,1,1,905,40M1222,529A2,2,0,1,1,1218,529A2,2,0,1,1,1222,529M1156,873A2,2,0,1,1,1152,873A2,2,0,1,1,1156,873M1182,481A2,2,0,1,1,1178,481A2,2,0,1,1,1182,481M1399,648A2,2,0,1,1,1395,648A2,2,0,1,1,1399,648M1213,969A2,2,0,1,1,1209,969A2,2,0,1,1,1213,969M934,908A2,2,0,1,1,930,908A2,2,0,1,1,934,908M32,862A2,2,0,1,1,28,862A2,2,0,1,1,32,862M1380,483A2,2,0,1,1,1376,483A2,2,0,1,1,1380,483M698,402A2,2,0,1,1,694,402A2,2,0,1,1,698,402M1186,174A2,2,0,1,1,1182,174A2,2,0,1,1,1186,174M1003,1072A2,2,0,1,1,999,1072A2,2,0,1,1,1003,1072M1226,115A2,2,0,1,1,1222,115A2,2,0,1,1,1226,115M279,1068A2,2,0,1,1,275,1068A2,2,0,1,1,279,1068M908,72A2,2,0,1,1,904,72A2,2,0,1,1,908,72M928,1048A2,2,0,1,1,924,1048A2,2,0,1,1,928,1048M1428,900A2,2,0,1,1,1424,900A2,2,0,1,1,1428,900M336,289A2,2,0,1,1,332,289A2,2,0,1,1,336,289M728,773A2,2,0,1,1,724,773A2,2,0,1,1,728,773M1199,243A2,2,0,1,1,1195,243A2,2,0,1,1,1199,243M6,761A2,2,0,1,1,2,761A2,2,0,1,1,6,761M321,380A2,2,0,1,1,317,380A2,2,0,1,1,321,380M103,583A2,2,0,1,1,99,583A2,2,0,1,1,103,583M1384,659A2,2,0,1,1,1380,659A2,2,0,1,1,1384,659M562,945A2,2,0,1,1,558,945A2,2,0,1,1,562,945M42,87A2,2,0,1,1,38,87A2,2,0,1,1,42,87M1398,473A2,2,0,1,1,1394,473A2,2,0,1,1,1398,473M770,495A2,2,0,1,1,766,495A2,2,0,1,1,770,495M1657,741A2,2,0,1,1,1653,741A2,2,0,1,1,1657,741M80,899A2,2,0,1,1,76,899A2,2,0,1,1,80,899M1432,380A2,2,0,1,1,1428,380A2,2,0,1,1,1432,380M1394,889A2,2,0,1,1,1390,889A2,2,0,1,1,1394,889M1419,754A2,2,0,1,1,1415,754A2,2,0,1,1,1419,754M310,998A2,2,0,1,1,306,998A2,2,0,1,1,310,998M711,269A2,2,0,1,1,707,269A2,2,0,1,1,711,269M31,250A2,2,0,1,1,27,250A2,2,0,1,1,31,250M239,146A2,2,0,1,1,235,146A2,2,0,1,1,239,146M1442,632A2,2,0,1,1,1438,632A2,2,0,1,1,1442,632M1411,696A2,2,0,1,1,1407,696A2,2,0,1,1,1411,696M96,682A2,2,0,1,1,92,682A2,2,0,1,1,96,682M716,360A2,2,0,1,1,712,360A2,2,0,1,1,716,360M37,571A2,2,0,1,1,33,571A2,2,0,1,1,37,571M1179,158A2,2,0,1,1,1175,158A2,2,0,1,1,1179,158M725,940A2,2,0,1,1,721,940A2,2,0,1,1,725,940M731,139A2,2,0,1,1,727,139A2,2,0,1,1,731,139M1214,370A2,2,0,1,1,1210,370A2,2,0,1,1,1214,370M297,59A2,2,0,1,1,293,59A2,2,0,1,1,297,59M295,505A2,2,0,1,1,291,505A2,2,0,1,1,295,505M1220,60A2,2,0,1,1,1216,60A2,2,0,1,1,1220,60M483,173A2,2,0,1,1,479,173A2,2,0,1,1,483,173M1605,16A2,2,0,1,1,1601,16A2,2,0,1,1,1605,16M1221,390A2,2,0,1,1,1217,390A2,2,0,1,1,1221,390M747,617A2,2,0,1,1,743,617A2,2,0,1,1,747,617M972,110A2,2,0,1,1,968,110A2,2,0,1,1,972,110M730,417A2,2,0,1,1,726,417A2,2,0,1,1,730,417M1596,110A2,2,0,1,1,1592,110A2,2,0,1,1,1596,110M68,100A2,2,0,1,1,64,100A2,2,0,1,1,68,100M713,169A2,2,0,1,1,709,169A2,2,0,1,1,713,169M912,177A2,2,0,1,1,908,177A2,2,0,1,1,912,177M469,625A2,2,0,1,1,465,625A2,2,0,1,1,469,625M1374,345A2,2,0,1,1,1370,345A2,2,0,1,1,1374,345M1160,722A2,2,0,1,1,1156,722A2,2,0,1,1,1160,722M99,601A2,2,0,1,1,95,601A2,2,0,1,1,99,601M1628,356A2,2,0,1,1,1624,356A2,2,0,1,1,1628,356M921,687A2,2,0,1,1,917,687A2,2,0,1,1,921,687M961,466A2,2,0,1,1,957,466A2,2,0,1,1,961,466M1392,41A2,2,0,1,1,1388,41A2,2,0,1,1,1392,41M49,590A2,2,0,1,1,45,590A2,2,0,1,1,49,590M296,11A2,2,0,1,1,292,11A2,2,0,1,1,296,11M466,996A2,2,0,1,1,462,996A2,2,0,1,1,466,996M1642,96A2,2,0,1,1,1638,96A2,2,0,1,1,1642,96M1454,449A2,2,0,1,1,1450,449A2,2,0,1,1,1454,449M496,478A2,2,0,1,1,492,478A2,2,0,1,1,496,478M84,234A2,2,0,1,1,80,234A2,2,0,1,1,84,234M987,682A2,2,0,1,1,983,682A2,2,0,1,1,987,682M39,494A2,2,0,1,1,35,494A2,2,0,1,1,39,494M453,854A2,2,0,1,1,449,854A2,2,0,1,1,453,854M1635,396A2,2,0,1,1,1631,396A2,2,0,1,1,1635,396M23,798A2,2,0,1,1,19,798A2,2,0,1,1,23,798M234,945A2,2,0,1,1,230,945A2,2,0,1,1,234,945M1225,689A2,2,0,1,1,1221,689A2,2,0,1,1,1225,689M62,957A2,2,0,1,1,58,957A2,2,0,1,1,62,957M1360,909A2,2,0,1,1,1356,909A2,2,0,1,1,1360,909M1359,344A2,2,0,1,1,1355,344A2,2,0,1,1,1359,344M1140,64A2,2,0,1,1,1136,64A2,2,0,1,1,1140,64M1401,23A2,2,0,1,1,1397,23A2,2,0,1,1,1401,23M1428,291A2,2,0,1,1,1424,291A2,2,0,1,1,1428,291M512,288A2,2,0,1,1,508,288A2,2,0,1,1,512,288M709,401A2,2,0,1,1,705,401A2,2,0,1,1,709,401M20,362A2,2,0,1,1,16,362A2,2,0,1,1,20,362M269,242A2,2,0,1,1,265,242A2,2,0,1,1,269,242M1595,597A2,2,0,1,1,1591,597A2,2,0,1,1,1595,597M240,377A2,2,0,1,1,236,377A2,2,0,1,1,240,377M1452,444A2,2,0,1,1,1448,444A2,2,0,1,1,1452,444M81,120A2,2,0,1,1,77,120A2,2,0,1,1,81,120M1430,1063A2,2,0,1,1,1426,1063A2,2,0,1,1,1430,1063M1685,921A2,2,0,1,1,1681,921A2,2,0,1,1,1685,921M525,880A2,2,0,1,1,521,880A2,2,0,1,1,525,880"
    stroke-width="8px"
    stroke-dasharray="0 0 0 0"
    stroke-linecap="round"
    stroke-linejoin="round"
    stroke-dashoffset="0"
    stroke-opacity="1%"
  />
</svg>
