<svg
	version="1.1"
	xmlns="http://www.w3.org/2000/svg"
	viewBox="0 0 735.5555555555547 767.7777777777778"
	width="735.5555555555547"
	height="767.7777777777778">
	<!-- svg-source:excalidraw -->

	<defs>
		<style class="style-fonts">
			@font-face {
				font-family: 'Virgil';
				src: url('https://excalidraw.com/Virgil.woff2');
			}
			@font-face {
				font-family: 'Cascadia';
				src: url('https://excalidraw.com/Cascadia.woff2');
			}
		</style>
	</defs>
	<rect x="0" y="0" width="735.5555555555547" height="767.7777777777778" fill="#ffffff"></rect>
	<g
		transform="translate(12.222222222221717 637.7777777777778) rotate(0 355.55555555555566 -253.8888888888889)"
		stroke="none">
		<path
			d="M-0.51 0.14 L1.24 -1.2 L1.52 -6.87 L7.66 -11.21 L15.96 -19.84 L23.4 -31.36 L30.03 -35.56 L37.4 -48.42 L41.99 -50.32 L44.77 -55.3 L47.11 -63.22 L55.63 -76.39 L59.03 -83.05 L66.47 -97.99 L66.42 -105.17 L69.92 -109.64 L74.09 -119.53 L83.19 -143.7 L87.87 -149.78 L89.17 -152.9 L97.08 -165.93 L99.15 -177.18 L103.81 -190.79 L102.73 -199.56 L106.99 -215.1 L108.81 -223.82 L109.68 -232.84 L115.05 -252.36 L116.63 -261.89 L118.62 -281.92 L121.39 -291.86 L124.8 -313.37 L125 -324.69 L127.04 -335.75 L130.4 -354.71 L131.34 -368.65 L134.22 -387.46 L135.86 -397.38 L141.92 -408.45 L141.33 -412.71 L145.75 -435.05 L151.53 -450.44 L158.1 -458.59 L161.91 -468.06 L166.6 -476.29 L166.95 -482.1 L177.48 -495.75 L181.29 -500.33 L190.89 -516.92 L194.58 -522.22 L208.87 -535.44 L214.39 -543.58 L226.74 -557.33 L232.87 -559.51 L241.27 -565.4 L253.87 -576.1 L265.16 -583.05 L274.94 -589.38 L291.46 -599.14 L294.2 -598.17 L301.38 -600.24 L311.92 -607.22 L323.8 -611.27 L332.49 -612.09 L347.53 -617.3 L360.7 -620 L367.96 -623.31 L375.21 -623.02 L384.84 -623.53 L397.07 -625.56 L413.84 -628.77 L425.24 -627.72 L429.87 -627.32 L437.93 -628.63 L451.11 -627.38 L459.49 -626.9 L478.08 -621.97 L485.73 -621.27 L499.68 -616.66 L507.52 -613.96 L524.04 -604.08 L531.61 -602.22 L547.44 -591.21 L552.46 -585.65 L566.53 -576.51 L570.89 -571.32 L577.19 -564.78 L591.65 -553.35 L594.12 -545.88 L602.71 -538.42 L609.71 -531.99 L610.88 -530.47 L621.82 -514.36 L622.63 -508.47 L627.57 -502.57 L629.48 -495.96 L634.64 -491.46 L641.1 -483.98 L647.1 -470.69 L648.15 -465.67 L656.48 -447.59 L660.8 -439.24 L663.77 -432.76 L675.11 -412.78 L679.9 -405.15 L681.07 -396.98 L687.93 -380.07 L691.26 -368.23 L693.92 -351.19 L698.6 -328.6 L704.34 -321.23 L704.83 -308.09 L704.66 -306.79 L707.6 -300.17 L708.71 -292.64 L709.16 -281.54 L710.68 -277.68 L714.33 -260.86 L713.36 -252.27 L714.28 -247.99 L713.44 -236.92 L711.67 -220.07 L711.09 -207.17 L708.18 -188.16 L708.84 -179.81 L704.97 -159.21 L700.24 -150.41 L701.55 -143.89 L696.55 -128.29 L694.91 -111 L692.71 -101.51 L689.73 -94.15 L688.25 -77.43 L684.38 -66.85 L685.07 -62.64 L682.72 -50.77 L680.74 -38.97 L677.62 -28.38 L673.43 -16.63 L669.21 -12.27 L665.45 2.25 L665.31 10.14 L657.48 19.43 L653.21 24.18 L645.64 36.72 L642.57 39.95 L631.55 54.93 L620.06 60.51 L612.08 67.15 L608.07 74.11 L593.55 83.25 L585.77 86.21 L568.01 93.15 L557.37 97 L540.72 104.21 L531.9 107.66 L516.43 110.75 L507.62 114.55 L486.49 118.74 L478.47 120.35 L459.93 120.01 L447.02 120.7 L427.68 117.57 L415.94 116.88 L405.49 112.52 L383.82 112.26 L366.38 106.05 L356.97 103.85 L347.92 101.21 L332.48 99.4 L327.18 94.47 L308.03 91.19 L301.34 87.7 L282.77 77.15 L273.96 77.09 L269.34 71.95 L252.97 65.8 L245.38 64.79 L231.97 61.73 L219.36 62.29 L204.05 57.33 L197.66 58.48 L180.44 57.33 L174.33 56.36 L162.26 55 L158.27 56.58 L144.14 58.37 L131.37 62.54 L127.94 61.09 L118.34 66.15 L107.88 64.69 L104.25 68.32 L100.77 70.09 L90.99 71.57 L89.11 69.42 L82.34 70.3 L79.98 69.58 L75.34 69.65 L72.83 69.97 L70.52 69.53 L65.91 67.63 L62.52 66.34 L58.5 61.69 L55.47 56.38 L50.69 50.71 L41.2 47.12 L37.36 43.76 L36.99 43.01 L36.21 39.54 L36.06 40.59 L35.08 37.54 L33.97 34.69 L31.05 32.39 L31.55 31.79 L28.67 29.97 L30.2 28.68 L27.98 27.08 L27.46 26 L25.15 24.21 L26.13 20.26 L18.25 18.55 L17.81 17.15 L14.4 13.19 L13.33 14.02 L11.3 10.17 L8.37 11.62 L6.56 9.62 L5.59 6.12 L7.26 8.21 L4.94 5.56 L5.08 4.22 L-0.41 1.82 L-0.19 -0.84 L-1.8 -4.21 L-4.15 -2.75 L-0.89 -1.6"
			stroke="none"
			stroke-width="0"
			fill="#a5d8ff"
			fill-rule="evenodd"></path>
		<path
			fill="#1e1e1e"
			d="M -7.91,-5.71 Q -7.91,-5.71 -3.57,-11.33 0.76,-16.94 5.75,-22.67 10.74,-28.40 13.85,-32.48 16.95,-36.56 20.89,-41.42 24.82,-46.28 28.47,-52.14 32.13,-57.99 34.48,-61.61 36.83,-65.24 39.18,-69.48 41.53,-73.73 43.45,-77.57 45.38,-81.42 48.70,-87.54 52.02,-93.66 54.96,-101.50 57.90,-109.33 59.90,-113.79 61.89,-118.24 66.21,-126.09 70.52,-133.94 73.06,-139.40 75.60,-144.87 79.39,-153.96 83.19,-163.05 85.05,-167.77 86.91,-172.49 88.61,-178.06 90.30,-183.64 91.60,-188.50 92.89,-193.36 94.65,-200.14 96.40,-206.92 97.66,-212.60 98.92,-218.28 99.64,-223.26 100.36,-228.24 102.06,-235.87 103.75,-243.51 104.59,-249.52 105.42,-255.54 107.23,-263.88 109.04,-272.23 109.84,-278.59 110.63,-284.94 112.30,-293.15 113.97,-301.36 115.27,-308.95 116.58,-316.53 117.21,-322.60 117.83,-328.66 119.46,-337.04 121.09,-345.41 121.78,-351.79 122.47,-358.17 124.44,-366.80 126.41,-375.43 127.58,-381.99 128.75,-388.54 129.71,-394.25 130.67,-399.96 131.18,-404.25 131.68,-408.54 133.92,-416.31 136.15,-424.08 139.31,-432.56 142.46,-441.03 144.84,-447.40 147.22,-453.76 148.97,-458.97 150.71,-464.17 152.72,-468.99 154.73,-473.81 156.38,-477.75 158.02,-481.70 160.75,-486.78 163.49,-491.87 165.85,-496.07 168.22,-500.27 172.39,-506.16 176.56,-512.05 179.81,-516.86 183.05,-521.67 188.45,-527.66 193.84,-533.65 197.52,-537.94 201.20,-542.23 207.36,-547.75 213.53,-553.28 218.00,-557.25 222.47,-561.22 226.11,-564.53 229.74,-567.84 235.28,-572.26 240.81,-576.68 246.63,-580.72 252.46,-584.75 256.94,-588.07 261.42,-591.40 268.63,-595.28 275.84,-599.16 280.17,-601.54 284.49,-603.92 288.49,-605.97 292.48,-608.03 296.39,-609.95 300.29,-611.88 306.28,-614.21 312.28,-616.54 316.73,-618.35 321.18,-620.16 327.41,-622.11 333.64,-624.06 340.66,-625.75 347.67,-627.43 352.97,-628.69 358.27,-629.95 362.80,-630.92 367.33,-631.90 371.87,-632.71 376.42,-633.52 382.35,-634.12 388.28,-634.72 395.79,-635.22 403.31,-635.73 408.97,-636.22 414.62,-636.71 419.33,-637.04 424.03,-637.37 428.29,-637.61 432.56,-637.84 438.20,-637.58 443.85,-637.31 448.85,-636.93 453.85,-636.56 461.02,-635.11 468.20,-633.65 473.59,-632.54 478.98,-631.43 485.79,-629.42 492.60,-627.41 498.00,-625.69 503.39,-623.97 510.18,-621.02 516.97,-618.07 522.53,-615.63 528.09,-613.19 534.98,-609.20 541.87,-605.22 547.06,-602.00 552.25,-598.77 557.69,-594.71 563.12,-590.65 567.60,-586.98 572.07,-583.31 575.83,-580.35 579.58,-577.39 584.48,-572.63 589.37,-567.86 593.36,-563.44 597.34,-559.02 600.77,-555.55 604.19,-552.08 607.47,-548.58 610.74,-545.08 616.54,-537.21 622.35,-529.34 625.38,-525.11 628.42,-520.88 632.74,-514.62 637.06,-508.36 641.56,-501.93 646.06,-495.50 648.82,-490.01 651.59,-484.52 653.89,-480.31 656.19,-476.10 659.17,-469.50 662.15,-462.91 664.74,-458.08 667.33,-453.25 669.62,-448.29 671.92,-443.33 674.86,-436.18 677.81,-429.02 680.52,-423.03 683.22,-417.05 685.27,-412.49 687.32,-407.93 689.47,-400.18 691.63,-392.43 693.60,-386.47 695.57,-380.51 697.61,-372.32 699.65,-364.13 701.66,-354.71 703.66,-345.29 705.62,-338.66 707.59,-332.03 709.29,-326.23 710.99,-320.43 713.10,-313.95 715.22,-307.47 716.22,-303.10 717.22,-298.73 718.28,-294.30 719.34,-289.87 720.74,-280.50 722.15,-271.13 722.62,-266.09 723.10,-261.05 723.59,-253.07 724.09,-245.09 723.36,-237.33 722.63,-229.56 722.11,-223.34 721.60,-217.12 720.21,-208.72 718.81,-200.32 718.14,-193.89 717.47,-187.45 715.74,-178.86 714.02,-170.28 712.95,-163.93 711.88,-157.59 711.35,-153.31 710.82,-149.02 709.48,-142.43 708.13,-135.83 705.94,-127.87 703.75,-119.90 702.89,-114.66 702.04,-109.42 701.14,-104.74 700.25,-100.05 698.71,-93.24 697.18,-86.43 696.02,-80.52 694.85,-74.61 693.79,-66.12 692.72,-57.63 691.38,-51.27 690.04,-44.91 688.96,-39.88 687.87,-34.85 686.38,-28.94 684.88,-23.04 683.71,-18.63 682.54,-14.23 680.26,-8.35 677.97,-2.47 676.58,1.77 675.18,6.02 671.91,12.01 668.64,18.00 663.65,26.26 658.66,34.53 651.46,43.38 644.26,52.23 638.62,57.21 632.99,62.20 629.34,65.84 625.69,69.48 621.93,72.70 618.17,75.93 612.18,79.96 606.19,84.00 601.19,87.01 596.19,90.02 589.01,93.25 581.84,96.47 576.42,99.21 571.00,101.95 563.14,104.80 555.28,107.65 549.35,109.79 543.43,111.92 535.97,113.90 528.52,115.88 523.07,117.82 517.62,119.76 509.34,121.32 501.05,122.89 495.04,124.14 489.03,125.39 480.40,125.88 471.78,126.36 465.25,126.84 458.71,127.32 449.22,126.48 439.72,125.63 432.58,125.16 425.44,124.69 418.99,123.99 412.54,123.29 404.14,121.64 395.74,119.99 386.64,117.89 377.53,115.78 370.78,114.53 364.02,113.28 358.49,112.33 352.96,111.37 346.82,109.67 340.69,107.97 335.95,106.84 331.20,105.70 324.35,103.39 317.50,101.08 312.61,99.72 307.72,98.37 299.79,94.62 291.85,90.88 286.22,88.70 280.60,86.51 275.89,84.78 271.19,83.05 265.36,81.06 259.53,79.07 254.51,77.75 249.49,76.42 243.80,75.24 238.12,74.07 232.38,72.95 226.65,71.83 220.21,70.63 213.77,69.43 208.76,68.79 203.76,68.15 197.42,67.43 191.09,66.71 186.53,66.63 181.98,66.54 176.63,66.49 171.29,66.45 161.86,67.31 152.44,68.18 147.19,68.97 141.94,69.76 134.52,71.57 127.11,73.37 122.54,74.48 117.97,75.59 111.81,77.27 105.65,78.96 100.03,80.12 94.41,81.27 88.80,82.10 83.20,82.93 76.44,82.78 69.67,82.63 64.59,80.40 59.52,78.18 54.22,73.78 48.93,69.37 43.91,64.97 38.89,60.57 34.52,56.77 30.15,52.97 26.35,48.83 22.54,44.70 20.20,40.43 17.86,36.17 14.51,32.75 11.17,29.34 6.33,25.83 1.49,22.31 -2.68,17.93 -6.86,13.55 -8.47,11.63 -10.09,9.70 -11.29,8.41 -12.49,7.13 -13.35,5.59 -14.21,4.05 -14.68,2.35 -15.14,0.65 -15.19,-1.10 -15.23,-2.86 -14.86,-4.58 -14.48,-6.30 -13.70,-7.88 -12.93,-9.46 -11.79,-10.80 -10.66,-12.15 -9.24,-13.19 -7.81,-14.23 -6.18,-14.90 -4.55,-15.56 -2.81,-15.82 -1.07,-16.08 0.67,-15.91 2.43,-15.74 4.09,-15.16 5.75,-14.58 7.22,-13.62 8.70,-12.66 11.26,-7.90 13.81,-3.14 13.70,-0.78 13.59,1.57 12.73,3.77 11.86,5.97 10.34,7.78 8.83,9.59 6.81,10.82 4.79,12.05 2.49,12.58 0.18,13.10 -2.16,12.86 -4.51,12.62 -6.66,11.64 -8.81,10.66 -10.54,9.04 -12.27,7.43 -13.39,5.35 -14.51,3.27 -14.90,0.93 -15.30,-1.39 -14.93,-3.72 -14.56,-6.05 -13.47,-8.15 -12.37,-10.24 -10.67,-11.88 -8.96,-13.52 -6.82,-14.52 -4.68,-15.53 -2.34,-15.80 0.00,-16.07 2.31,-15.57 4.63,-15.08 6.66,-13.87 8.69,-12.67 10.23,-10.87 11.77,-9.08 12.66,-6.89 13.55,-4.70 13.69,-2.34 13.83,0.01 13.21,2.29 12.60,4.57 11.28,6.54 9.97,8.50 8.09,9.94 6.22,11.38 3.98,12.15 1.75,12.92 -0.60,12.93 -2.97,12.95 -5.21,12.21 -7.46,11.46 -9.35,10.04 -11.24,8.63 -12.58,6.68 -13.91,4.73 -12.00,7.21 -10.09,9.70 -11.29,8.41 -12.49,7.13 -13.35,5.59 -14.21,4.05 -14.68,2.35 -15.14,0.66 -15.19,-1.09 -15.23,-2.85 -14.86,-4.57 -14.48,-6.30 -13.70,-7.88 -12.93,-9.46 -11.79,-10.80 -10.66,-12.15 -9.24,-13.19 -7.82,-14.23 -6.19,-14.90 -4.56,-15.56 -2.81,-15.82 -1.07,-16.08 0.67,-15.91 2.42,-15.75 4.09,-15.16 5.75,-14.58 7.22,-13.62 8.70,-12.66 11.16,-10.13 13.63,-7.61 18.23,-2.58 22.83,2.43 27.51,6.29 32.20,10.14 35.45,13.74 38.70,17.34 41.01,21.12 43.33,24.90 45.65,29.30 47.97,33.69 51.48,36.97 55.00,40.25 58.73,43.18 62.46,46.11 67.33,50.94 72.21,55.78 76.74,57.26 81.27,58.75 86.37,58.36 91.46,57.97 96.17,57.44 100.87,56.91 107.05,55.80 113.23,54.69 117.75,53.73 122.26,52.78 130.65,51.40 139.03,50.02 144.97,49.16 150.91,48.30 156.62,47.87 162.34,47.43 167.02,47.33 171.70,47.23 177.40,47.42 183.10,47.62 188.00,48.09 192.90,48.57 199.80,49.17 206.69,49.78 211.76,50.75 216.84,51.72 223.59,52.81 230.35,53.90 236.13,55.15 241.90,56.41 248.26,57.81 254.61,59.21 259.90,60.95 265.18,62.70 271.56,64.92 277.93,67.14 282.42,69.31 286.91,71.48 292.37,73.95 297.84,76.42 305.49,79.12 313.14,81.83 317.85,83.61 322.57,85.40 329.30,87.48 336.03,89.56 340.70,91.24 345.37,92.92 350.85,94.83 356.33,96.74 361.61,98.27 366.88,99.80 373.52,101.39 380.16,102.98 389.04,104.56 397.93,106.15 406.29,107.15 414.66,108.15 420.60,109.18 426.54,110.20 433.52,110.80 440.51,111.39 449.21,111.55 457.92,111.70 464.15,111.53 470.38,111.35 478.25,110.29 486.12,109.23 491.87,108.37 497.62,107.50 504.97,105.57 512.32,103.64 518.12,101.88 523.92,100.11 530.90,97.88 537.89,95.65 543.38,93.90 548.87,92.15 555.84,88.86 562.82,85.58 568.26,82.89 573.70,80.20 580.05,76.66 586.39,73.13 590.67,70.76 594.94,68.39 603.52,61.87 612.09,55.35 615.97,51.75 619.84,48.14 624.39,43.60 628.94,39.05 635.17,31.06 641.40,23.07 646.21,15.76 651.01,8.44 653.53,3.76 656.04,-0.91 657.74,-5.23 659.43,-9.56 662.76,-18.62 666.08,-27.69 667.49,-33.56 668.91,-39.43 670.16,-44.07 671.42,-48.71 672.57,-54.57 673.72,-60.44 675.72,-69.35 677.71,-78.25 679.04,-84.05 680.36,-89.85 681.69,-97.08 683.01,-104.30 684.33,-108.57 685.64,-112.84 686.98,-118.15 688.32,-123.47 689.80,-131.32 691.27,-139.18 692.54,-145.75 693.80,-152.32 694.90,-156.46 696.00,-160.60 697.27,-166.58 698.53,-172.55 699.30,-180.91 700.06,-189.27 700.73,-195.66 701.40,-202.05 701.66,-210.31 701.93,-218.56 702.30,-224.45 702.68,-230.34 702.53,-237.55 702.39,-244.76 702.46,-252.16 702.54,-259.56 702.33,-263.96 702.12,-268.37 701.11,-277.16 700.10,-285.95 698.88,-294.48 697.66,-303.00 696.72,-309.78 695.78,-316.56 694.56,-322.25 693.33,-327.94 691.42,-334.83 689.50,-341.71 686.88,-350.57 684.26,-359.43 681.44,-367.19 678.62,-374.94 676.66,-380.95 674.70,-386.95 672.13,-393.82 669.56,-400.68 668.00,-404.96 666.44,-409.24 663.67,-415.02 660.89,-420.81 656.95,-427.82 653.01,-434.84 651.14,-439.17 649.26,-443.51 646.54,-448.51 643.83,-453.52 640.33,-459.55 636.84,-465.58 634.44,-470.02 632.03,-474.47 629.74,-478.82 627.44,-483.17 623.22,-489.94 619.00,-496.70 615.40,-503.00 611.80,-509.30 608.98,-513.47 606.16,-517.64 600.95,-524.76 595.74,-531.87 592.88,-535.33 590.03,-538.79 586.54,-542.69 583.06,-546.59 579.81,-550.48 576.56,-554.38 571.94,-558.64 567.32,-562.91 563.72,-566.18 560.13,-569.45 556.32,-572.91 552.52,-576.37 547.50,-580.07 542.48,-583.76 538.09,-586.78 533.70,-589.79 527.08,-592.96 520.46,-596.12 515.28,-598.48 510.10,-600.84 503.64,-603.17 497.18,-605.51 492.44,-607.19 487.71,-608.88 481.20,-610.39 474.70,-611.89 469.81,-613.03 464.93,-614.17 458.43,-615.01 451.94,-615.85 447.34,-616.36 442.73,-616.87 433.73,-617.28 424.73,-617.70 420.34,-617.71 415.95,-617.72 410.73,-617.45 405.50,-617.18 397.94,-615.90 390.37,-614.62 384.87,-614.03 379.38,-613.43 375.07,-612.94 370.77,-612.45 366.50,-611.87 362.24,-611.29 357.36,-610.38 352.48,-609.47 346.07,-607.57 339.66,-605.66 333.85,-603.67 328.04,-601.68 323.71,-600.23 319.38,-598.78 313.73,-596.45 308.07,-594.12 304.10,-592.60 300.14,-591.07 296.14,-589.52 292.15,-587.97 288.19,-586.37 284.23,-584.77 277.97,-580.79 271.71,-576.82 267.04,-573.68 262.37,-570.55 257.19,-566.90 252.01,-563.24 246.67,-558.60 241.34,-553.96 237.45,-550.98 233.56,-548.00 229.34,-544.68 225.12,-541.37 219.85,-535.76 214.58,-530.15 210.90,-526.28 207.22,-522.42 202.82,-516.73 198.42,-511.05 195.15,-506.42 191.87,-501.80 188.23,-496.01 184.59,-490.23 182.10,-486.51 179.61,-482.79 174.84,-474.61 170.08,-466.43 167.84,-462.41 165.60,-458.38 163.35,-453.29 161.10,-448.20 158.59,-442.37 156.08,-436.54 153.74,-428.35 151.40,-420.16 149.73,-412.77 148.07,-405.37 146.91,-401.05 145.74,-396.72 144.29,-391.18 142.83,-385.63 141.32,-379.22 139.81,-372.82 138.48,-364.49 137.15,-356.16 136.08,-349.70 135.02,-343.23 134.03,-334.91 133.03,-326.59 131.99,-320.42 130.95,-314.26 129.85,-306.60 128.74,-298.94 127.74,-290.83 126.74,-282.72 125.76,-276.22 124.78,-269.72 123.93,-261.35 123.07,-252.99 122.13,-246.74 121.20,-240.49 120.24,-232.79 119.28,-225.10 118.25,-219.57 117.23,-214.04 115.89,-208.51 114.55,-202.99 113.21,-195.43 111.86,-187.88 110.35,-183.06 108.85,-178.23 106.98,-171.56 105.10,-164.88 103.07,-160.30 101.03,-155.73 96.74,-146.34 92.44,-136.95 89.90,-131.62 87.37,-126.29 84.25,-117.76 81.12,-109.24 77.40,-101.38 73.68,-93.52 71.77,-89.28 69.87,-85.04 66.95,-78.26 64.04,-71.49 61.81,-67.53 59.58,-63.57 54.19,-55.18 48.79,-46.79 43.94,-40.80 39.09,-34.80 35.15,-29.88 31.21,-24.96 27.81,-21.05 24.42,-17.14 20.13,-11.59 15.84,-6.05 11.88,-0.16 7.91,5.71 7.11,6.58 6.31,7.44 5.33,8.09 4.35,8.74 3.24,9.13 2.13,9.52 0.96,9.64 -0.20,9.76 -1.37,9.59 -2.53,9.42 -3.62,8.98 -4.72,8.54 -5.67,7.85 -6.62,7.16 -7.39,6.27 -8.15,5.37 -8.67,4.31 -9.20,3.26 -9.45,2.11 -9.71,0.96 -9.69,-0.20 -9.66,-1.38 -9.35,-2.52 -9.05,-3.65 -8.48,-4.68 -7.91,-5.71 -7.91,-5.71 L -7.91,-5.71 Z"></path>
	</g>
</svg>
