<svg
	version="1.1"
	xmlns="http://www.w3.org/2000/svg"
	viewBox="0 0 872 580.0000000000001"
	width="872"
	height="580.0000000000001">
	<!-- svg-source:excalidraw -->

	<defs>
		<style class="style-fonts">
			@font-face {
				font-family: 'Virgil';
				src: url('https://excalidraw.com/Virgil.woff2');
			}
			@font-face {
				font-family: 'Cascadia';
				src: url('https://excalidraw.com/Cascadia.woff2');
			}
		</style>
	</defs>
	<rect x="0" y="0" width="872" height="580.0000000000001" fill="#ffffff"></rect>
	<g transform="translate(52 146) rotate(0 384 144.00000000000006)" stroke="none">
		<path
			d="M0.14 -0.65 L6.16 -3.4 L15 -8.48 L37.92 -18.43 L51.33 -24.16 L63.32 -33.55 L86.15 -43.88 L112.74 -50.36 L125.22 -54.61 L153.34 -67.18 L169.06 -72.05 L197 -81.1 L208.96 -84.65 L216.38 -85.94 L228.91 -89.63 L254.86 -96.29 L283.71 -102.94 L302.6 -109.49 L328.85 -115.29 L344.47 -121.61 L372.62 -124.13 L388.14 -127.48 L412.04 -129.68 L431.99 -130.69 L446.86 -132.89 L465.17 -133.57 L481.62 -137.46 L505.58 -137.21 L513.58 -137.86 L535.85 -135.42 L552.76 -137.29 L565.38 -136.8 L573.94 -135.71 L580.32 -132.68 L582.62 -133.82 L599.57 -133.14 L609.08 -131.09 L610.75 -129.02 L620.34 -129.71 L628.28 -127.88 L644.18 -120.65 L665.3 -114.07 L671.1 -113.61 L691.69 -104.67 L694.37 -103.06 L704.11 -99.51 L718.03 -86.19 L735.95 -77.17 L738.83 -72.96 L751.35 -54.99 L758.3 -48.09 L761.2 -41.04 L764.71 -41.02 L765.16 -32.16 L777.07 -11.97 L781.62 0.07 L789.16 16.11 L789.72 23.32 L795.49 43.51 L803.35 66.51 L805.34 75.77 L807.16 89.8 L806.72 97.69 L806.55 102.61 L808.4 129.31 L809.66 143.61 L809.91 147.92 L809.38 158.71 L807.51 172.06 L805.36 185.1 L802.22 195.54 L800 201.18 L797.81 205.38 L798.43 212.61 L794.8 215.89 L792.55 216.33 L782.47 222.61 L777.01 228.5 L764.82 246.33 L761.2 254.53 L750.63 263.09 L743.27 273.09 L733.43 288.19 L718.1 304.11 L713.47 312.17 L705.36 318.75 L697.78 326.82 L689.42 335.42 L682.13 345.18 L677.43 351.8 L663.03 369.55 L659.29 372.8 L639.76 391.48 L635.65 394.59 L634.34 395.74 L621.89 402.6 L611.54 410.4 L598.17 417.48 L580.87 420.73 L569.37 423.15 L552.6 423.29 L539.14 422.79 L517.76 423.86 L499.88 424.81 L468.11 419.5 L452.73 416.88 L434.18 418.48 L405.58 415.91 L387.23 410.36 L355.08 408.08 L339.28 405.93 L322.63 402.81 L313.11 401.23 L282.36 392.75 L266.22 385.55 L239.18 377.84 L224.9 373.43 L196.72 359.23 L184.16 354.68 L163.39 345.34 L153.77 340.33 L126.32 327.85 L118.24 324.68 L99.41 311.67 L86.86 301.26 L71.31 286.97 L65.64 280.88 L47.41 263.16 L37.34 251.57 L25.85 236.92 L15.5 226.63 L1.53 208.17 L-3.63 200.6 L-15.91 184.06 L-17.03 177.27 L-26.06 159.02 L-30.91 153.69 L-37.8 136.72 L-38.77 128.15 L-39.22 120.07 L-39.34 102.19 L-41.67 93.25 L-40.59 78.6 L-41.77 69.67 L-43.75 61.44 L-43.37 57.99 L-41.31 47.98 L-37.58 30.14 L-35 14.78 L-36.74 11.29 L-37.79 3.63 L-34.47 -2.15 L-33.92 -6.44 L-31.62 -8.52 L-30.87 -13.12 L-28.3 -12.88 L-27.37 -12.87 L-21.86 -15.08 L-11.39 -12.91 L-8.91 -11.69 L-6.18 -9.18 L2.7 -8.05 L5.8 -6.4 L7.86 -6.24 L6.81 -4.02 L10.22 -7.09 L1.86 1.75"
			stroke="none"
			stroke-width="0"
			fill="#a5d8ff"
			fill-rule="evenodd"></path>
		<path
			fill="#1e1e1e"
			d="M -2.94,-5.60 Q -2.94,-5.60 8.04,-11.22 19.03,-16.84 27.20,-20.92 35.36,-25.01 42.22,-28.60 49.08,-32.20 59.60,-37.07 70.13,-41.95 81.67,-46.36 93.21,-50.77 102.17,-53.78 111.14,-56.78 122.93,-60.89 134.73,-65.01 143.70,-68.44 152.68,-71.88 164.73,-75.70 176.79,-79.51 185.90,-82.27 195.02,-85.02 200.45,-87.18 205.89,-89.34 212.26,-91.48 218.64,-93.62 228.86,-96.53 239.09,-99.44 251.06,-102.38 263.04,-105.32 273.77,-108.22 284.51,-111.12 297.26,-114.09 310.02,-117.05 319.37,-119.41 328.73,-121.77 340.97,-123.96 353.22,-126.15 363.01,-127.63 372.80,-129.12 383.82,-130.88 394.83,-132.65 405.36,-133.98 415.89,-135.31 424.33,-136.44 432.78,-137.57 442.34,-138.07 451.90,-138.57 459.77,-139.44 467.64,-140.31 478.70,-140.62 489.75,-140.93 496.70,-141.37 503.64,-141.81 512.37,-141.76 521.11,-141.72 530.56,-141.67 540.02,-141.62 546.91,-141.90 553.80,-142.18 559.04,-142.59 564.27,-142.99 569.28,-142.76 574.28,-142.52 583.27,-142.05 592.25,-141.57 596.85,-141.52 601.44,-141.46 609.17,-140.22 616.90,-138.98 627.50,-136.40 638.10,-133.82 646.31,-130.82 654.52,-127.82 660.20,-126.34 665.89,-124.85 673.79,-121.38 681.68,-117.91 687.03,-115.54 692.37,-113.18 696.90,-111.19 701.42,-109.20 708.07,-105.05 714.71,-100.91 721.50,-96.02 728.29,-91.14 733.28,-87.45 738.27,-83.77 743.98,-76.92 749.68,-70.08 753.79,-65.95 757.90,-61.82 761.32,-57.38 764.75,-52.94 768.80,-46.69 772.86,-40.45 775.82,-33.40 778.77,-26.35 781.77,-19.08 784.76,-11.81 787.70,-4.67 790.63,2.46 792.80,7.19 794.98,11.93 797.23,20.71 799.48,29.50 802.00,39.51 804.52,49.52 806.37,56.68 808.21,63.84 809.64,71.06 811.08,78.28 812.49,83.41 813.90,88.55 815.15,101.94 816.40,115.34 816.67,122.97 816.95,130.61 816.81,136.03 816.67,141.45 816.70,146.77 816.72,152.10 816.17,158.24 815.61,164.39 815.44,170.04 815.27,175.68 813.96,182.36 812.64,189.04 811.69,193.56 810.74,198.08 809.67,203.85 808.60,209.61 806.58,213.56 804.57,217.51 800.10,222.99 795.64,228.46 788.36,236.53 781.09,244.59 777.15,249.26 773.21,253.92 769.31,258.57 765.42,263.23 761.27,267.75 757.13,272.27 751.81,278.13 746.49,283.98 739.93,291.58 733.37,299.17 729.01,304.79 724.64,310.41 720.27,315.05 715.91,319.69 712.79,323.65 709.67,327.61 705.87,331.88 702.07,336.14 698.19,340.29 694.30,344.43 691.02,348.00 687.74,351.57 682.13,357.54 676.53,363.51 673.13,367.70 669.72,371.90 662.59,378.60 655.45,385.30 651.61,389.52 647.76,393.74 640.85,400.10 633.94,406.45 628.21,409.86 622.48,413.26 616.57,416.36 610.67,419.47 602.23,421.88 593.78,424.30 586.80,425.97 579.81,427.64 572.71,428.91 565.62,430.18 558.25,430.74 550.88,431.30 540.80,431.16 530.73,431.01 521.89,430.83 513.06,430.64 499.81,429.31 486.57,427.98 476.43,426.78 466.30,425.58 457.57,425.03 448.85,424.49 435.72,423.06 422.60,421.63 412.46,420.42 402.32,419.22 388.25,417.54 374.17,415.86 363.44,413.96 352.71,412.06 343.68,410.69 334.65,409.32 327.80,408.46 320.95,407.61 309.28,404.68 297.61,401.75 288.51,398.71 279.41,395.67 267.54,391.49 255.67,387.31 246.70,384.39 237.72,381.48 225.66,376.71 213.61,371.94 204.50,368.20 195.39,364.45 185.67,359.93 175.96,355.42 168.52,352.50 161.08,349.58 150.22,344.15 139.36,338.71 133.06,336.19 126.77,333.68 118.19,328.82 109.61,323.96 102.39,318.90 95.16,313.83 86.95,307.63 78.74,301.44 73.64,297.20 68.54,292.96 60.86,285.22 53.19,277.48 47.53,271.24 41.88,265.00 35.52,257.72 29.17,250.44 24.06,245.26 18.96,240.09 12.76,232.42 6.57,224.75 2.01,219.38 -2.54,214.02 -7.30,206.84 -12.06,199.67 -15.59,194.45 -19.12,189.23 -22.78,181.51 -26.43,173.80 -29.38,168.49 -32.34,163.18 -35.31,156.05 -38.27,148.92 -40.42,143.57 -42.58,138.22 -44.26,133.61 -45.94,129.00 -46.70,121.68 -47.46,114.36 -47.87,108.54 -48.28,102.71 -48.85,95.94 -49.41,89.16 -49.84,83.11 -50.26,77.07 -50.60,72.19 -50.93,67.30 -50.82,59.91 -50.70,52.51 -49.69,45.77 -48.68,39.03 -47.45,31.53 -46.21,24.03 -46.11,15.87 -46.00,7.71 -44.70,0.59 -43.40,-6.52 -42.30,-11.02 -41.20,-15.52 -36.22,-19.92 -31.24,-24.32 -24.07,-25.07 -16.89,-25.82 -9.95,-24.03 -3.02,-22.24 2.15,-21.36 7.33,-20.49 11.97,-18.54 16.62,-16.58 17.72,-15.48 18.82,-14.38 19.63,-13.04 20.44,-11.70 20.90,-10.21 21.36,-8.72 21.46,-7.17 21.55,-5.61 21.27,-4.08 20.98,-2.54 20.34,-1.12 19.70,0.29 18.74,1.52 17.77,2.75 16.55,3.71 15.32,4.67 13.89,5.31 12.47,5.95 10.93,6.23 9.40,6.51 7.84,6.42 6.29,6.32 4.80,5.85 3.31,5.39 1.97,4.58 0.64,3.77 6.00,5.71 11.35,7.64 9.50,8.59 7.64,9.55 5.58,9.86 3.51,10.18 1.46,9.82 -0.59,9.45 -2.42,8.46 -4.26,7.46 -5.67,5.92 -7.09,4.39 -7.95,2.49 -8.80,0.58 -9.00,-1.49 -9.20,-3.57 -8.73,-5.60 -8.26,-7.63 -7.16,-9.41 -6.06,-11.19 -4.46,-12.52 -2.85,-13.85 -0.90,-14.60 1.04,-15.35 3.12,-15.44 5.21,-15.53 7.22,-14.95 9.22,-14.37 10.94,-13.17 12.65,-11.98 13.89,-10.31 15.14,-8.63 15.78,-6.64 16.42,-4.65 16.40,-2.57 16.38,-0.48 15.69,1.48 15.00,3.45 13.71,5.10 12.43,6.75 10.69,7.90 8.94,9.05 6.93,9.58 4.91,10.12 2.82,9.98 0.74,9.84 -1.18,9.05 -3.11,8.25 -4.69,6.88 -6.26,5.51 -7.32,3.71 -8.37,1.91 -8.80,-0.13 -9.22,-2.17 -8.97,-4.25 -8.72,-6.32 -7.82,-8.20 -6.92,-10.09 -5.47,-11.59 -4.01,-13.08 -4.02,-13.08 -4.02,-13.08 6.30,-14.83 16.62,-16.59 17.72,-15.48 18.82,-14.38 19.63,-13.04 20.44,-11.71 20.90,-10.22 21.36,-8.73 21.46,-7.17 21.55,-5.61 21.27,-4.08 20.98,-2.54 20.34,-1.12 19.70,0.29 18.74,1.52 17.78,2.75 16.55,3.71 15.32,4.67 13.89,5.31 12.47,5.95 10.94,6.23 9.40,6.51 7.84,6.42 6.29,6.32 4.80,5.85 3.31,5.39 1.97,4.58 0.64,3.77 1.79,3.89 2.94,4.00 -1.56,3.26 -6.06,2.52 -10.22,0.76 -14.37,-0.99 -18.74,-0.85 -23.11,-0.71 -24.79,3.91 -26.48,8.54 -26.86,12.90 -27.24,17.26 -27.87,21.73 -28.50,26.19 -29.10,33.73 -29.70,41.27 -30.31,48.26 -30.92,55.26 -31.81,61.05 -32.69,66.84 -32.79,71.53 -32.88,76.22 -32.73,81.87 -32.57,87.53 -31.78,94.75 -31.00,101.97 -30.92,107.44 -30.85,112.92 -30.47,118.65 -30.09,124.38 -29.10,128.82 -28.11,133.26 -26.67,138.39 -25.23,143.51 -22.45,150.21 -19.67,156.91 -17.24,162.49 -14.80,168.08 -11.17,175.17 -7.54,182.26 -4.75,187.53 -1.97,192.79 2.70,199.46 7.38,206.14 11.50,211.70 15.63,217.27 21.75,224.50 27.87,231.74 32.80,237.28 37.73,242.82 44.17,249.92 50.60,257.02 56.10,262.97 61.60,268.93 69.35,276.35 77.11,283.78 81.24,288.16 85.38,292.55 93.49,298.53 101.60,304.51 108.42,309.15 115.25,313.79 123.49,318.24 131.74,322.70 137.97,325.85 144.20,329.00 154.69,334.20 165.19,339.41 172.82,342.57 180.44,345.74 189.95,350.13 199.45,354.52 208.51,358.21 217.56,361.89 229.30,366.48 241.05,371.08 250.18,373.96 259.31,376.84 271.11,380.89 282.92,384.93 291.63,387.71 300.35,390.49 311.66,393.14 322.97,395.79 329.60,397.24 336.24,398.69 345.40,400.04 354.57,401.39 365.00,403.18 375.43,404.97 389.50,406.56 403.57,408.16 413.67,409.24 423.76,410.32 436.60,411.57 449.43,412.81 458.49,413.16 467.55,413.51 477.60,414.40 487.66,415.28 500.29,416.17 512.91,417.06 521.65,416.68 530.39,416.30 540.01,415.70 549.63,415.10 556.15,414.59 562.67,414.08 569.30,412.83 575.93,411.57 582.31,410.02 588.69,408.46 595.45,405.98 602.21,403.50 607.73,400.51 613.26,397.51 618.18,394.68 623.10,391.84 629.54,387.03 635.98,382.22 640.09,378.31 644.20,374.40 650.37,367.38 656.53,360.36 660.07,356.61 663.61,352.87 668.94,345.57 674.26,338.28 677.75,334.99 681.24,331.70 685.17,327.83 689.11,323.95 692.87,320.17 696.64,316.39 700.50,312.23 704.36,308.08 708.30,304.46 712.25,300.84 716.60,295.14 720.96,289.43 726.81,281.20 732.67,272.97 737.60,265.96 742.54,258.94 746.29,254.82 750.04,250.69 753.91,245.83 757.77,240.97 761.26,236.77 764.76,232.57 769.59,225.15 774.42,217.73 779.39,213.59 784.36,209.46 787.30,203.91 790.24,198.36 792.67,191.84 795.10,185.31 796.32,180.06 797.54,174.81 797.92,168.63 798.31,162.44 799.06,156.99 799.81,151.53 800.21,145.78 800.60,140.03 801.33,135.64 802.06,131.25 801.67,123.92 801.28,116.58 800.01,104.20 798.73,91.81 797.86,86.37 796.99,80.93 795.78,74.09 794.56,67.25 792.88,60.28 791.20,53.30 788.12,43.59 785.04,33.87 782.24,26.00 779.44,18.14 777.85,13.45 776.26,8.76 773.03,1.84 769.80,-5.06 766.42,-11.92 763.04,-18.77 759.11,-26.02 755.18,-33.27 752.98,-38.29 750.79,-43.30 748.49,-47.15 746.20,-50.99 742.26,-55.54 738.32,-60.08 733.21,-65.52 728.11,-70.96 723.88,-74.54 719.66,-78.12 712.90,-82.22 706.14,-86.32 699.84,-89.77 693.53,-93.22 689.25,-95.59 684.96,-97.95 680.38,-100.42 675.81,-102.88 668.48,-105.36 661.16,-107.83 655.39,-109.53 649.61,-111.22 641.68,-112.99 633.75,-114.76 623.01,-117.17 612.28,-119.58 606.30,-121.48 600.33,-123.38 595.30,-123.90 590.28,-124.42 584.54,-125.20 578.79,-125.98 571.53,-127.48 564.27,-128.98 559.04,-129.38 553.82,-129.78 546.94,-130.04 540.05,-130.30 530.62,-130.20 521.19,-130.10 512.54,-129.93 503.89,-129.77 496.99,-129.92 490.09,-130.07 479.40,-129.72 468.71,-129.37 460.58,-128.68 452.45,-127.99 443.33,-127.52 434.20,-127.04 425.72,-125.89 417.24,-124.73 406.90,-123.39 396.55,-122.06 385.50,-120.24 374.46,-118.43 364.81,-116.91 355.17,-115.39 343.33,-113.21 331.50,-111.04 322.07,-108.54 312.64,-106.05 300.14,-102.99 287.64,-99.94 276.84,-96.80 266.04,-93.67 254.40,-90.52 242.76,-87.38 232.60,-84.08 222.44,-80.78 216.02,-79.13 209.59,-77.49 203.86,-76.15 198.12,-74.81 189.08,-72.05 180.04,-69.29 168.31,-65.54 156.58,-61.79 147.47,-58.24 138.36,-54.69 126.54,-50.49 114.73,-46.28 106.02,-43.25 97.31,-40.22 86.21,-35.83 75.11,-31.45 64.82,-26.45 54.54,-21.45 47.62,-18.05 40.70,-14.66 32.68,-10.40 24.66,-6.15 13.80,-0.27 2.94,5.60 2.23,5.87 1.52,6.14 0.76,6.23 0.00,6.33 -0.75,6.24 -1.50,6.15 -2.22,5.88 -2.93,5.61 -3.56,5.17 -4.19,4.74 -4.70,4.17 -5.20,3.60 -5.56,2.92 -5.91,2.25 -6.10,1.51 -6.28,0.77 -6.28,0.00 -6.28,-0.75 -6.10,-1.49 -5.92,-2.23 -5.56,-2.91 -5.21,-3.59 -4.70,-4.16 -4.20,-4.73 -3.57,-5.16 -2.94,-5.60 -2.94,-5.60 L -2.94,-5.60 Z"></path>
	</g>
</svg>
