<svg
	version="1.1"
	xmlns="http://www.w3.org/2000/svg"
	viewBox="0 0 783.3333333333335 610.0000000000002"
	width="783.3333333333335"
	height="610.0000000000002">
	<!-- svg-source:excalidraw -->

	<defs>
		<style class="style-fonts">
			@font-face {
				font-family: 'Virgil';
				src: url('https://excalidraw.com/Virgil.woff2');
			}
			@font-face {
				font-family: 'Cascadia';
				src: url('https://excalidraw.com/Cascadia.woff2');
			}
		</style>
	</defs>
	<rect x="0" y="0" width="783.3333333333335" height="610.0000000000002" fill="#ffffff"></rect>
	<g
		transform="translate(76.66666666666652 510.0000000000001) rotate(0 315.0000000000002 -205.00000000000006)"
		stroke="none">
		<path
			d="M-1.72 -1 L3.01 -4.38 L0.98 -8.43 L2.37 -16.41 L4.44 -24.05 L5.04 -31.34 L8.08 -36.41 L9.07 -53.49 L7.46 -57.77 L7.52 -63.96 L8.49 -68.52 L7.16 -85.55 L7.44 -91.21 L5.79 -106.76 L7.64 -114.29 L5.34 -121.32 L4.97 -123.67 L7.2 -132.24 L0.79 -149.21 L1.6 -156.2 L3.04 -157.55 L-1.35 -176.03 L-2.62 -179.91 L-8.48 -186.25 L-7.99 -191.46 L-12.74 -198.19 L-17.58 -215.91 L-21.13 -227.31 L-25.12 -236.25 L-30.74 -243.45 L-34.63 -249.82 L-36.98 -252.57 L-44 -270.54 L-46 -277.22 L-48.99 -286.26 L-52.26 -290.31 L-55.41 -303.4 L-57.63 -308.23 L-64.97 -320.08 L-65.85 -324.15 L-65.66 -336.78 L-67.4 -339.2 L-67.56 -351.24 L-66.84 -357.94 L-66.85 -369.31 L-67.5 -373.77 L-63.76 -387.68 L-60.12 -391.97 L-59.97 -395.6 L-55.72 -407.99 L-53.23 -412.48 L-49.44 -425.63 L-42.24 -434.95 L-39.59 -441.49 L-34.5 -447.58 L-29.47 -452.54 L-24.2 -459.3 L-17.34 -460.56 L-4.56 -471.62 L6.02 -475.45 L12.71 -477.07 L27.5 -484.15 L37.14 -488.54 L52.16 -493.52 L62.84 -497.08 L69.39 -496.33 L79.62 -500.08 L90.96 -498.38 L97.87 -499.97 L103.66 -501.16 L106.56 -498.86 L118.64 -496.53 L133.03 -497.24 L145.43 -493.6 L152.3 -491.06 L167.01 -488.94 L172.66 -486.18 L188.95 -486.16 L194.3 -482.85 L203.62 -479.22 L214.66 -476.75 L230.21 -472.68 L235.78 -472.41 L241.82 -470.78 L260.72 -465.79 L269.68 -462.34 L279.77 -462.58 L298.73 -458.78 L303.16 -456.81 L314.03 -454.09 L334.37 -452.21 L335.91 -450.41 L347.68 -450.21 L363.72 -445.34 L368.83 -447.48 L373.82 -442.18 L376.38 -443.95 L392.53 -440.6 L403.48 -438.79 L406.92 -435.05 L416.07 -436.64 L425.8 -431.03 L432.45 -431.19 L448.33 -429.52 L460.63 -422.91 L476.01 -421.38 L481.86 -420.87 L492.05 -417.43 L509.75 -413.83 L517.14 -407.71 L535.16 -404.9 L546.55 -399.3 L563.77 -391.56 L573.22 -389.2 L581.15 -386.11 L600.49 -376.75 L604.14 -373.85 L610.26 -366.35 L626.83 -357.8 L631.67 -349.4 L643.44 -340.87 L649.81 -331.68 L661.88 -316.58 L663.21 -308.43 L671.33 -293.91 L676.78 -285.25 L684.42 -265.97 L687.57 -254.79 L690.61 -231.14 L691.63 -218.25 L694.8 -192.37 L695.85 -179.22 L695.17 -169.42 L697.7 -156.96 L697.36 -151.51 L692.31 -127.33 L689.58 -117.36 L685.88 -94.77 L682.88 -87.12 L673.84 -66.08 L663.97 -48.02 L656.19 -39.76 L647.72 -30.94 L634.88 -12.65 L624.23 -5.59 L612.42 9.79 L602.43 15.97 L587.46 27.11 L577.37 30.87 L571.69 32.48 L551.58 42.99 L544.47 47.15 L538.85 46.52 L525.56 55.13 L517.97 55.72 L500.59 63.84 L492.12 66.29 L483.37 66.12 L468.37 74.87 L449.39 80 L440.63 83.11 L427.37 85.16 L407.59 88.04 L398.2 86.9 L375.85 90.59 L356.89 88.4 L348.84 89.73 L340.6 89.81 L319.23 88.98 L313.5 88.24 L294.04 91.74 L286.14 89.33 L271.32 89.9 L263.21 88.37 L244.18 87.24 L235.74 87.39 L223.15 81.17 L218.7 80.29 L204.5 76.95 L196.73 70.59 L193.28 69.94 L179.31 61.04 L176.47 61.35 L164.24 54.87 L152.72 48.03 L148.38 47.89 L142.64 46.03 L133.6 39.72 L127.82 37.49 L119.71 35 L113.35 30.39 L107.06 30.85 L107.35 29.7 L100.85 26.07 L87.84 25.13 L87.29 26.19 L80.33 27.15 L73.6 26.82 L69.79 25.19 L62.51 25.9 L61.34 26.77 L58.86 26.3 L57.32 26.16 L51.42 27.91 L51.37 27.72 L48.19 28.89 L44.55 32.99 L40.9 34.6 L33.88 40.49 L33.83 41.84 L25.16 45.26 L23.86 45.02 L19.67 47.34 L15.56 46.43 L14.15 47.26 L8.31 48.21 L6.84 44.76 L1.17 43.26 L-1.23 43.02 L-2.19 40.33 L-7.8 38.14 L-7.1 37.82 L-9.32 34.14 L-10.3 33.98 L-13.47 28.19 L-15.7 27.6 L-17.1 18.45 L-19.77 16.87 L-18.05 8.05 L-19.49 8.08 L-19.79 0.44 L-20.82 -1.95 L-18.75 -1.99 L-18.7 -3.01 L-17.03 -5.41 L-15.45 -6.56 L-13.68 -9.46 L-15.52 -10.42 L-14.05 -8.6 L-13.64 -11.46 L-9.59 -10.08 L-9.51 -7.32 L-8.27 -8.64 L-7.82 -6.93 L-4.15 -7.59 L-4.66 -5.78 L-3.8 -7.05 L-3.99 -3.5 L-1.23 -3.27 L-0.51 -2.52 L0.15 1.78 L1.42 4.12 L3.73 2.02 L1.83 0.82"
			stroke="none"
			stroke-width="0"
			fill="#a5d8ff"
			fill-rule="evenodd"></path>
		<path
			fill="#1e1e1e"
			d="M -10.03,-2.15 Q -10.03,-2.15 -9.17,-6.64 -8.31,-11.13 -7.24,-18.77 -6.17,-26.41 -5.03,-35.43 -3.89,-44.46 -3.81,-51.14 -3.72,-57.83 -3.61,-66.95 -3.51,-76.07 -3.52,-80.72 -3.52,-85.36 -3.27,-91.80 -3.02,-98.24 -3.34,-102.87 -3.66,-107.50 -4.13,-113.97 -4.59,-120.43 -5.78,-129.59 -6.97,-138.74 -7.77,-143.75 -8.57,-148.75 -10.18,-156.95 -11.79,-165.15 -13.84,-171.79 -15.90,-178.44 -18.23,-184.94 -20.57,-191.43 -22.37,-197.29 -24.17,-203.15 -26.31,-208.98 -28.44,-214.82 -30.65,-220.21 -32.86,-225.61 -36.54,-232.98 -40.22,-240.34 -44.25,-248.79 -48.29,-257.24 -50.56,-262.10 -52.84,-266.97 -54.85,-270.91 -56.85,-274.85 -60.47,-283.01 -64.09,-291.18 -65.68,-295.20 -67.27,-299.22 -69.08,-303.55 -70.88,-307.87 -72.29,-312.28 -73.69,-316.68 -74.88,-321.42 -76.07,-326.16 -76.99,-335.47 -77.91,-344.79 -78.12,-352.98 -78.34,-361.18 -77.16,-370.83 -75.98,-380.49 -74.95,-384.93 -73.92,-389.38 -71.93,-396.93 -69.95,-404.49 -68.29,-408.84 -66.63,-413.19 -64.60,-417.81 -62.57,-422.43 -59.48,-428.09 -56.39,-433.75 -54.22,-437.82 -52.04,-441.90 -47.28,-448.73 -42.51,-455.56 -38.83,-459.15 -35.14,-462.73 -26.38,-468.79 -17.62,-474.86 -12.66,-477.65 -7.69,-480.44 -3.57,-482.80 0.55,-485.16 7.32,-487.98 14.08,-490.80 19.04,-493.03 24.00,-495.25 31.34,-497.58 38.67,-499.91 44.37,-501.71 50.08,-503.51 54.98,-504.78 59.88,-506.05 64.64,-506.99 69.40,-507.93 75.08,-508.61 80.76,-509.29 85.59,-509.68 90.43,-510.08 94.77,-510.32 99.11,-510.56 105.75,-510.07 112.39,-509.59 118.27,-508.61 124.16,-507.64 130.75,-506.38 137.35,-505.13 142.11,-504.45 146.88,-503.77 153.26,-502.30 159.64,-500.83 169.96,-498.59 180.28,-496.34 185.44,-495.15 190.60,-493.97 199.70,-491.96 208.81,-489.94 215.36,-487.85 221.91,-485.75 226.42,-484.79 230.93,-483.84 235.33,-482.81 239.72,-481.79 246.52,-479.75 253.31,-477.71 258.80,-476.34 264.29,-474.97 268.89,-474.22 273.49,-473.47 280.90,-471.75 288.31,-470.03 293.42,-469.27 298.53,-468.50 303.72,-467.56 308.91,-466.62 316.33,-464.88 323.76,-463.15 328.38,-462.42 332.99,-461.69 337.29,-461.19 341.59,-460.69 348.59,-458.86 355.59,-457.03 363.55,-455.79 371.50,-454.56 378.50,-453.24 385.51,-451.92 390.89,-450.78 396.28,-449.64 404.12,-448.46 411.96,-447.27 417.39,-445.94 422.81,-444.60 432.67,-442.40 442.53,-440.20 448.89,-438.46 455.26,-436.72 461.51,-434.95 467.77,-433.18 472.72,-431.91 477.67,-430.65 482.27,-429.55 486.86,-428.45 493.83,-426.35 500.79,-424.24 506.60,-422.46 512.41,-420.68 520.02,-417.91 527.64,-415.15 533.89,-413.18 540.14,-411.20 548.27,-407.63 556.41,-404.05 562.43,-401.89 568.44,-399.74 573.60,-397.59 578.75,-395.43 585.62,-391.67 592.48,-387.90 596.77,-386.02 601.06,-384.14 605.52,-381.65 609.97,-379.15 615.98,-374.57 622.00,-369.98 626.59,-366.60 631.18,-363.22 636.74,-357.87 642.29,-352.52 646.46,-348.42 650.63,-344.32 655.31,-337.96 660.00,-331.61 663.47,-326.75 666.95,-321.88 670.57,-314.56 674.18,-307.23 677.11,-301.80 680.03,-296.36 682.92,-287.73 685.82,-279.10 688.18,-272.35 690.53,-265.61 692.57,-255.64 694.61,-245.68 695.89,-237.89 697.18,-230.10 698.46,-219.42 699.75,-208.74 700.66,-200.66 701.57,-192.58 702.23,-185.82 702.88,-179.05 703.29,-172.63 703.69,-166.20 704.11,-161.56 704.52,-156.92 703.24,-148.11 701.96,-139.30 701.04,-132.68 700.13,-126.06 697.74,-117.08 695.35,-108.10 693.23,-101.16 691.11,-94.22 687.30,-85.80 683.48,-77.37 678.89,-68.36 674.29,-59.34 670.50,-52.70 666.71,-46.07 663.32,-40.52 659.92,-34.97 653.95,-27.58 647.97,-20.19 642.90,-14.54 637.82,-8.89 631.36,-2.54 624.90,3.80 619.57,8.52 614.24,13.24 607.33,18.24 600.41,23.24 594.94,27.02 589.46,30.80 585.04,33.86 580.61,36.91 573.61,40.37 566.62,43.84 561.29,46.74 555.96,49.64 546.12,53.85 536.28,58.07 531.66,60.11 527.04,62.16 520.40,64.50 513.75,66.85 508.90,68.93 504.05,71.02 499.12,72.77 494.19,74.53 487.00,76.50 479.81,78.48 471.53,80.57 463.26,82.67 456.81,84.50 450.35,86.33 444.73,87.90 439.12,89.46 430.36,90.64 421.60,91.83 415.04,92.93 408.48,94.04 399.71,94.46 390.94,94.89 381.50,95.27 372.05,95.66 365.44,96.15 358.83,96.64 353.44,97.07 348.04,97.50 340.29,97.42 332.53,97.35 327.02,97.63 321.50,97.92 314.04,97.82 306.58,97.73 301.17,97.97 295.77,98.22 288.49,97.84 281.22,97.45 275.73,97.51 270.24,97.57 262.49,96.68 254.74,95.79 249.22,95.36 243.70,94.94 237.47,93.75 231.24,92.57 226.58,91.58 221.92,90.59 216.01,88.80 210.11,87.00 204.93,84.92 199.74,82.84 191.26,78.93 182.79,75.02 175.10,71.09 167.41,67.15 162.37,64.53 157.33,61.92 150.54,59.19 143.75,56.45 139.17,54.14 134.59,51.83 127.37,49.05 120.15,46.27 114.84,44.38 109.53,42.50 101.64,40.57 93.75,38.65 88.92,38.36 84.09,38.08 78.72,38.12 73.34,38.16 68.14,38.25 62.94,38.34 58.96,39.89 54.97,41.45 50.91,44.41 46.85,47.38 41.94,50.23 37.04,53.08 31.83,55.50 26.63,57.92 21.43,59.04 16.23,60.15 10.95,59.95 5.67,59.74 0.38,57.89 -4.89,56.05 -9.10,53.33 -13.32,50.61 -17.21,47.11 -21.11,43.61 -23.86,39.84 -26.62,36.06 -29.04,29.67 -31.47,23.28 -32.58,17.88 -33.69,12.49 -33.56,6.22 -33.42,-0.03 -31.79,-5.49 -30.15,-10.95 -27.60,-14.85 -25.05,-18.75 -17.35,-21.66 -9.66,-24.57 -5.16,-22.63 -0.66,-20.69 3.55,-17.29 7.78,-13.90 10.25,-11.25 12.73,-8.61 13.73,-7.11 14.74,-5.62 15.35,-3.93 15.97,-2.25 16.17,-0.46 16.36,1.32 16.12,3.10 15.89,4.88 15.23,6.56 14.57,8.23 13.53,9.70 12.49,11.16 11.13,12.34 9.77,13.52 8.17,14.33 6.57,15.15 4.82,15.56 3.07,15.97 1.27,15.95 -0.52,15.92 -2.26,15.47 -4.00,15.02 -5.58,14.17 -7.16,13.31 -8.49,12.10 -9.83,10.89 -10.43,10.09 -11.03,9.30 -12.01,7.09 -12.98,4.88 -13.20,2.48 -13.42,0.07 -12.86,-2.26 -12.30,-4.61 -11.02,-6.66 -9.74,-8.70 -7.88,-10.23 -6.01,-11.76 -3.75,-12.62 -1.50,-13.47 0.91,-13.56 3.32,-13.65 5.63,-12.96 7.94,-12.28 9.92,-10.89 11.89,-9.50 13.32,-7.55 14.75,-5.61 15.48,-3.31 16.21,-1.01 16.16,1.40 16.12,3.81 15.31,6.08 14.50,8.35 13.01,10.25 11.52,12.15 9.49,13.46 7.47,14.78 5.14,15.39 2.80,15.99 0.39,15.82 -2.00,15.65 -4.23,14.72 -6.45,13.78 -8.27,12.19 -10.08,10.60 -11.28,8.51 -12.49,6.42 -12.97,4.05 -13.45,1.69 -13.14,-0.70 -12.84,-3.09 -11.79,-5.26 -10.74,-7.44 -9.05,-9.16 -7.36,-10.88 -5.21,-11.97 -3.06,-13.07 -0.67,-13.42 1.71,-13.76 4.08,-13.33 6.46,-12.90 8.57,-11.73 10.68,-10.56 11.71,-9.59 12.73,-8.61 13.73,-7.12 14.74,-5.62 15.35,-3.94 15.97,-2.25 16.17,-0.46 16.36,1.32 16.12,3.10 15.89,4.88 15.23,6.56 14.57,8.23 13.53,9.70 12.49,11.16 11.13,12.34 9.77,13.52 8.17,14.33 6.57,15.15 4.82,15.56 3.07,15.97 1.27,15.95 -0.52,15.92 -2.26,15.47 -4.00,15.02 -5.58,14.17 -7.16,13.31 -8.49,12.10 -9.82,10.90 -9.45,11.30 -9.08,11.70 -11.63,8.01 -14.17,4.33 -8.22,1.25 -2.27,-1.83 -3.89,2.91 -5.51,7.65 -4.26,12.99 -3.01,18.33 -1.04,22.24 0.93,26.14 5.86,29.40 10.79,32.65 15.56,31.86 20.32,31.07 25.55,28.32 30.77,25.57 34.78,22.92 38.79,20.28 44.03,17.51 49.27,14.74 56.14,13.76 63.01,12.77 68.33,12.90 73.65,13.03 79.66,13.27 85.66,13.51 91.92,14.31 98.18,15.12 106.60,17.11 115.02,19.10 119.38,20.95 123.74,22.79 130.19,25.96 136.65,29.13 140.62,30.76 144.59,32.39 151.74,36.02 158.90,39.65 162.78,41.60 166.67,43.54 171.86,46.13 177.05,48.72 184.64,53.11 192.23,57.51 199.79,61.44 207.35,65.37 211.48,67.35 215.61,69.33 221.11,71.08 226.60,72.82 230.72,74.15 234.83,75.47 240.23,76.73 245.63,77.98 250.94,78.79 256.25,79.59 263.45,80.10 270.66,80.60 276.30,80.93 281.95,81.25 288.85,81.51 295.75,81.76 301.16,82.00 306.56,82.24 314.00,82.12 321.44,82.01 326.94,82.26 332.44,82.50 340.08,82.33 347.71,82.15 352.98,82.36 358.25,82.56 364.71,82.51 371.17,82.47 380.44,81.59 389.72,80.71 397.94,79.67 406.16,78.63 412.52,77.79 418.88,76.94 426.99,75.04 435.10,73.15 440.62,71.97 446.13,70.80 452.34,69.19 458.54,67.58 466.53,64.59 474.51,61.59 481.52,59.12 488.53,56.64 492.96,55.43 497.39,54.22 502.54,52.35 507.69,50.47 514.06,48.00 520.42,45.54 525.37,43.77 530.32,42.01 539.62,38.83 548.92,35.64 554.41,33.10 559.90,30.55 566.34,27.23 572.77,23.90 577.41,21.49 582.04,19.08 587.37,16.03 592.69,12.98 599.15,7.91 605.61,2.84 610.72,-1.09 615.82,-5.03 621.88,-11.54 627.93,-18.05 632.77,-23.11 637.60,-28.18 642.92,-35.48 648.24,-42.78 651.88,-47.74 655.52,-52.70 659.26,-58.77 663.00,-64.84 667.10,-73.69 671.20,-82.54 674.32,-90.60 677.44,-98.66 679.61,-104.95 681.77,-111.24 683.45,-119.86 685.13,-128.47 686.29,-134.69 687.44,-140.91 688.01,-148.80 688.58,-156.68 688.85,-161.24 689.12,-165.80 689.18,-172.01 689.24,-178.21 689.08,-184.64 688.92,-191.07 687.92,-198.99 686.91,-206.92 685.20,-217.36 683.49,-227.80 682.22,-235.13 680.96,-242.46 678.50,-251.55 676.05,-260.63 673.84,-267.13 671.64,-273.63 668.32,-281.13 665.00,-288.62 662.31,-294.08 659.62,-299.53 656.04,-305.81 652.47,-312.09 649.54,-316.68 646.60,-321.27 642.24,-326.64 637.87,-332.02 634.27,-335.97 630.67,-339.91 625.45,-344.49 620.22,-349.06 616.00,-352.50 611.78,-355.93 606.08,-359.86 600.38,-363.79 596.81,-366.30 593.24,-368.81 589.18,-371.19 585.12,-373.57 578.33,-376.82 571.55,-380.06 567.15,-382.39 562.76,-384.71 556.81,-387.08 550.86,-389.44 542.88,-391.99 534.89,-394.54 528.76,-396.47 522.64,-398.39 514.66,-400.28 506.69,-402.17 501.37,-403.82 496.05,-405.48 488.86,-406.95 481.67,-408.42 477.01,-409.72 472.35,-411.02 467.56,-412.40 462.76,-413.78 456.60,-415.21 450.45,-416.65 444.14,-417.95 437.84,-419.24 432.00,-420.39 426.17,-421.54 421.92,-422.52 417.68,-423.49 409.17,-425.43 400.67,-427.36 396.38,-428.28 392.08,-429.20 386.60,-430.30 381.12,-431.40 375.87,-432.51 370.62,-433.62 365.36,-435.25 360.10,-436.88 355.69,-437.81 351.28,-438.73 344.91,-440.06 338.53,-441.39 333.89,-442.30 329.26,-443.22 324.88,-444.31 320.50,-445.40 312.78,-446.44 305.05,-447.49 300.15,-448.58 295.25,-449.68 290.14,-450.69 285.03,-451.71 277.43,-452.68 269.82,-453.64 264.64,-454.71 259.46,-455.77 253.97,-457.17 248.47,-458.56 237.36,-461.20 226.26,-463.85 221.37,-465.09 216.47,-466.33 209.91,-467.91 203.34,-469.48 198.74,-470.75 194.13,-472.02 189.96,-473.02 185.79,-474.02 180.99,-475.24 176.20,-476.45 165.84,-478.58 155.48,-480.70 149.54,-481.78 143.60,-482.85 138.92,-483.65 134.25,-484.45 127.65,-485.18 121.05,-485.90 111.60,-487.11 102.16,-488.33 96.92,-488.71 91.69,-489.10 87.44,-488.95 83.19,-488.80 78.03,-488.19 72.86,-487.58 68.63,-486.99 64.40,-486.39 60.17,-485.57 55.95,-484.74 50.71,-483.11 45.46,-481.48 39.06,-478.75 32.66,-476.02 27.85,-473.85 23.04,-471.67 17.34,-468.66 11.64,-465.65 7.49,-463.29 3.33,-460.94 -0.66,-458.66 -4.65,-456.38 -9.64,-452.51 -14.63,-448.63 -19.58,-444.55 -24.53,-440.46 -28.26,-435.73 -31.99,-431.00 -34.05,-427.27 -36.11,-423.54 -38.49,-418.36 -40.86,-413.17 -43.99,-405.56 -47.12,-397.95 -48.31,-393.70 -49.50,-389.46 -51.22,-383.30 -52.94,-377.14 -53.91,-369.25 -54.88,-361.36 -54.85,-353.57 -54.82,-345.78 -54.39,-338.70 -53.95,-331.62 -52.07,-324.08 -50.18,-316.53 -46.89,-308.09 -43.60,-299.66 -40.47,-292.02 -37.34,-284.37 -35.43,-280.28 -33.51,-276.19 -31.07,-271.17 -28.62,-266.15 -24.62,-257.98 -20.62,-249.81 -17.10,-241.84 -13.58,-233.88 -11.13,-228.41 -8.68,-222.95 -5.87,-216.75 -3.06,-210.56 -0.73,-204.66 1.59,-198.75 3.60,-192.01 5.61,-185.27 7.47,-177.65 9.32,-170.03 11.23,-161.13 13.13,-152.22 13.90,-147.37 14.68,-142.52 16.39,-131.73 18.09,-120.95 18.02,-114.92 17.94,-108.88 18.25,-103.56 18.56,-98.23 18.81,-91.78 19.06,-85.32 19.03,-80.66 19.01,-76.00 18.99,-66.55 18.97,-57.10 18.37,-49.74 17.77,-42.39 17.30,-36.02 16.84,-29.66 15.37,-22.51 13.90,-15.36 13.02,-11.05 12.15,-6.75 11.09,-2.30 10.03,2.15 9.63,3.32 9.23,4.49 8.55,5.52 7.88,6.56 6.98,7.41 6.08,8.26 5.00,8.87 3.93,9.48 2.73,9.81 1.54,10.14 0.31,10.18 -0.92,10.22 -2.13,9.96 -3.34,9.70 -4.45,9.16 -5.57,8.62 -6.52,7.83 -7.47,7.03 -8.20,6.04 -8.93,5.04 -9.41,3.90 -9.88,2.75 -10.07,1.53 -10.26,0.31 -10.14,-0.91 -10.03,-2.15 -10.03,-2.15 L -10.03,-2.15 Z"></path>
	</g>
</svg>
