<svg
	version="1.1"
	xmlns="http://www.w3.org/2000/svg"
	viewBox="0 0 846.666666666667 666.6666666666669"
	width="846.666666666667"
	height="666.6666666666669">
	<!-- svg-source:excalidraw -->

	<defs>
		<style class="style-fonts">
			@font-face {
				font-family: 'Virgil';
				src: url('https://excalidraw.com/Virgil.woff2');
			}
			@font-face {
				font-family: 'Cascadia';
				src: url('https://excalidraw.com/Cascadia.woff2');
			}
		</style>
	</defs>
	<rect x="0" y="0" width="846.666666666667" height="666.6666666666669" fill="#ffffff"></rect>
	<g
		transform="translate(352.2222222222226 66.66666666666663) rotate(0 71.11111111111086 266.6666666666668)"
		stroke="none">
		<path
			d="M1.12 -1.73 L3.47 3.02 L13.11 9.19 L20.34 14.43 L34.88 24.62 L48.3 36.28 L59.05 41.61 L64.68 44.7 L82.35 54.5 L93.35 61.31 L108.02 69.08 L119.59 71.86 L121.38 74.82 L132.56 78.68 L149.39 86.04 L156.35 89.59 L175.99 95.82 L184.51 96.3 L201.2 104.07 L206.22 105.34 L222.68 110.83 L229.83 114.28 L245.28 120.28 L252.24 125.25 L269.28 129.19 L279.32 130.31 L293.68 136.25 L303.24 139.87 L320.27 146.49 L330.26 149.6 L349.55 154.2 L360.26 160.43 L368.58 160.71 L379.02 166.52 L394.71 175.7 L403.02 177.51 L405.6 182.77 L416.2 190.74 L423.43 192.77 L431.45 200.56 L440.48 207.57 L447.08 217.03 L451.54 222.74 L456.6 234.36 L461.94 240 L466.03 252.42 L468.63 254.74 L477.28 267.93 L478.45 277.41 L482.98 286.14 L481.86 292.78 L481.43 301.82 L481.63 300.47 L484.98 316.31 L484.84 321.76 L482.54 332.84 L484.41 344.52 L481.75 349.93 L480.48 365.9 L477.66 380.44 L476.61 387.37 L472.98 395.58 L467.52 415.22 L468.28 422.51 L459.38 439.9 L453.74 459.38 L450.21 470.18 L445.88 476.73 L441.22 485.01 L431.95 503 L419.71 522.34 L417.06 529 L410.84 534.05 L408.87 539.89 L402.73 548.82 L396.66 553.44 L387.83 562.81 L385.79 563.97 L374.88 574.08 L366.82 575.51 L360.48 579.74 L359.51 578.68 L352.64 579.02 L336.37 583.77 L319.92 586.63 L310.65 589.03 L302.95 586.98 L296.13 590.35 L276.21 589.93 L267.35 591.14 L247.18 591.3 L241.14 588.7 L229.84 589.22 L215.77 591.81 L210.27 589.99 L201.13 589.38 L193.74 589.16 L184.3 591.59 L181.16 591.51 L161.57 589.85 L156.62 589.99 L147.08 587.73 L135.21 587.88 L128.62 587.13 L116.31 583.94 L114.28 584.33 L98.27 580.65 L92.45 582.66 L74.63 578.14 L69.38 575.76 L59.02 576.06 L41.87 571.67 L37.62 570.37 L28.54 567.68 L15.98 565.45 L-2.52 561.86 L-11.34 561.98 L-32.97 559.1 L-43.71 556.16 L-52.12 553.55 L-62.42 552.09 L-70.1 551.03 L-90.01 546.88 L-99.2 544.87 L-117.59 536.92 L-125.38 535.83 L-135.75 533.61 L-151.63 527.05 L-161.89 526.28 L-182.64 523.6 L-191.34 519.7 L-209.68 514.67 L-218.19 511.94 L-236.61 502.03 L-244.72 498.27 L-251.64 494.94 L-270.88 485.03 L-283.81 476.35 L-294.53 473.33 L-302.26 468.45 L-314.8 454.89 L-326.52 443.79 L-331.6 440.22 L-333.14 433.75 L-335.68 419.98 L-339.92 413.81 L-341.68 401.62 L-343.46 383.85 L-342.38 379.41 L-339.41 369.86 L-336.26 352.43 L-333.74 342.65 L-332.61 335.43 L-326.16 318.51 L-316.64 303.77 L-313.16 296.51 L-305.23 277.82 L-298.69 269.43 L-288.1 257.2 L-286.21 248.42 L-275.75 233.47 L-269.74 223.19 L-258.16 205.86 L-254.09 198.28 L-248.11 191.96 L-239.13 172.58 L-233.21 167.08 L-221.96 152.01 L-219.62 140.63 L-210.06 124.39 L-206.77 121.75 L-201.68 113.71 L-188.88 87.04 L-185.02 81.41 L-183.01 77.02 L-177.75 62.62 L-175.64 59.21 L-167.43 44.86 L-163.88 36.2 L-156.9 24.2 L-156.29 20.48 L-150.9 6.87 L-146.91 3.11 L-142.75 -5.22 L-136.57 -13.37 L-130.82 -20.66 L-124.48 -26.93 L-115.83 -32.39 L-114.65 -34.77 L-105.28 -43.39 L-102.55 -45.46 L-96.4 -49.42 L-94.48 -50.36 L-90.99 -50.53 L-91.3 -52.68 L-87.22 -55.3 L-87.14 -52.6 L-82.7 -53.29 L-78.69 -55.93 L-71.89 -54.57 L-67.69 -58.13 L-65.35 -55.99 L-60.22 -56.3 L-56.04 -56.01 L-48.74 -55.39 L-46.35 -56.96 L-36.96 -55.11 L-37.52 -50.82 L-26.49 -48.81 L-20.21 -43.19 L-18.42 -42.8 L-13.05 -40.43 L-13.76 -40.38 L-9.44 -38.77 L-6.78 -34.7 L-4.7 -31.62 L-2.08 -28.76 L-0.09 -29.59 L-0.21 -25.67 L2.12 -22.93 L3.5 -23.27 L4.2 -18.86 L5.55 -18.16 L4.91 -14.68 L7.45 -11.9 L8.03 -14 L7.89 -9.93 L5.83 -7.64 L6.95 -5.75 L8.68 -5.8 L5.95 -3.41 L9.25 -2.58 L8.25 -2.37 L6.3 0.1 L5.78 1.4 L7.1 4.85 L8.52 4.7 L3.93 6.03 L-0.79 -1.71"
			stroke="none"
			stroke-width="0"
			fill="#a5d8ff"
			fill-rule="evenodd"></path>
		<path
			fill="#1e1e1e"
			d="M 4.87,-6.26 Q 4.87,-6.26 10.58,-1.74 16.29,2.78 22.42,7.67 28.55,12.57 35.38,17.61 42.21,22.65 47.83,26.16 53.46,29.66 58.14,32.20 62.81,34.73 69.44,38.95 76.07,43.17 81.68,45.95 87.30,48.73 94.43,52.79 101.56,56.85 107.10,59.17 112.63,61.48 116.92,63.33 121.21,65.18 125.31,66.65 129.41,68.12 136.11,70.93 142.81,73.75 148.11,75.73 153.40,77.70 160.39,80.35 167.39,82.99 172.92,84.90 178.44,86.81 185.34,89.39 192.24,91.97 197.44,93.86 202.63,95.74 209.05,98.22 215.46,100.70 220.41,102.15 225.36,103.60 231.99,106.03 238.62,108.46 243.85,110.30 249.07,112.13 255.82,114.69 262.56,117.24 268.14,119.14 273.73,121.04 280.72,123.66 287.71,126.28 293.39,128.18 299.07,130.08 306.36,132.75 313.65,135.42 319.50,137.31 325.35,139.21 332.99,141.93 340.63,144.65 346.67,146.53 352.71,148.42 357.68,150.04 362.66,151.66 368.38,153.99 374.11,156.33 381.22,159.86 388.34,163.39 393.43,165.57 398.52,167.75 406.81,172.25 415.10,176.75 419.26,179.63 423.42,182.50 427.83,186.05 432.24,189.59 436.20,193.06 440.16,196.54 444.07,200.89 447.98,205.25 454.46,212.86 460.93,220.47 463.92,224.86 466.90,229.25 469.78,234.09 472.67,238.93 474.76,242.74 476.86,246.55 479.25,251.74 481.65,256.94 483.72,261.83 485.80,266.73 487.47,272.11 489.15,277.48 491.34,285.81 493.53,294.13 494.35,300.91 495.17,307.70 495.45,317.04 495.72,326.38 495.37,331.92 495.03,337.46 494.08,347.79 493.13,358.12 491.53,365.11 489.93,372.09 488.71,377.62 487.49,383.14 486.39,387.85 485.29,392.55 483.19,399.50 481.09,406.44 479.70,411.99 478.32,417.54 475.30,425.24 472.27,432.94 468.81,441.43 465.34,449.91 462.74,456.34 460.15,462.77 457.89,468.18 455.63,473.59 453.48,478.51 451.33,483.43 447.49,490.47 443.65,497.51 438.84,505.33 434.03,513.15 430.60,518.93 427.16,524.70 424.62,529.18 422.08,533.66 417.34,541.35 412.61,549.04 406.33,556.48 400.06,563.93 392.98,570.27 385.90,576.60 382.06,579.11 378.23,581.62 374.37,583.53 370.51,585.45 364.35,587.72 358.19,589.99 352.57,591.38 346.96,592.76 339.93,593.90 332.89,595.03 327.36,595.92 321.83,596.82 316.53,597.55 311.23,598.29 299.69,598.80 288.14,599.32 282.32,599.51 276.51,599.70 268.54,599.35 260.58,599.00 254.67,599.09 248.76,599.17 243.68,599.33 238.61,599.48 231.66,599.32 224.71,599.16 220.16,599.35 215.61,599.54 207.11,599.88 198.62,600.21 191.53,600.52 184.44,600.83 178.37,600.69 172.30,600.55 167.13,600.27 161.96,599.99 151.73,599.15 141.49,598.30 137.16,598.09 132.83,597.89 128.11,597.49 123.39,597.09 114.54,595.71 105.68,594.33 101.03,593.68 96.39,593.03 89.74,591.50 83.09,589.96 78.22,589.16 73.35,588.37 68.80,587.76 64.24,587.16 57.58,585.66 50.92,584.15 46.19,583.00 41.47,581.86 37.20,581.20 32.94,580.55 27.91,579.57 22.87,578.59 15.27,576.71 7.67,574.84 1.34,573.85 -4.98,572.86 -13.94,570.63 -22.91,568.40 -29.60,567.03 -36.28,565.67 -41.01,565.03 -45.73,564.39 -50.74,563.54 -55.75,562.69 -60.52,561.76 -65.29,560.84 -72.63,558.80 -79.97,556.76 -85.72,555.45 -91.47,554.14 -99.21,551.92 -106.96,549.69 -113.11,547.97 -119.25,546.26 -124.52,545.07 -129.78,543.88 -136.85,541.84 -143.91,539.81 -149.73,538.49 -155.56,537.17 -163.39,534.94 -171.22,532.72 -177.39,531.03 -183.57,529.33 -191.41,526.67 -199.26,524.01 -205.36,522.17 -211.46,520.34 -219.11,517.32 -226.76,514.31 -232.41,512.37 -238.05,510.42 -243.22,508.38 -248.38,506.35 -255.34,502.60 -262.30,498.85 -269.89,494.48 -277.49,490.11 -283.14,487.26 -288.79,484.41 -293.71,481.64 -298.63,478.87 -304.88,474.19 -311.13,469.51 -316.95,463.65 -322.77,457.78 -326.69,453.95 -330.61,450.12 -333.69,446.27 -336.78,442.42 -339.38,437.02 -341.99,431.63 -343.76,427.62 -345.53,423.61 -347.27,417.34 -349.00,411.08 -349.71,403.68 -350.42,396.29 -350.86,391.03 -351.30,385.78 -351.26,380.59 -351.21,375.41 -349.56,367.90 -347.92,360.40 -346.74,354.84 -345.56,349.28 -344.10,344.26 -342.64,339.24 -340.22,332.79 -337.80,326.35 -334.09,318.72 -330.37,311.09 -327.73,305.43 -325.09,299.76 -320.65,292.61 -316.22,285.45 -313.36,280.12 -310.50,274.78 -306.50,268.17 -302.50,261.56 -299.72,256.58 -296.94,251.61 -292.63,245.16 -288.31,238.70 -285.07,233.33 -281.83,227.96 -277.27,220.90 -272.72,213.84 -269.35,208.26 -265.99,202.68 -263.08,197.95 -260.17,193.21 -255.89,186.75 -251.60,180.29 -248.31,175.02 -245.01,169.75 -240.54,163.26 -236.07,156.78 -232.77,151.35 -229.48,145.93 -225.35,139.16 -221.22,132.38 -219.18,127.99 -217.15,123.60 -215.10,119.37 -213.05,115.14 -208.25,106.73 -203.46,98.32 -200.72,92.63 -197.98,86.95 -195.95,82.90 -193.91,78.84 -191.67,73.78 -189.43,68.71 -187.57,64.36 -185.71,60.01 -182.90,54.14 -180.09,48.27 -178.08,43.71 -176.07,39.15 -173.59,34.00 -171.12,28.86 -166.89,19.43 -162.67,10.00 -160.57,6.11 -158.48,2.22 -153.52,-5.54 -148.57,-13.30 -145.32,-17.68 -142.08,-22.06 -136.28,-28.89 -130.48,-35.73 -124.75,-41.52 -119.02,-47.31 -113.03,-51.70 -107.04,-56.10 -102.46,-59.53 -97.88,-62.96 -93.03,-64.80 -88.19,-66.65 -82.79,-67.39 -77.39,-68.14 -72.87,-68.78 -68.35,-69.43 -63.17,-69.65 -57.99,-69.87 -53.30,-69.48 -48.62,-69.10 -42.04,-67.62 -35.47,-66.14 -27.52,-62.47 -19.57,-58.80 -14.13,-55.71 -8.69,-52.61 -4.37,-49.51 -0.05,-46.42 3.51,-42.87 7.08,-39.32 10.72,-35.18 14.37,-31.04 16.10,-26.82 17.83,-22.61 19.28,-18.29 20.73,-13.98 21.49,-8.89 22.24,-3.81 21.56,0.99 20.89,5.79 12.16,10.94 3.43,16.08 -1.07,15.00 -5.58,13.91 -7.31,12.29 -9.04,10.67 -10.16,8.58 -11.29,6.49 -11.69,4.15 -12.09,1.81 -11.72,-0.53 -11.35,-2.87 -10.25,-4.97 -9.15,-7.08 -7.44,-8.72 -5.72,-10.36 -3.57,-11.37 -1.43,-12.38 0.92,-12.65 3.28,-12.92 5.60,-12.43 7.92,-11.93 9.96,-10.72 12.00,-9.51 13.55,-7.71 15.09,-5.91 15.99,-3.71 16.88,-1.51 17.02,0.85 17.16,3.22 16.54,5.51 15.92,7.80 14.60,9.77 13.28,11.74 11.40,13.19 9.52,14.64 7.28,15.41 5.03,16.18 2.66,16.19 0.28,16.21 -1.96,15.46 -4.21,14.72 -6.11,13.29 -8.01,11.87 -9.35,9.91 -10.69,7.96 -11.34,5.67 -11.99,3.39 -11.88,1.02 -11.76,-1.34 -10.90,-3.55 -10.03,-5.76 -8.50,-7.58 -6.98,-9.39 -4.95,-10.63 -2.93,-11.86 -0.61,-12.39 1.69,-12.91 4.05,-12.67 6.41,-12.43 8.57,-11.44 10.73,-10.46 10.73,-10.46 10.73,-10.46 9.71,-9.21 8.69,-7.97 1.13,-5.86 -6.42,-3.76 -7.62,-9.34 -8.81,-14.91 -11.75,-18.89 -14.69,-22.86 -18.13,-25.98 -21.57,-29.10 -26.96,-32.25 -32.35,-35.39 -37.39,-37.75 -42.43,-40.11 -48.35,-41.45 -54.26,-42.78 -60.14,-43.09 -66.03,-43.41 -70.98,-42.93 -75.93,-42.46 -80.84,-42.04 -85.76,-41.61 -90.05,-39.04 -94.33,-36.46 -99.09,-33.55 -103.84,-30.65 -109.22,-25.72 -114.59,-20.80 -119.87,-15.18 -125.15,-9.56 -128.31,-5.27 -131.46,-0.97 -134.25,2.81 -137.04,6.61 -141.08,12.72 -145.13,18.83 -147.61,23.77 -150.09,28.71 -152.08,32.99 -154.06,37.27 -156.60,42.29 -159.14,47.31 -161.41,51.63 -163.68,55.95 -166.42,61.97 -169.17,67.99 -171.37,72.05 -173.57,76.12 -178.69,85.14 -183.80,94.15 -186.79,99.74 -189.78,105.32 -193.94,114.42 -198.11,123.51 -200.61,127.40 -203.11,131.28 -205.76,135.46 -208.41,139.64 -212.31,147.02 -216.20,154.39 -219.76,159.72 -223.32,165.05 -227.47,171.84 -231.61,178.62 -235.06,183.53 -238.50,188.43 -242.56,195.40 -246.62,202.36 -249.82,206.66 -253.01,210.96 -256.49,216.11 -259.97,221.27 -264.01,228.95 -268.04,236.64 -271.49,241.90 -274.93,247.16 -278.84,253.71 -282.74,260.25 -285.76,264.81 -288.79,269.37 -292.42,276.16 -296.06,282.96 -299.15,288.13 -302.24,293.31 -305.79,300.35 -309.35,307.39 -311.96,312.59 -314.58,317.78 -317.23,325.18 -319.87,332.58 -321.90,338.94 -323.93,345.31 -325.42,349.39 -326.92,353.46 -328.17,358.79 -329.43,364.11 -330.86,374.41 -332.28,384.70 -332.15,389.55 -332.01,394.40 -331.37,400.26 -330.72,406.11 -328.05,415.32 -325.37,424.52 -322.05,431.83 -318.73,439.14 -315.45,443.09 -312.17,447.03 -307.06,451.95 -301.94,456.86 -295.99,461.01 -290.04,465.16 -285.80,468.13 -281.56,471.10 -276.19,474.23 -270.82,477.37 -262.99,481.07 -255.16,484.77 -248.39,487.99 -241.61,491.20 -237.01,493.53 -232.40,495.86 -227.09,498.16 -221.78,500.47 -214.16,502.95 -206.55,505.44 -200.78,507.51 -195.00,509.58 -186.95,511.61 -178.90,513.64 -173.23,515.47 -167.55,517.29 -159.51,518.84 -151.48,520.39 -145.54,521.93 -139.60,523.48 -132.51,525.17 -125.41,526.86 -119.92,528.44 -114.43,530.02 -108.79,531.80 -103.14,533.59 -95.18,535.08 -87.23,536.58 -81.57,538.03 -75.92,539.47 -68.46,540.89 -61.00,542.32 -56.51,543.54 -52.01,544.76 -47.25,545.94 -42.48,547.12 -37.73,548.27 -32.99,549.41 -26.41,550.74 -19.84,552.06 -11.12,553.16 -2.40,554.25 4.30,555.07 11.01,555.89 19.05,556.77 27.10,557.65 31.83,558.64 36.56,559.63 45.69,561.80 54.83,563.97 61.08,564.96 67.34,565.95 72.13,566.71 76.92,567.47 82.00,568.37 87.09,569.27 93.34,570.24 99.59,571.20 104.26,571.91 108.93,572.63 117.24,573.98 125.54,575.33 129.87,575.82 134.21,576.31 139.16,576.70 144.10,577.08 149.28,577.66 154.45,578.24 158.91,578.48 163.38,578.72 167.84,579.08 172.30,579.44 178.37,579.30 184.44,579.16 191.53,579.47 198.61,579.78 207.11,580.11 215.60,580.44 220.15,580.63 224.69,580.82 231.63,580.64 238.56,580.46 243.60,580.59 248.65,580.72 254.52,580.73 260.39,580.75 268.12,580.24 275.84,579.73 281.39,579.55 286.94,579.36 297.68,578.40 308.43,577.43 313.43,576.78 318.43,576.13 323.61,575.27 328.78,574.41 334.91,572.92 341.04,571.42 346.87,569.64 352.69,567.85 357.17,566.75 361.65,565.64 367.49,562.98 373.33,560.33 379.74,555.12 386.15,549.92 392.05,543.87 397.94,537.83 403.10,531.31 408.25,524.79 411.20,520.70 414.15,516.62 417.63,511.27 421.11,505.93 425.05,498.10 428.98,490.27 432.19,483.04 435.40,475.81 437.81,471.20 440.23,466.60 442.69,461.61 445.14,456.63 447.64,450.63 450.13,444.64 452.63,435.91 455.13,427.19 457.12,419.96 459.11,412.73 460.50,407.18 461.89,401.64 463.31,394.51 464.73,387.39 465.90,383.05 467.08,378.70 468.20,373.46 469.31,368.21 470.22,361.88 471.12,355.54 471.61,350.12 472.10,344.70 472.29,340.45 472.48,336.20 472.71,331.45 472.94,326.69 472.70,318.22 472.47,309.74 472.00,303.57 471.53,297.41 470.12,290.54 468.71,283.67 467.43,279.30 466.16,274.94 464.31,270.45 462.46,265.96 458.59,257.78 454.73,249.60 452.10,245.17 449.47,240.75 447.00,236.88 444.53,233.00 438.67,225.75 432.81,218.49 429.75,214.86 426.69,211.23 423.26,207.95 419.83,204.66 415.88,201.32 411.93,197.97 408.43,195.16 404.93,192.36 398.10,187.74 391.27,183.12 386.46,180.62 381.65,178.13 374.48,175.18 367.31,172.22 361.98,169.83 356.64,167.44 352.13,165.44 347.62,163.45 341.86,161.33 336.10,159.22 328.00,157.05 319.90,154.88 314.28,152.78 308.66,150.68 300.98,148.45 293.30,146.23 287.80,144.14 282.31,142.05 275.04,139.78 267.77,137.52 262.35,135.44 256.93,133.36 249.80,131.08 242.67,128.79 237.81,126.74 232.94,124.69 226.36,122.50 219.77,120.31 214.67,118.41 209.57,116.50 202.86,114.08 196.15,111.67 191.51,109.55 186.87,107.43 179.64,105.10 172.42,102.77 167.26,100.65 162.10,98.52 154.47,96.18 146.84,93.84 141.78,91.61 136.72,89.38 129.59,86.80 122.46,84.23 118.05,82.03 113.65,79.84 109.96,77.57 106.27,75.30 100.55,72.44 94.82,69.57 87.49,65.96 80.16,62.35 74.28,59.10 68.40,55.86 61.53,51.91 54.66,47.96 50.11,44.81 45.56,41.66 40.00,37.80 34.45,33.95 27.00,29.18 19.55,24.41 13.12,19.76 6.70,15.10 0.91,10.68 -4.87,6.26 -5.55,5.59 -6.23,4.91 -6.72,4.09 -7.22,3.28 -7.51,2.37 -7.80,1.45 -7.86,0.50 -7.92,-0.45 -7.75,-1.39 -7.58,-2.33 -7.19,-3.20 -6.80,-4.08 -6.21,-4.83 -5.63,-5.59 -4.88,-6.18 -4.12,-6.77 -3.25,-7.17 -2.38,-7.56 -1.44,-7.74 -0.50,-7.92 0.44,-7.86 1.40,-7.81 2.31,-7.52 3.23,-7.24 4.05,-6.75 4.87,-6.26 4.87,-6.26 L 4.87,-6.26 Z"></path>
	</g>
</svg>
