<svg
	version="1.1"
	xmlns="http://www.w3.org/2000/svg"
	viewBox="0 0 670 512.0000000000002"
	width="670"
	height="512.0000000000002">
	<!-- svg-source:excalidraw -->

	<defs>
		<style class="style-fonts">
			@font-face {
				font-family: 'Virgil';
				src: url('https://excalidraw.com/Virgil.woff2');
			}
			@font-face {
				font-family: 'Cascadia';
				src: url('https://excalidraw.com/Cascadia.woff2');
			}
		</style>
	</defs>
	<rect x="0" y="0" width="670" height="512.0000000000002" fill="#ffffff"></rect>
	<g transform="translate(28 147) rotate(0 307 109.00000000000011)" stroke="none">
		<path
			d="M0.49 0.74 L2.73 -3.31 L7 -7.25 L9.75 -13.8 L22.57 -23.06 L29.75 -30.1 L39.74 -41.39 L46.64 -48.32 L53.76 -53.7 L57.05 -58.28 L63.65 -60.2 L76.38 -67.55 L85.2 -71.84 L90.77 -76.49 L92.91 -80.33 L109.12 -87.15 L124.06 -91.14 L130.07 -97.39 L150.66 -103.45 L157.02 -108.78 L165.49 -109.24 L183.11 -116.65 L195.07 -117.21 L203.23 -123.08 L223.65 -126.81 L239.04 -129.91 L247.28 -127.26 L271.92 -132.71 L282.7 -132.51 L311.02 -136.83 L325.45 -136.27 L353.24 -135.34 L365.79 -138.99 L392.21 -135.07 L405.75 -136.88 L418.33 -132.61 L431.08 -132.9 L455.76 -129.29 L467.32 -127.76 L487.37 -119.19 L499.72 -117.91 L517.83 -110.14 L526.32 -108.56 L539.51 -99.73 L548.87 -94.66 L555.57 -90.28 L558.91 -85.93 L566.9 -80.88 L578.69 -66.82 L587.14 -53.36 L592.25 -44.54 L601.69 -31.31 L605.34 -21.04 L616.7 -4.05 L621.48 3.96 L622.05 11.34 L624.96 14.02 L627.4 26.02 L630.78 43.92 L630.14 49.4 L629.71 60.71 L625.41 86.16 L622.29 96.68 L614.1 118.22 L610.76 127.37 L600.86 145.74 L585.16 170.57 L578.09 182.15 L572.26 187.34 L568.93 197.1 L551.57 214.95 L541.28 228.52 L524.36 246.97 L515.77 254.57 L506.65 261.17 L485.81 278.68 L466.22 285.6 L457.54 292.5 L446.58 297.55 L420.84 308.97 L414 312.57 L391.38 319.24 L379.5 326.45 L350.54 332.74 L342.85 335.24 L318.46 344.13 L306.57 346.21 L280.05 351.34 L273.93 354.93 L260.94 356.52 L248.95 356.18 L229.53 353.09 L217.4 354 L192.96 350.74 L181.79 343.7 L163.13 342.36 L144.4 333.8 L132.69 327.14 L114.25 317.1 L102.03 314.48 L87.11 298.65 L67.28 286.06 L61.49 279.74 L54.36 269.8 L41.67 253.92 L36.89 244.86 L28.66 233.97 L26.28 224.66 L21.24 218.93 L18.68 214.87 L15.92 200.11 L12.97 193.4 L9.98 187.04 L8.79 182.43 L2.43 169.52 L1.56 161.37 L1.04 158.59 L-3.6 145.89 L-3.67 137.54 L-3.79 133.91 L-3.42 124.92 L-4.36 115.6 L-8.21 111.52 L-8.91 107.37 L-6.25 101.38 L-10.31 89.89 L-11.03 81.79 L-12.66 77.08 L-10.28 72.31 L-13.31 64.11 L-15.98 62.71 L-16.87 55.4 L-16.37 55.05 L-16.2 48.61 L-16.91 46.61 L-17.39 40.66 L-16.35 41.95 L-17.82 38.73 L-16.66 37.84 L-17.07 35.22 L-17.07 32.35 L-18.01 31.81 L-16.06 29.75 L-14.74 29.41 L-16.37 28.59 L-12.62 28.19 L-14.98 24.67 L-11.26 23.57 L-12.1 21.02 L-10.5 20.22 L-9.24 20.95 L-10.45 19.06 L-6.11 19.99 L-5.48 16.25 L-4.69 15.94 L-5.18 13.21 L-4.22 15.83 L-5.41 12.62 L-2.18 13.97 L-1.28 10.38 L-1.3 8.9 L-0.14 6.66 L-0.55 6.4 L-2.6 4.89 L-2.17 3.52 L-0.51 -2.27 L-0.64 -2.44 L-0.97 -3.9 L0.3 0.05"
			stroke="none"
			stroke-width="0"
			fill="#a5d8ff"
			fill-rule="evenodd"></path>
		<path
			fill="#1e1e1e"
			d="M -7.15,-6.55 Q -7.15,-6.55 -4.09,-10.09 -1.02,-13.64 3.67,-18.29 8.37,-22.94 11.97,-26.71 15.57,-30.48 20.75,-35.35 25.94,-40.22 29.73,-44.14 33.53,-48.06 36.94,-51.40 40.35,-54.74 43.77,-57.93 47.20,-61.13 55.57,-67.05 63.94,-72.97 68.19,-75.59 72.43,-78.22 78.52,-82.25 84.62,-86.27 90.03,-88.95 95.45,-91.63 102.62,-94.49 109.79,-97.36 114.92,-99.81 120.05,-102.26 127.47,-105.05 134.89,-107.84 140.08,-110.30 145.27,-112.76 150.31,-114.88 155.36,-117.01 163.37,-119.03 171.37,-121.05 177.44,-122.88 183.50,-124.72 188.93,-126.46 194.35,-128.20 202.27,-129.59 210.20,-130.97 217.75,-132.30 225.31,-133.63 230.89,-134.78 236.47,-135.93 246.01,-136.52 255.55,-137.11 262.83,-138.03 270.10,-138.95 282.07,-139.66 294.03,-140.38 302.80,-140.87 311.56,-141.36 323.14,-141.80 334.72,-142.23 343.40,-142.37 352.09,-142.50 363.57,-142.52 375.05,-142.55 383.75,-142.24 392.45,-141.93 400.58,-141.32 408.71,-140.71 415.84,-140.35 422.96,-140.00 432.50,-138.46 442.04,-136.92 449.25,-135.92 456.46,-134.93 466.00,-132.53 475.55,-130.12 482.52,-128.49 489.50,-126.86 497.93,-124.19 506.35,-121.52 512.53,-119.53 518.71,-117.54 526.08,-113.83 533.46,-110.12 538.83,-107.35 544.21,-104.57 548.68,-102.08 553.15,-99.58 559.94,-94.64 566.72,-89.69 571.75,-84.60 576.77,-79.51 581.63,-73.59 586.49,-67.67 590.21,-62.87 593.94,-58.07 598.16,-51.13 602.39,-44.20 605.80,-39.14 609.21,-34.07 613.26,-27.12 617.31,-20.17 620.31,-14.79 623.32,-9.41 625.83,-4.99 628.34,-0.57 630.26,3.22 632.17,7.03 633.77,11.58 635.37,16.14 636.85,23.72 638.33,31.30 639.01,37.00 639.68,42.71 639.72,48.24 639.77,53.76 637.97,63.52 636.17,73.29 634.58,80.91 632.99,88.53 629.00,98.52 625.01,108.51 622.41,115.01 619.81,121.52 616.16,128.88 612.51,136.25 606.73,146.58 600.94,156.91 596.41,164.69 591.88,172.47 588.42,178.38 584.96,184.29 581.90,189.27 578.84,194.24 572.78,201.43 566.72,208.62 560.65,215.61 554.57,222.61 547.58,230.20 540.58,237.80 535.03,243.48 529.49,249.17 524.22,253.90 518.95,258.63 509.89,265.32 500.84,272.00 491.90,277.50 482.96,283.00 476.07,287.11 469.18,291.23 463.44,294.68 457.70,298.12 447.54,302.82 437.38,307.53 430.84,310.62 424.30,313.70 414.99,317.13 405.69,320.56 398.76,323.54 391.84,326.51 380.57,330.28 369.30,334.04 362.37,336.65 355.45,339.26 345.73,342.23 336.00,345.19 328.41,347.44 320.81,349.68 309.39,352.25 297.97,354.82 290.71,356.18 283.45,357.54 277.04,358.84 270.63,360.14 263.85,360.83 257.07,361.52 248.85,361.31 240.63,361.10 233.40,360.85 226.17,360.60 215.99,359.03 205.80,357.47 197.86,355.69 189.91,353.91 182.01,351.96 174.12,350.00 165.05,346.67 155.98,343.33 148.92,340.64 141.85,337.96 132.81,333.73 123.77,329.49 117.19,326.45 110.61,323.42 102.49,318.03 94.36,312.64 86.01,306.23 77.66,299.83 71.84,294.86 66.02,289.90 61.31,285.59 56.60,281.29 51.01,274.51 45.42,267.73 41.26,262.68 37.10,257.64 32.98,251.26 28.86,244.89 25.71,239.96 22.56,235.04 19.95,231.09 17.33,227.14 13.23,219.19 9.12,211.24 7.13,207.24 5.13,203.24 2.31,197.43 -0.50,191.61 -2.19,185.57 -3.87,179.52 -5.15,175.32 -6.43,171.12 -8.59,162.57 -10.76,154.03 -11.68,149.28 -12.59,144.53 -14.02,137.44 -15.45,130.34 -16.64,123.50 -17.84,116.65 -18.65,111.66 -19.46,106.66 -20.78,98.34 -22.11,90.02 -23.07,84.39 -24.03,78.75 -25.08,73.35 -26.13,67.94 -26.86,63.03 -27.59,58.12 -28.97,52.84 -30.36,47.56 -30.90,42.68 -31.45,37.80 -30.56,33.36 -29.67,28.91 -27.22,23.67 -24.78,18.43 -22.40,14.39 -20.02,10.34 -17.31,6.33 -14.61,2.32 -14.87,0.48 -15.13,-1.36 -14.89,-3.12 -14.66,-4.87 -14.02,-6.52 -13.37,-8.17 -12.35,-9.62 -11.33,-11.07 -9.99,-12.23 -8.65,-13.39 -7.07,-14.20 -5.49,-15.01 -3.77,-15.41 -2.04,-15.82 -0.27,-15.80 1.49,-15.78 3.21,-15.34 4.93,-14.90 6.49,-14.06 8.05,-13.22 9.36,-12.03 10.68,-10.84 11.67,-9.37 12.66,-7.90 13.27,-6.24 13.88,-4.57 14.08,-2.81 14.27,-1.05 14.27,-1.24 14.27,-1.43 13.92,0.91 13.57,3.27 12.49,5.39 11.41,7.51 9.70,9.17 8.00,10.83 5.86,11.86 3.72,12.89 1.35,13.19 -1.00,13.48 -3.33,13.00 -5.66,12.53 -7.72,11.33 -9.77,10.14 -11.34,8.35 -12.91,6.56 -13.82,4.36 -14.73,2.16 -14.90,-0.20 -15.06,-2.57 -14.46,-4.88 -13.86,-7.18 -12.56,-9.17 -11.25,-11.15 -9.38,-12.62 -7.51,-14.09 -5.26,-14.88 -3.02,-15.68 -0.64,-15.71 1.73,-15.75 3.99,-15.02 6.26,-14.30 8.17,-12.89 10.09,-11.48 11.45,-9.53 12.82,-7.58 13.49,-5.30 14.16,-3.01 14.07,-0.64 13.97,1.73 13.13,3.95 12.28,6.18 10.77,8.01 9.25,9.85 7.23,11.11 5.21,12.36 2.90,12.91 0.58,13.45 -1.78,13.23 -4.14,13.01 -6.32,12.04 -8.49,11.08 -10.24,9.47 -12.00,7.86 -13.14,5.77 -14.29,3.69 -14.71,1.16 -15.13,-1.36 -14.90,-3.11 -14.66,-4.87 -14.02,-6.52 -13.37,-8.17 -12.35,-9.62 -11.33,-11.07 -9.99,-12.23 -8.65,-13.39 -7.07,-14.20 -5.49,-15.01 -3.77,-15.41 -2.04,-15.82 -0.27,-15.80 1.49,-15.78 3.21,-15.34 4.92,-14.90 6.48,-14.06 8.05,-13.22 9.36,-12.03 10.67,-10.84 11.67,-9.37 12.66,-7.90 13.27,-6.24 13.88,-4.57 14.08,-2.81 14.27,-1.05 13.96,-1.09 13.65,-1.13 13.37,3.92 13.08,8.97 10.37,14.87 7.66,20.77 4.52,24.77 1.39,28.76 -1.54,33.62 -4.47,38.47 -3.99,43.66 -3.51,48.85 -2.64,53.95 -1.76,59.06 -1.25,63.75 -0.74,68.43 0.06,74.31 0.87,80.20 1.95,87.47 3.04,94.74 3.81,99.00 4.58,103.26 4.96,108.15 5.35,113.05 6.22,120.09 7.08,127.13 8.02,133.91 8.95,140.69 9.63,144.89 10.31,149.09 12.11,157.28 13.92,165.47 15.01,169.80 16.10,174.13 17.27,178.67 18.44,183.21 20.49,189.32 22.54,195.43 24.39,200.01 26.24,204.59 28.92,211.79 31.60,218.98 33.67,223.24 35.75,227.50 38.24,232.42 40.72,237.35 44.44,243.31 48.17,249.28 51.63,254.33 55.09,259.38 60.68,265.54 66.27,271.70 70.27,276.18 74.27,280.66 79.49,285.55 84.70,290.44 92.84,296.41 100.97,302.37 108.64,307.14 116.30,311.90 122.52,315.18 128.74,318.46 137.65,322.31 146.55,326.17 153.29,328.99 160.03,331.82 168.57,334.67 177.10,337.52 184.92,339.31 192.75,341.10 200.13,342.72 207.52,344.34 217.17,345.35 226.83,346.36 233.82,346.77 240.80,347.18 248.44,347.16 256.08,347.15 262.27,346.94 268.45,346.73 274.96,345.93 281.47,345.12 288.37,344.23 295.27,343.35 306.35,340.62 317.42,337.90 324.87,335.80 332.32,333.71 341.76,330.54 351.21,327.36 358.26,324.98 365.32,322.61 376.13,318.70 386.93,314.79 394.07,311.89 401.20,308.99 410.08,305.35 418.97,301.72 425.47,299.01 431.97,296.30 441.67,291.42 451.38,286.54 457.20,283.67 463.02,280.81 469.79,276.84 476.57,272.87 484.90,267.46 493.24,262.05 501.83,255.26 510.43,248.46 515.57,244.46 520.71,240.47 526.12,235.09 531.54,229.71 538.15,222.09 544.77,214.47 550.43,207.32 556.09,200.18 561.41,193.03 566.74,185.88 570.16,181.48 573.58,177.07 577.26,171.73 580.94,166.40 585.09,158.53 589.23,150.67 594.40,140.43 599.57,130.19 602.75,122.98 605.92,115.77 608.56,109.62 611.20,103.47 614.13,94.51 617.05,85.54 618.20,78.34 619.35,71.13 619.95,62.24 620.54,53.34 620.80,48.80 621.05,44.26 620.88,39.80 620.71,35.35 618.84,28.49 616.97,21.63 614.93,14.45 612.89,7.27 610.82,2.69 608.75,-1.88 606.41,-6.85 604.06,-11.82 599.57,-18.40 595.08,-24.98 591.93,-30.10 588.78,-35.23 584.33,-41.45 579.88,-47.67 576.73,-52.16 573.57,-56.66 569.01,-61.79 564.45,-66.92 559.48,-71.60 554.51,-76.28 549.54,-81.31 544.58,-86.35 540.75,-89.22 536.92,-92.10 532.25,-95.19 527.57,-98.29 520.77,-101.64 513.96,-104.98 508.42,-107.41 502.88,-109.84 494.55,-112.16 486.23,-114.47 479.50,-116.45 472.77,-118.43 463.60,-120.47 454.43,-122.51 447.36,-123.86 440.30,-125.20 431.13,-126.44 421.97,-127.69 414.85,-128.49 407.74,-129.29 399.94,-130.03 392.14,-130.77 383.65,-130.95 375.16,-131.13 363.80,-130.94 352.43,-130.75 343.89,-130.38 335.35,-130.02 323.98,-129.27 312.60,-128.53 303.90,-127.60 295.19,-126.67 283.64,-125.40 272.09,-124.12 264.62,-123.07 257.14,-122.01 248.22,-120.65 239.30,-119.29 233.91,-118.58 228.51,-117.86 221.08,-116.13 213.64,-114.41 206.58,-112.68 199.51,-110.96 194.02,-109.43 188.54,-107.90 182.46,-106.10 176.38,-104.30 169.34,-101.82 162.30,-99.35 157.66,-97.66 153.01,-95.98 147.58,-93.53 142.14,-91.08 135.38,-87.73 128.62,-84.38 123.37,-81.86 118.13,-79.35 111.73,-75.92 105.33,-72.50 97.92,-68.60 90.52,-64.70 86.84,-62.51 83.16,-60.33 79.01,-57.93 74.86,-55.52 67.74,-50.71 60.62,-45.90 57.16,-43.02 53.71,-40.15 50.40,-37.34 47.08,-34.53 43.18,-30.73 39.28,-26.93 34.47,-21.76 29.66,-16.59 25.98,-12.98 22.30,-9.37 17.99,-4.76 13.67,-0.15 10.41,3.19 7.15,6.55 6.26,7.31 5.37,8.07 4.33,8.60 3.28,9.12 2.14,9.38 1.00,9.64 -0.16,9.63 -1.33,9.61 -2.46,9.31 -3.59,9.01 -4.62,8.45 -5.64,7.88 -6.50,7.09 -7.37,6.30 -8.01,5.33 -8.66,4.36 -9.06,3.26 -9.45,2.16 -9.57,0.99 -9.70,-0.16 -9.54,-1.32 -9.37,-2.48 -8.94,-3.56 -8.51,-4.65 -7.83,-5.60 -7.15,-6.55 -7.15,-6.55 L -7.15,-6.55 Z"></path>
	</g>
</svg>
