<svg id="visual" viewBox="0 0 900 450" width="900" height="450" xmlns="http://www.w3.org/2000/svg" xmlns:xlink="http://www.w3.org/1999/xlink" version="1.1"><rect x="0" y="0" width="900" height="450" fill="#2C0EB4"></rect><g transform="translate(489.0659415406895 216.85949644103115)"><path d="M56.2 -110.9C68.4 -90.3 70.7 -66.2 85.4 -47.2C100.1 -28.1 127 -14.1 127.3 0.1C127.5 14.3 101 28.7 85.9 47C70.8 65.3 67.2 87.7 54.7 105.8C42.3 124 21.2 138 -6.7 149.5C-34.5 161.1 -69 170.2 -97.6 161.3C-126.2 152.5 -148.8 125.8 -167.4 95.9C-186 66 -200.5 33 -204.4 -2.2C-208.3 -37.5 -201.6 -75 -176.7 -93.9C-151.7 -112.8 -108.6 -113.1 -76.1 -122C-43.7 -131 -21.8 -148.5 0.1 -148.6C22 -148.8 44 -131.5 56.2 -110.9" fill="none" stroke="#FFFFFF" stroke-width="6"></path></g></svg>